{"glyphs":{"0":{"ha":982,"x_min":42,"x_max":938,"o":"m 899 251 q 763 63 853 135 q 567 -32 674 -10 q 353 -22 461 -54 q 163 104 246 11 q 80 243 108 165 q 47 405 51 321 q 59 573 42 489 q 114 730 76 657 q 208 859 151 803 q 338 943 264 915 q 525 971 435 981 q 690 917 615 961 q 822 799 765 872 q 908 636 878 725 q 938 448 938 547 q 899 251 938 349 m 410 536 q 401 431 389 471 q 442 373 414 390 q 505 360 469 356 q 567 392 540 365 q 605 464 594 418 q 593 575 615 510 q 556 617 582 607 q 500 621 529 628 q 445 592 471 614 q 410 536 419 569 z "},"1":{"ha":697,"x_min":22,"x_max":647,"o":"m 425 -58 q 325 -33 374 -61 q 253 42 276 -4 q 226 134 231 85 q 219 232 221 183 q 224 386 219 310 q 233 539 228 463 q 170 540 201 535 q 110 556 139 544 q 69 581 88 565 q 39 618 50 597 q 26 660 29 638 q 24 704 22 682 q 52 794 28 751 q 108 872 76 838 q 185 947 144 913 q 271 1013 226 982 q 360 1048 313 1040 q 452 1043 408 1056 q 531 999 496 1031 q 581 921 565 968 q 594 852 592 888 q 596 781 597 817 q 592 590 594 685 q 601 400 590 496 q 618 288 608 343 q 639 176 628 233 q 646 117 644 147 q 639 60 647 88 q 619 23 632 40 q 589 -8 606 6 q 544 -33 569 -24 q 494 -49 519 -42 q 460 -54 476 -51 q 425 -58 443 -57 z "},"2":{"ha":867,"x_min":40,"x_max":818,"o":"m 656 8 q 519 -18 597 -11 q 363 -17 440 -25 q 217 17 285 -8 q 110 86 149 42 q 72 167 79 121 q 76 262 65 214 q 111 355 86 310 q 169 433 136 400 q 241 485 201 464 q 322 528 281 507 q 401 572 363 549 q 468 628 439 594 q 495 695 497 660 q 474 753 493 731 q 427 776 456 775 q 376 743 399 778 q 363 706 365 726 q 358 663 360 685 q 353 622 357 642 q 335 588 349 603 q 267 549 307 558 q 185 547 226 540 q 110 577 144 554 q 63 636 76 600 q 53 756 40 693 q 94 871 67 818 q 177 981 126 935 q 289 1053 228 1026 q 417 1085 350 1079 q 547 1074 483 1090 q 665 1020 610 1058 q 758 921 719 982 q 804 787 797 860 q 791 643 811 714 q 725 512 771 572 q 613 415 679 451 q 560 389 586 401 q 515 354 533 376 q 509 321 496 329 q 553 313 522 313 q 624 319 585 314 q 696 326 664 324 q 767 308 739 331 q 806 251 794 286 q 813 174 818 215 q 786 97 808 132 q 730 42 765 65 q 656 8 694 19 z "},"3":{"ha":910,"x_min":43,"x_max":868,"o":"m 685 8 q 559 -32 626 -21 q 422 -41 492 -43 q 284 -24 353 -39 q 154 14 215 -10 q 90 58 115 29 q 54 119 65 86 q 45 189 43 153 q 63 255 47 225 q 108 306 79 285 q 181 332 138 328 q 247 329 214 336 q 314 314 281 322 q 381 300 347 306 q 447 301 414 294 q 483 317 467 306 q 509 344 500 329 q 517 375 518 358 q 504 406 517 392 q 479 417 497 413 q 440 424 461 421 q 398 428 418 426 q 368 433 378 431 q 314 470 333 444 q 291 526 294 496 q 301 586 288 557 q 346 633 314 615 q 419 664 381 653 q 492 697 458 675 q 517 733 514 711 q 508 774 519 756 q 476 801 497 793 q 431 797 454 810 q 417 785 425 794 q 401 765 410 776 q 386 744 393 754 q 375 731 379 735 q 309 674 349 694 q 226 653 269 654 q 144 668 183 651 q 78 721 104 685 q 58 778 58 746 q 68 842 57 810 q 99 905 79 875 q 143 957 119 935 q 276 1040 206 1014 q 417 1067 346 1065 q 554 1047 488 1068 q 674 990 621 1026 q 764 905 728 954 q 810 799 800 856 q 799 682 819 743 q 719 563 779 621 q 831 428 794 506 q 864 271 868 350 q 815 121 860 192 q 685 8 771 50 z "},"4":{"ha":1013,"x_min":47,"x_max":985,"o":"m 697 -35 q 642 -44 671 -42 q 586 -45 614 -47 q 531 -35 558 -43 q 482 -11 504 -26 q 444 31 461 3 q 430 72 433 50 q 424 118 426 94 q 424 183 421 150 q 428 249 426 217 q 428 274 429 261 q 425 297 428 286 q 348 289 386 294 q 271 286 310 283 q 218 292 244 288 q 168 307 192 296 q 110 353 135 324 q 73 413 86 379 q 57 482 60 447 l 57 501 q 49 563 50 532 q 47 624 47 593 q 53 728 47 676 q 64 832 58 779 q 85 937 68 885 q 138 1029 101 989 q 172 1060 153 1046 q 213 1082 190 1075 q 283 1089 246 1093 q 353 1074 321 1085 q 392 1051 374 1065 q 419 1018 410 1038 q 423 972 426 1001 q 411 910 419 942 q 409 895 410 903 q 406 881 408 888 q 393 826 400 853 q 379 772 386 800 q 369 726 374 749 q 365 679 364 703 q 369 653 367 665 q 379 629 372 640 q 404 616 385 619 q 435 613 424 613 q 500 618 471 610 q 513 621 503 618 q 525 625 522 624 q 533 636 531 628 q 538 655 536 644 q 541 675 540 665 q 543 690 542 685 q 547 749 546 719 q 549 808 549 779 q 548 856 549 832 q 549 905 547 881 q 555 952 550 929 q 571 996 560 975 q 592 1029 579 1014 q 622 1054 604 1044 q 655 1065 638 1063 q 690 1065 672 1067 q 760 1051 725 1063 q 818 1013 794 1039 q 842 967 835 993 q 850 915 849 942 q 840 800 851 857 q 813 686 828 743 q 807 668 810 676 q 801 650 804 660 q 826 644 814 647 q 851 638 839 640 q 876 630 858 636 q 899 621 893 624 q 934 601 917 611 q 965 576 951 592 q 981 542 978 561 q 983 503 985 522 q 974 440 982 471 q 949 382 967 408 q 889 328 926 347 q 849 315 869 318 q 807 314 828 313 l 794 314 q 813 231 806 272 q 821 146 821 189 q 817 88 821 118 q 797 35 813 58 q 755 -10 782 8 q 697 -35 728 -28 z "},"5":{"ha":807,"x_min":44,"x_max":756,"o":"m 660 90 q 567 19 618 50 q 460 -29 515 -11 q 351 -51 406 -47 q 251 -40 297 -54 q 172 8 206 -25 q 124 96 138 40 q 119 147 117 119 q 130 199 121 174 q 154 246 139 225 q 192 278 169 267 q 252 294 217 289 q 319 307 288 300 q 374 327 351 314 q 393 367 396 340 q 365 395 390 389 q 307 401 340 401 q 240 401 274 401 q 186 411 206 400 q 117 473 146 433 q 71 563 88 513 q 49 668 54 613 q 51 778 44 724 q 77 880 58 832 q 128 961 96 928 q 199 1007 151 986 q 302 1042 247 1028 q 410 1063 357 1056 q 499 1068 464 1069 q 588 1056 544 1065 q 667 1026 632 1046 q 721 975 701 1007 q 739 897 740 943 q 727 838 738 868 q 698 781 717 807 q 654 738 679 756 q 600 717 629 721 q 549 722 583 714 q 478 738 515 729 q 407 749 440 746 q 360 743 374 753 q 348 724 350 736 q 349 701 346 713 q 361 679 353 689 q 382 667 369 669 q 453 654 417 658 q 526 644 490 650 q 594 625 561 638 q 653 590 626 613 q 728 481 703 547 q 755 344 754 415 q 732 206 756 274 q 660 90 708 138 z "},"6":{"ha":838,"x_min":47,"x_max":818,"o":"m 806 268 q 734 110 790 175 q 601 12 678 46 q 435 -26 524 -22 q 269 -1 347 -29 q 133 87 190 28 q 58 239 75 146 q 48 342 49 290 q 54 444 47 393 q 80 591 64 515 q 119 735 96 667 q 176 863 143 804 q 251 959 208 922 q 349 1008 294 996 q 471 994 403 1019 q 524 958 504 982 q 552 904 544 935 q 553 841 560 874 q 528 779 547 808 q 453 679 492 728 q 385 576 415 631 q 550 576 469 590 q 692 522 631 563 q 785 417 753 482 q 806 268 818 353 m 401 217 q 465 224 444 210 q 488 260 485 238 q 481 308 492 283 q 450 347 469 333 q 404 358 431 361 q 351 319 378 354 q 338 288 339 304 q 344 256 338 271 q 367 231 351 242 q 401 217 382 221 z "},"7":{"ha":807,"x_min":46,"x_max":764,"o":"m 456 -18 q 401 -42 433 -36 q 333 -46 368 -49 q 264 -33 297 -43 q 206 -7 231 -22 q 178 16 190 3 q 163 46 167 29 q 158 115 154 79 q 174 183 163 151 q 206 261 186 224 q 243 338 225 299 q 241 337 242 338 q 239 336 240 336 q 176 328 208 331 q 115 336 144 325 q 86 358 99 343 q 67 389 74 372 q 57 423 61 406 q 50 458 53 440 q 47 494 47 476 q 53 531 46 513 q 96 586 64 567 q 144 603 118 600 q 196 610 171 607 q 249 613 222 613 q 301 615 275 614 q 321 611 310 615 q 347 672 335 642 q 363 736 358 703 q 356 744 363 744 q 294 736 324 743 q 232 726 264 729 q 176 726 204 724 q 124 742 147 728 q 90 777 103 754 q 71 824 76 800 q 64 880 65 851 q 68 936 63 908 q 80 972 72 954 q 101 1003 88 989 q 144 1033 119 1022 q 194 1050 168 1044 q 323 1063 258 1063 q 453 1061 388 1064 q 516 1056 485 1058 q 579 1047 547 1054 q 604 1042 592 1044 q 628 1033 617 1039 q 679 994 657 1021 q 715 928 703 967 q 728 853 728 890 q 716 791 726 821 q 694 731 706 761 q 674 685 685 707 q 651 639 663 663 q 644 623 649 631 q 638 607 640 615 q 651 605 644 606 q 664 601 657 604 q 691 596 678 599 q 717 586 704 593 q 751 549 740 575 q 761 488 761 521 q 761 433 764 460 q 754 381 758 407 q 692 293 743 321 q 667 284 681 286 q 639 282 653 282 q 598 285 618 282 q 558 292 578 289 q 556 272 558 283 q 551 248 554 260 q 547 226 549 236 q 543 210 544 215 q 523 130 532 169 q 500 51 514 90 q 483 14 493 32 q 456 -18 472 -4 z "},"8":{"ha":915,"x_min":32,"x_max":867,"o":"m 772 503 q 854 344 842 425 q 838 194 867 264 q 744 70 808 125 q 598 -12 681 15 q 420 -34 515 -39 q 233 21 325 -29 q 151 97 179 50 q 115 199 122 143 q 121 314 108 254 q 161 428 133 374 q 56 590 81 499 q 56 767 32 681 q 149 924 81 854 q 321 1021 217 993 q 422 1041 369 1033 q 526 1047 474 1049 q 627 1034 578 1046 q 719 997 676 1022 q 818 899 783 960 q 859 769 853 839 q 843 630 865 700 q 772 503 821 560 m 489 729 q 421 738 451 744 q 370 715 390 732 q 340 673 350 697 q 335 629 331 649 q 360 600 340 610 q 419 601 381 590 q 470 626 446 610 q 507 663 494 643 q 517 700 519 682 q 489 729 515 718 m 404 272 q 458 261 428 258 q 514 278 488 264 q 559 315 540 292 q 581 365 578 338 q 565 392 582 383 q 525 401 549 400 q 476 397 501 403 q 436 383 451 392 q 406 358 419 374 q 385 328 392 343 q 383 297 379 313 q 404 272 388 282 z "},"9":{"ha":874,"x_min":19,"x_max":829,"o":"m 596 0 q 510 -39 563 -33 q 406 -28 457 -44 q 314 21 354 -12 q 268 99 274 54 q 277 167 264 122 q 310 260 290 211 q 349 354 329 310 q 378 421 368 399 q 267 420 324 413 q 163 450 211 428 q 81 511 115 472 q 38 604 47 550 q 54 788 19 703 q 158 937 89 874 q 324 1036 228 1000 q 525 1072 419 1072 q 706 1033 640 1072 q 800 926 771 993 q 827 770 829 858 q 806 585 825 682 q 758 390 788 489 q 700 201 728 290 q 660 94 683 147 q 596 0 636 40 m 357 650 q 395 654 374 646 q 438 678 417 663 q 476 713 458 693 q 501 752 493 732 q 503 790 508 772 q 476 818 499 807 q 439 817 463 825 q 392 792 415 808 q 347 753 368 775 q 318 711 326 732 q 317 674 310 690 q 357 650 325 657 z "},"\u0000":{"ha":0,"x_min":0,"x_max":0,"o":""},"\r":{"ha":347,"x_min":0,"x_max":0,"o":""}," ":{"ha":347,"x_min":0,"x_max":0,"o":""},"!":{"ha":494,"x_min":53,"x_max":449,"o":"m 321 329 q 283 297 308 308 q 228 281 257 285 q 171 285 199 278 q 125 308 143 292 q 92 371 104 328 q 73 463 79 414 q 66 560 67 513 q 65 636 65 607 q 68 717 65 667 q 79 817 71 767 q 102 912 88 868 q 142 975 117 956 q 199 999 164 993 q 269 1002 233 1006 q 340 988 306 999 q 400 961 375 978 q 439 902 429 940 q 447 819 449 864 q 434 728 444 774 q 415 647 424 682 q 399 582 410 628 q 374 485 388 536 q 347 390 361 435 q 321 329 332 346 m 286 -89 q 240 -98 267 -96 q 187 -97 214 -100 q 135 -87 160 -94 q 97 -67 111 -79 q 72 -31 82 -53 q 57 16 61 -8 q 55 65 53 40 q 67 108 57 89 q 124 170 88 147 q 201 199 160 193 q 283 194 242 206 q 356 151 325 182 q 390 86 383 122 q 387 15 397 50 q 350 -48 376 -19 q 286 -89 324 -76 z "},"\"":{"ha":622,"x_min":36,"x_max":586,"o":"m 515 719 q 454 698 490 700 q 390 708 418 696 q 369 721 383 711 q 353 738 356 731 q 342 767 344 750 q 342 799 340 783 q 343 837 342 818 q 346 875 344 856 q 335 917 339 896 q 336 960 332 939 q 354 1006 339 985 q 392 1038 369 1025 q 438 1053 414 1050 q 493 1050 465 1057 q 543 1026 521 1043 q 578 981 567 1010 q 585 935 585 958 q 583 888 586 911 q 550 768 575 824 q 535 742 543 754 q 515 719 526 729 m 218 715 q 158 694 194 696 q 93 704 122 692 q 73 717 86 707 q 56 733 60 726 q 46 763 47 746 q 44 794 44 779 q 47 833 46 814 q 50 871 49 851 q 40 913 43 890 q 39 956 36 935 q 46 980 42 968 q 57 1001 50 992 q 94 1033 72 1021 q 140 1049 117 1046 q 197 1046 168 1053 q 247 1022 225 1039 q 267 1001 258 1013 q 281 976 276 990 q 289 931 289 954 q 286 883 289 907 q 253 764 278 819 q 239 738 247 750 q 218 715 231 725 z "},"#":{"ha":1117,"x_min":46,"x_max":1072,"o":"m 878 24 q 828 -18 860 -4 q 759 -35 796 -32 q 685 -31 722 -39 q 621 -6 647 -22 q 591 39 599 8 q 583 106 583 69 q 589 179 583 143 q 599 242 594 215 l 543 240 q 538 239 543 239 q 528 239 533 239 q 517 239 522 239 q 513 238 513 239 q 520 206 515 226 q 528 162 525 185 q 533 119 532 139 q 529 88 533 99 q 485 42 517 58 q 415 20 453 25 q 338 23 376 15 q 275 51 300 31 q 258 78 265 60 q 244 119 250 97 q 235 161 239 140 q 231 194 232 182 q 215 196 231 194 q 179 199 199 197 q 141 203 160 201 q 117 207 122 204 q 79 238 92 215 q 63 290 67 261 q 60 349 58 318 q 67 407 63 381 q 122 477 76 460 q 221 486 167 494 q 222 513 222 500 q 222 532 222 524 q 224 540 222 540 q 187 536 210 539 q 141 533 164 533 q 97 535 118 532 q 67 549 76 539 q 50 583 54 561 q 46 629 46 604 q 49 678 46 654 q 57 719 53 703 q 77 753 63 740 q 112 774 92 767 q 156 782 132 781 q 200 781 179 783 q 200 817 200 793 q 202 866 200 840 q 207 914 204 892 q 217 947 210 936 q 269 999 236 982 q 342 1018 303 1017 q 419 1006 381 1019 q 488 965 457 992 q 505 930 501 954 q 507 877 508 906 q 501 822 506 849 q 496 776 497 794 q 506 778 494 778 q 529 779 517 778 q 564 781 544 779 q 560 838 561 803 q 560 906 558 872 q 571 970 563 940 q 597 1014 579 1000 q 650 1038 618 1031 q 717 1044 682 1044 q 784 1038 751 1044 q 840 1019 817 1032 q 872 981 863 1007 q 881 922 881 954 q 877 856 882 889 q 869 796 872 822 q 925 799 894 797 q 983 795 956 800 q 1031 778 1011 790 q 1058 740 1051 765 q 1066 694 1063 722 q 1069 639 1069 667 q 1063 585 1068 611 q 1046 546 1058 560 q 1014 531 1035 535 q 969 526 993 526 q 922 527 946 525 q 883 532 899 529 q 883 523 882 532 q 882 515 883 514 q 883 508 883 515 q 881 491 882 500 q 878 475 879 482 q 879 468 876 468 q 922 467 896 467 q 974 463 949 467 q 1022 453 1000 460 q 1053 431 1044 446 q 1069 372 1067 407 q 1064 305 1072 338 q 1037 247 1056 272 q 992 214 1018 221 q 966 212 983 211 q 931 214 949 213 q 901 216 914 215 q 888 217 888 217 q 890 174 888 201 q 892 117 892 146 q 889 62 892 88 q 878 24 886 36 m 519 567 q 489 524 497 547 q 485 484 481 501 q 505 460 489 467 q 547 467 521 454 q 606 520 590 489 q 614 572 621 551 q 581 596 607 593 q 519 567 556 599 z "},"$":{"ha":915,"x_min":39,"x_max":865,"o":"m 689 -44 q 663 -98 685 -75 q 611 -132 642 -121 q 547 -142 581 -143 q 483 -124 513 -142 q 459 -97 467 -114 q 449 -61 451 -81 q 447 -22 446 -42 q 450 17 447 -1 q 371 19 413 15 q 291 35 329 24 q 220 67 253 47 q 169 118 188 88 q 146 176 153 144 q 143 238 139 208 q 164 292 147 268 q 211 329 181 317 q 254 337 225 335 q 319 340 283 339 q 394 342 356 342 q 468 344 433 342 q 529 353 503 347 q 567 369 556 358 q 576 399 583 386 q 549 422 569 413 q 502 435 529 432 q 451 438 475 439 q 369 428 411 435 q 287 420 328 422 q 206 423 246 418 q 133 447 167 428 q 64 528 86 474 q 40 633 42 582 q 63 768 39 706 q 132 881 88 831 q 241 965 176 931 q 386 1014 306 999 q 376 1084 381 1047 q 392 1149 372 1121 q 438 1181 407 1169 q 501 1192 468 1192 q 564 1183 535 1193 q 608 1151 593 1172 q 628 1085 628 1122 q 621 1013 628 1047 q 672 1000 646 1006 q 724 986 699 994 q 772 965 749 978 q 813 935 794 953 q 841 871 836 910 q 837 792 846 832 q 805 720 828 753 q 749 678 782 688 q 674 677 711 665 q 599 706 636 689 q 524 736 561 724 q 449 739 486 749 q 417 717 426 733 q 410 683 408 700 q 422 650 411 665 q 449 632 432 635 q 542 622 493 622 q 640 618 592 621 q 731 603 688 615 q 807 561 774 592 q 852 488 839 531 q 865 397 865 446 q 849 298 864 349 q 810 203 835 247 q 751 122 785 158 q 676 68 717 86 q 683 22 679 44 q 688 -15 686 3 q 689 -44 690 -33 z "},"%":{"ha":1610,"x_min":31,"x_max":1579,"o":"m 790 7 q 725 -10 761 -10 q 666 -6 696 -10 q 608 11 636 -1 q 567 35 586 21 q 533 68 549 50 q 510 113 518 88 q 504 164 501 139 q 540 319 515 243 q 597 467 564 394 l 597 469 q 599 471 597 471 q 653 636 625 554 q 718 797 682 718 q 788 940 750 871 q 879 1071 826 1010 q 922 1105 896 1090 q 975 1114 949 1119 q 1045 1095 1011 1107 q 1107 1061 1079 1083 q 1144 1027 1126 1046 q 1169 985 1161 1008 q 1176 922 1179 954 q 1165 858 1174 889 q 1124 740 1150 797 q 1072 625 1099 683 q 972 383 1015 506 q 919 236 944 310 q 858 92 894 163 q 830 45 846 68 q 790 7 814 22 m 426 408 q 332 381 385 388 q 228 384 279 375 q 132 417 176 393 q 63 481 88 440 q 34 577 38 522 q 44 688 31 632 q 83 796 57 744 q 143 883 110 847 q 201 931 168 910 q 269 966 233 953 q 343 982 306 979 q 415 974 381 985 q 523 913 481 953 q 587 819 565 872 q 609 708 608 767 q 589 593 610 649 q 527 489 568 538 q 426 408 486 440 m 281 664 q 294 635 281 639 q 326 638 308 631 q 363 663 344 646 q 392 699 382 679 q 400 738 403 719 q 372 767 397 756 q 335 769 351 775 q 306 747 318 763 q 288 708 294 731 q 281 664 281 686 m 1396 46 q 1301 19 1354 25 q 1197 21 1249 13 q 1101 53 1146 29 q 1032 117 1057 78 q 1003 213 1007 158 q 1013 324 1000 268 q 1053 433 1026 381 q 1113 519 1079 485 q 1170 567 1138 546 q 1239 602 1203 589 q 1313 618 1275 615 q 1385 611 1350 621 q 1492 549 1450 590 q 1556 456 1535 508 q 1578 345 1578 404 q 1558 230 1579 286 q 1497 125 1538 174 q 1396 46 1456 76 m 1250 300 q 1263 272 1250 276 q 1295 275 1276 267 q 1333 300 1314 283 q 1362 337 1351 317 q 1369 375 1372 357 q 1342 404 1367 393 q 1304 406 1321 413 q 1276 383 1288 399 q 1257 344 1264 367 q 1250 300 1250 322 z "},"&":{"ha":1122,"x_min":43,"x_max":1093,"o":"m 700 78 q 511 -11 614 11 q 315 -12 408 -33 q 151 72 222 8 q 56 243 79 136 q 47 362 43 299 q 70 484 51 425 q 122 594 89 543 q 203 678 156 644 q 134 794 144 731 q 151 917 124 858 q 237 1022 178 976 q 374 1085 296 1068 q 522 1098 444 1100 q 665 1074 599 1096 q 778 1006 731 1051 q 838 889 825 961 q 834 819 843 854 q 807 751 825 785 q 765 688 789 718 q 717 632 740 658 q 708 608 706 621 q 719 581 710 594 q 742 555 729 568 q 765 529 754 542 q 788 572 778 549 q 810 616 799 594 q 838 655 822 638 q 874 683 853 672 q 947 691 907 700 q 1019 657 986 682 q 1073 596 1053 632 q 1089 521 1093 560 q 1068 467 1086 497 q 1026 405 1050 436 q 977 347 1003 374 q 933 307 951 321 q 1017 193 1004 260 q 972 64 1031 126 q 908 21 943 33 q 837 10 874 8 q 765 30 800 13 q 700 78 729 47 m 449 810 q 440 761 429 781 q 471 736 450 742 q 515 743 492 731 q 544 789 538 756 q 535 810 547 801 q 506 822 522 818 q 472 822 489 825 q 449 810 456 819 m 400 289 q 438 290 418 285 q 475 306 457 294 q 509 333 493 318 q 536 364 525 349 q 525 380 539 368 q 492 404 511 392 q 454 426 474 417 q 428 433 435 435 q 395 408 408 429 q 377 363 382 388 q 377 316 372 338 q 400 289 382 294 z "},"'":{"ha":325,"x_min":36,"x_max":289,"o":"m 218 719 q 158 698 194 700 q 93 708 122 696 q 73 721 86 711 q 56 738 60 731 q 46 767 47 750 q 44 799 44 783 q 47 837 46 818 q 50 875 49 856 q 40 917 43 896 q 39 960 36 939 q 46 984 42 972 q 57 1006 50 996 q 94 1038 72 1025 q 140 1053 117 1050 q 197 1050 168 1057 q 247 1026 225 1043 q 267 1006 258 1018 q 281 981 276 994 q 289 935 289 958 q 286 888 289 911 q 253 768 278 824 q 239 742 247 754 q 218 719 231 729 z "},"(":{"ha":635,"x_min":47,"x_max":624,"o":"m 476 -65 q 417 -79 449 -78 q 354 -74 385 -81 q 286 -42 318 -64 q 228 6 254 -21 q 158 97 186 46 q 111 200 131 147 q 79 298 93 249 q 58 399 65 347 q 53 572 47 485 q 78 742 58 658 q 121 871 93 808 q 182 993 149 933 q 256 1099 213 1050 q 354 1182 300 1149 q 413 1203 381 1199 q 443 1202 428 1206 q 474 1196 458 1199 q 563 1149 522 1186 q 617 1065 604 1113 q 617 1006 624 1036 q 597 949 611 975 q 553 885 579 914 q 503 824 526 856 q 439 703 463 765 q 406 542 411 625 q 417 378 400 458 q 447 287 426 331 q 494 203 468 243 q 531 148 513 175 q 560 90 549 121 q 564 44 568 67 q 547 0 560 21 q 516 -38 535 -21 q 476 -65 497 -56 z "},")":{"ha":621,"x_min":24,"x_max":571,"o":"m 235 -71 q 173 -74 204 -76 q 114 -56 142 -71 q 75 -26 93 -44 q 46 13 57 -8 q 32 58 35 35 q 38 103 29 81 q 70 159 50 133 q 110 213 90 185 q 161 294 138 251 q 196 383 185 336 q 216 546 217 463 q 192 708 215 629 q 167 772 182 740 q 133 832 153 803 q 88 895 113 864 q 46 963 63 926 q 29 1021 35 990 q 33 1079 24 1051 q 57 1122 42 1101 q 92 1160 72 1143 q 136 1188 113 1176 q 183 1203 160 1199 q 215 1207 199 1206 q 246 1206 231 1208 q 301 1183 274 1201 q 395 1094 354 1146 q 464 985 436 1043 q 519 858 494 922 q 554 728 543 794 q 570 556 569 643 q 556 385 571 469 q 529 285 546 333 q 492 189 513 236 q 438 87 468 136 q 365 1 408 38 q 304 -44 338 -24 q 235 -71 271 -64 z "},"*":{"ha":689,"x_min":28,"x_max":654,"o":"m 264 471 q 220 467 243 464 q 175 479 197 469 q 134 504 153 489 q 104 538 115 519 q 93 580 93 556 q 106 621 93 604 q 172 686 136 660 q 110 701 142 692 q 57 733 78 710 q 38 807 28 767 q 52 849 43 829 q 72 889 61 869 q 92 914 79 903 q 119 929 104 925 q 160 928 139 933 q 199 913 181 922 q 243 881 224 897 q 231 919 236 900 q 222 958 225 939 q 221 995 219 976 q 231 1029 222 1014 q 251 1051 239 1042 q 278 1065 264 1060 q 312 1076 294 1072 q 349 1078 329 1079 q 393 1073 371 1078 q 433 1054 415 1068 q 457 1014 454 1039 q 455 978 460 996 q 444 944 450 961 q 433 905 438 925 q 421 865 428 885 q 459 880 440 872 q 497 896 478 888 q 538 911 517 906 q 581 913 560 917 q 618 893 600 908 q 640 861 632 881 q 651 820 649 842 q 651 778 654 799 q 640 740 649 757 q 589 693 624 708 q 558 686 574 688 q 528 683 543 685 q 585 611 561 653 q 597 582 593 597 q 599 551 601 567 q 583 522 594 536 q 555 496 571 507 q 521 477 539 485 q 488 468 503 469 q 440 474 464 465 q 400 499 417 482 q 388 518 396 504 q 372 549 381 532 q 358 580 364 565 q 349 601 351 594 q 326 553 338 578 q 300 506 314 529 q 284 485 293 494 q 264 471 275 475 z "},"+":{"ha":713,"x_min":32,"x_max":683,"o":"m 418 157 q 373 152 399 153 q 322 156 347 151 q 276 169 297 160 q 243 196 254 179 q 230 229 233 211 q 225 265 226 247 q 225 299 225 282 q 228 332 225 315 l 228 338 q 205 333 217 335 q 182 331 193 332 q 122 331 154 328 q 71 354 90 333 q 45 399 53 372 q 35 450 38 425 q 35 510 32 479 q 57 563 39 540 q 106 595 76 586 q 163 607 135 604 q 189 606 171 608 q 226 601 207 604 q 224 626 225 614 q 224 651 224 639 q 226 687 224 669 q 239 719 229 704 q 264 745 249 735 q 296 761 279 756 q 339 769 314 767 q 390 768 364 771 q 438 758 415 765 q 474 739 461 751 q 492 711 486 728 q 500 678 499 694 q 501 653 501 671 q 500 617 501 636 q 556 613 528 617 q 591 608 574 611 q 624 596 608 604 q 653 569 640 588 q 673 531 665 551 q 682 487 681 510 q 679 446 683 464 q 663 411 675 426 q 636 386 651 396 q 592 369 617 374 q 544 364 568 365 q 519 362 532 363 q 493 361 506 361 q 499 306 496 333 q 499 250 501 278 q 492 219 497 235 q 476 190 488 203 q 450 169 465 178 q 418 157 435 161 z "},",":{"ha":356,"x_min":28,"x_max":329,"o":"m 322 67 q 289 -18 314 22 q 235 -79 264 -58 q 183 -94 207 -100 q 156 -44 160 -89 q 142 -24 154 -35 q 113 -2 129 -12 q 82 18 97 8 q 60 35 67 28 q 29 104 31 67 q 48 174 28 142 q 103 229 68 207 q 183 253 139 251 q 249 239 221 254 q 297 197 278 224 q 322 137 315 171 q 322 67 329 103 z "},"-":{"ha":692,"x_min":32,"x_max":657,"o":"m 365 371 q 297 369 331 369 q 226 369 263 368 q 173 376 200 372 q 122 392 146 379 q 94 408 107 399 q 69 431 81 417 q 57 452 61 440 q 47 475 53 464 q 33 534 35 504 q 40 592 32 564 q 67 642 49 619 q 115 676 86 664 q 144 688 131 683 q 172 696 157 693 q 323 707 247 711 q 474 696 399 703 q 524 690 499 693 q 574 678 550 686 q 603 664 589 672 q 628 642 618 656 q 651 592 646 621 q 657 535 657 563 q 642 470 657 503 q 603 415 628 438 q 551 389 581 397 q 494 378 522 381 q 430 374 463 375 q 365 371 397 372 z "},".":{"ha":363,"x_min":28,"x_max":333,"o":"m 322 110 q 246 19 296 49 q 129 -1 196 -10 q 72 23 96 3 q 38 71 49 43 q 31 131 28 99 q 51 192 33 163 q 111 250 75 229 q 186 273 147 271 q 261 258 225 275 q 321 203 297 240 q 333 158 333 183 q 322 110 332 132 z "},"/":{"ha":696,"x_min":21,"x_max":683,"o":"m 204 -56 q 151 -62 179 -67 q 99 -44 122 -57 q 96 -43 97 -43 q 52 -19 68 -35 q 28 17 36 -3 q 21 60 21 38 q 26 106 21 83 q 60 228 42 168 q 103 347 78 289 q 161 490 133 418 q 222 633 189 563 q 269 724 246 679 q 314 815 292 769 q 366 915 340 865 q 426 1008 392 964 q 451 1040 439 1024 q 478 1068 463 1056 q 500 1081 488 1075 q 525 1086 513 1086 q 551 1083 535 1086 q 586 1074 568 1079 q 620 1061 604 1068 q 644 1050 636 1054 q 667 1028 657 1040 q 681 1000 678 1015 q 680 963 683 981 q 669 926 676 944 q 638 859 656 892 q 603 794 621 826 q 438 443 510 622 q 293 82 365 264 q 279 49 286 65 q 265 17 272 32 q 240 -24 254 -4 q 204 -56 225 -44 z "},":":{"ha":357,"x_min":42,"x_max":315,"o":"m 306 475 q 237 394 282 419 q 132 375 192 368 q 81 397 101 379 q 51 439 60 414 q 44 493 42 464 q 63 549 46 522 q 116 601 83 583 q 183 622 149 619 q 251 608 218 624 q 304 558 283 592 q 315 517 315 540 q 306 475 314 494 m 306 151 q 237 70 282 96 q 132 51 192 44 q 81 73 101 56 q 51 115 60 90 q 44 169 42 140 q 63 225 46 199 q 116 278 83 260 q 183 299 149 297 q 251 285 218 300 q 304 235 283 269 q 315 194 315 217 q 306 151 314 171 z "},";":{"ha":428,"x_min":35,"x_max":392,"o":"m 382 458 q 306 368 356 397 q 189 347 256 339 q 132 372 156 351 q 98 419 108 392 q 90 479 88 447 q 111 540 93 511 q 170 599 133 578 q 246 622 207 619 q 321 606 285 624 q 381 551 357 589 q 392 506 392 532 q 382 458 392 481 m 329 67 q 296 -18 321 22 q 242 -79 271 -58 q 190 -94 214 -100 q 163 -44 167 -89 q 149 -24 161 -35 q 120 -2 136 -12 q 89 18 104 8 q 67 35 74 28 q 36 104 38 67 q 55 174 35 142 q 110 229 75 207 q 190 253 146 251 q 256 239 228 254 q 303 197 285 224 q 329 137 322 171 q 329 67 336 103 z "},"<":{"ha":565,"x_min":36,"x_max":522,"o":"m 518 264 q 495 201 514 229 q 449 156 476 174 q 389 133 422 139 q 322 138 356 128 q 228 182 272 151 q 146 249 183 213 q 93 303 118 275 q 54 367 68 332 q 40 424 43 394 q 40 483 36 454 q 62 561 46 524 q 99 635 78 599 q 122 667 110 651 q 144 700 133 683 q 216 783 176 744 q 300 853 256 822 q 374 877 333 876 q 446 854 414 878 q 488 818 468 839 q 514 771 507 797 q 516 712 522 743 q 496 654 510 681 q 466 610 483 631 q 429 570 449 589 q 390 533 410 551 q 351 494 369 514 q 344 485 347 490 q 338 474 340 481 q 335 469 336 472 q 336 465 335 467 q 353 451 343 457 q 372 438 363 444 q 416 410 394 424 q 457 381 438 397 q 489 350 474 367 q 513 313 504 333 q 519 289 518 301 q 518 264 519 276 z "},"=":{"ha":631,"x_min":40,"x_max":592,"o":"m 514 506 q 434 493 488 497 q 322 489 381 489 q 208 492 263 489 q 128 500 154 494 q 74 531 94 506 q 47 588 53 557 q 52 651 42 619 q 92 703 63 683 q 173 728 119 721 q 287 736 226 736 q 405 732 347 736 q 497 722 463 728 q 563 687 539 717 q 589 621 586 657 q 573 551 592 585 q 514 506 554 518 m 511 194 q 432 182 485 186 q 320 178 379 178 q 207 181 261 178 q 126 189 153 183 q 72 220 93 194 q 46 277 51 246 q 51 340 40 308 q 90 392 61 372 q 172 417 118 410 q 285 425 225 425 q 403 421 346 425 q 496 411 461 417 q 561 376 538 406 q 587 310 585 346 q 571 240 589 274 q 511 194 553 207 z "},">":{"ha":565,"x_min":42,"x_max":529,"o":"m 242 138 q 175 133 208 128 q 115 156 142 139 q 70 201 89 174 q 47 264 51 229 q 51 313 43 289 q 76 350 60 333 q 108 381 92 367 q 149 410 128 397 q 192 438 171 424 q 213 451 203 444 q 229 465 222 457 q 229 469 231 467 q 228 474 228 472 q 214 494 224 483 q 176 533 196 514 q 135 570 156 551 q 99 610 115 589 q 69 654 82 631 q 49 712 56 681 q 50 771 42 743 q 78 818 58 797 q 119 854 97 839 q 192 877 151 878 q 265 853 232 876 q 349 783 310 822 q 419 700 388 744 q 444 667 432 683 q 467 635 456 651 q 503 561 488 599 q 525 483 519 524 q 526 424 529 454 q 511 367 522 394 q 472 303 496 332 q 419 249 447 275 q 338 182 382 213 q 242 138 293 151 z "},"?":{"ha":803,"x_min":29,"x_max":782,"o":"m 488 311 q 451 276 476 289 q 394 262 425 264 q 335 267 364 260 q 288 293 306 275 q 256 353 264 317 q 252 428 249 389 q 268 506 256 468 q 299 572 281 544 q 333 612 313 594 q 373 646 353 629 q 411 681 393 663 q 440 724 429 700 q 444 765 450 746 q 421 796 438 785 q 381 809 404 807 q 336 800 358 811 q 314 774 319 792 q 307 734 308 756 q 306 690 306 713 q 300 649 306 667 q 260 594 290 618 q 194 560 231 571 q 123 555 158 550 q 67 586 88 560 q 33 703 38 644 q 48 813 29 761 q 107 906 67 865 q 207 971 147 947 q 353 1006 278 999 q 497 1001 428 1013 q 625 961 567 990 q 722 888 683 932 q 771 785 760 844 q 757 656 782 726 q 685 553 736 596 q 578 479 633 510 q 544 447 557 467 q 523 405 532 428 q 506 357 514 382 q 488 311 499 332 m 481 -24 q 396 -65 440 -56 q 311 -66 351 -74 q 239 -37 271 -58 q 193 14 207 -15 q 188 77 179 43 q 236 143 196 111 q 295 174 261 164 q 365 184 329 183 q 436 175 401 185 q 497 147 471 165 q 529 109 521 132 q 534 63 538 86 q 517 16 531 39 q 481 -24 503 -7 z "},"@":{"ha":1243,"x_min":40,"x_max":1203,"o":"m 818 -106 q 625 -123 721 -126 q 442 -94 529 -119 q 281 -22 356 -69 q 153 93 207 26 q 69 247 99 160 q 44 438 40 333 q 84 632 49 539 q 178 803 119 725 q 317 940 238 881 q 487 1033 396 1000 q 676 1071 578 1067 q 874 1043 775 1075 q 1053 940 979 1010 q 1165 783 1126 871 q 1203 594 1203 694 q 1161 396 1203 493 q 1099 303 1139 343 q 1013 243 1060 263 q 917 230 965 224 q 829 278 868 236 q 704 227 771 246 q 574 222 638 208 q 448 284 499 239 q 378 388 397 329 q 372 511 358 447 q 436 628 385 575 q 488 667 454 646 q 562 704 522 688 q 640 731 601 721 q 704 739 678 740 q 760 722 740 736 q 788 688 779 708 q 800 642 797 667 q 807 592 803 617 q 819 547 811 568 q 849 513 828 525 q 881 540 871 521 q 894 583 892 560 q 892 633 896 607 q 879 679 888 658 q 817 756 860 729 q 722 791 775 783 q 610 789 668 799 q 503 756 553 779 q 416 694 454 732 q 354 610 378 656 q 310 458 317 536 q 329 315 304 381 q 410 206 354 250 q 551 158 465 163 q 628 163 576 157 q 738 174 681 168 q 844 179 794 179 q 915 167 894 179 q 976 96 964 138 q 972 13 989 54 q 915 -60 956 -28 q 818 -106 874 -93 m 603 450 q 634 426 618 426 q 663 438 650 425 q 686 471 676 450 q 698 511 696 492 q 692 544 700 531 q 665 558 685 558 q 619 547 638 557 q 594 520 601 536 q 590 486 588 504 q 603 450 592 468 z "},"A":{"ha":1088,"x_min":39,"x_max":1044,"o":"m 950 -65 q 870 -103 921 -90 q 769 -112 819 -115 q 676 -92 718 -110 q 624 -39 635 -74 q 613 35 614 -11 q 615 139 613 81 l 614 139 q 579 141 603 140 q 528 141 556 142 q 476 139 501 140 q 435 133 450 138 q 440 46 439 85 q 433 -17 440 7 q 383 -76 425 -53 q 288 -106 340 -99 q 185 -105 236 -114 q 106 -68 133 -96 q 69 4 82 -46 q 49 110 56 54 q 40 221 42 167 q 39 306 39 275 q 48 457 40 379 q 75 610 56 535 q 129 753 94 685 q 219 878 164 822 q 349 975 275 932 q 505 1040 424 1018 q 666 1055 586 1061 q 811 1004 746 1049 q 929 881 885 954 q 998 724 974 808 q 1031 549 1022 639 q 1043 376 1040 460 q 1042 274 1044 338 q 1029 143 1039 210 q 1000 19 1019 76 q 950 -65 981 -39 m 458 386 q 585 397 526 378 q 635 421 607 404 q 628 577 638 508 q 588 674 619 646 q 555 690 574 685 q 516 695 536 696 q 477 688 496 694 q 446 669 458 682 q 420 627 429 654 q 408 565 411 600 q 405 487 404 529 q 408 399 406 444 q 435 391 418 394 q 458 386 451 388 z "},"B":{"ha":1153,"x_min":51,"x_max":1138,"o":"m 1096 146 q 1013 52 1067 92 q 889 -14 958 13 q 740 -56 819 -40 q 581 -77 660 -71 q 426 -82 501 -83 q 292 -75 351 -81 q 174 -30 219 -68 q 102 67 129 8 q 65 200 75 125 q 53 356 54 275 q 56 519 51 436 q 67 676 61 601 q 74 765 68 710 q 90 876 79 819 q 116 983 100 933 q 157 1053 132 1032 q 228 1093 185 1076 q 323 1120 271 1110 q 432 1135 375 1131 q 543 1140 489 1140 q 645 1133 597 1139 q 728 1119 693 1128 q 848 1047 804 1099 q 901 931 892 996 q 886 796 911 865 q 803 669 861 726 q 947 618 875 650 q 1067 529 1018 586 q 1114 444 1097 493 q 1134 344 1131 396 q 1128 240 1138 292 q 1096 146 1118 188 m 404 711 q 467 718 436 710 q 522 743 499 726 q 555 784 544 760 q 553 839 565 808 q 531 863 547 854 q 496 872 515 871 q 458 868 476 874 q 428 851 439 863 q 414 822 421 844 q 403 774 407 799 q 399 731 399 750 q 404 711 399 711 m 433 275 q 531 274 489 265 q 597 302 572 283 q 630 344 622 321 q 625 388 638 368 q 578 419 613 408 q 489 422 544 429 q 453 405 465 419 q 436 369 442 390 q 431 324 431 349 q 433 275 432 300 z "},"C":{"ha":992,"x_min":33,"x_max":956,"o":"m 854 47 q 722 -23 800 1 q 561 -50 644 -47 q 398 -35 478 -53 q 260 24 318 -17 q 133 162 183 76 q 58 347 82 247 q 35 550 33 446 q 64 743 36 654 q 168 933 97 853 q 332 1057 239 1013 q 533 1107 425 1101 q 749 1072 642 1113 q 810 1047 778 1061 q 869 1013 842 1032 q 917 969 896 993 q 946 914 938 944 q 947 828 956 874 q 916 741 939 782 q 859 669 893 700 q 785 628 825 638 q 712 633 747 619 q 640 665 676 646 q 567 703 604 685 q 492 721 531 721 q 441 701 463 721 q 407 651 419 682 q 392 585 394 621 q 396 515 389 549 q 420 453 403 481 q 465 413 438 425 q 528 412 483 404 q 622 431 572 419 q 715 454 671 443 q 781 464 760 465 q 866 438 831 461 q 922 378 901 414 q 949 299 943 343 q 947 209 956 254 q 915 122 939 164 q 854 47 892 79 z "},"D":{"ha":1046,"x_min":51,"x_max":1014,"o":"m 503 -67 q 405 -76 461 -74 q 294 -72 349 -79 q 193 -46 239 -65 q 125 11 147 -26 q 89 113 103 49 q 67 253 75 176 q 55 415 58 331 q 53 578 51 500 q 61 724 56 657 q 76 836 67 792 q 132 975 93 917 q 226 1071 171 1033 q 347 1126 281 1108 q 487 1141 414 1143 q 634 1118 560 1139 q 778 1060 708 1097 q 903 938 853 1019 q 981 756 954 856 q 1010 551 1007 656 q 993 360 1014 446 q 924 206 974 278 q 806 76 874 133 q 660 -18 739 19 q 503 -67 582 -56 m 426 388 q 488 383 456 376 q 547 406 519 389 q 592 451 574 424 q 614 510 611 478 q 582 669 625 619 q 438 717 539 719 q 429 651 432 697 q 426 552 426 604 q 426 453 425 500 q 426 388 426 407 z "},"E":{"ha":863,"x_min":54,"x_max":849,"o":"m 732 107 q 647 66 696 86 q 544 29 599 46 q 432 2 489 13 q 322 -10 375 -8 q 221 -1 268 -11 q 140 33 174 8 q 85 121 103 60 q 60 253 67 182 q 56 394 54 324 q 58 511 57 465 q 60 586 58 539 q 66 689 63 633 q 75 804 69 744 q 89 918 81 864 q 110 1015 97 972 q 139 1082 122 1058 q 208 1127 160 1111 q 313 1150 257 1143 q 426 1157 369 1157 q 518 1157 482 1157 q 596 1153 549 1156 q 691 1141 643 1150 q 780 1117 739 1132 q 838 1075 821 1101 q 848 1035 847 1060 q 844 983 849 1010 q 831 930 839 956 q 814 888 822 904 q 750 833 793 846 q 655 822 707 819 q 548 838 603 825 q 447 863 493 851 q 391 870 415 871 q 361 838 367 869 q 356 820 360 831 q 351 799 353 810 q 350 781 349 789 q 358 771 351 774 q 417 762 375 764 q 505 758 458 760 q 592 751 551 756 q 646 736 632 747 q 669 686 664 722 q 667 610 674 650 q 645 538 661 571 q 607 496 629 504 q 556 490 590 489 q 483 494 521 490 q 409 504 444 499 q 356 513 374 510 q 351 466 354 493 q 347 412 347 439 q 353 363 347 385 q 376 335 358 342 q 412 335 388 331 q 467 350 436 340 q 531 372 497 360 q 596 394 565 385 q 651 410 626 404 q 688 415 675 417 q 767 367 738 407 q 804 278 797 328 q 794 180 811 228 q 732 107 776 132 z "},"F":{"ha":878,"x_min":54,"x_max":868,"o":"m 397 -43 q 333 -55 371 -50 q 257 -60 296 -60 q 185 -51 218 -60 q 135 -22 151 -43 q 107 35 118 -3 q 89 122 96 74 q 77 222 82 169 q 69 325 72 275 q 65 417 67 375 q 63 483 64 458 q 56 625 58 551 q 58 770 54 699 q 74 906 61 842 q 113 1022 86 971 q 185 1104 140 1072 q 297 1142 229 1136 q 422 1142 346 1146 q 576 1124 497 1138 q 722 1087 654 1111 q 824 1026 790 1063 q 860 951 853 994 q 857 868 868 908 q 819 797 846 828 q 751 758 792 765 q 678 760 715 751 q 606 779 642 768 q 533 800 569 790 q 460 807 496 810 q 438 792 449 806 q 424 761 428 778 q 426 730 421 744 q 449 714 431 715 q 519 713 483 711 q 591 715 556 715 q 661 711 626 715 q 728 693 696 707 q 774 649 756 681 q 799 578 792 617 q 800 502 806 540 q 774 439 794 464 q 717 412 757 418 q 631 406 676 406 q 540 408 585 406 q 469 410 496 411 q 433 388 439 408 q 432 339 428 368 q 459 219 442 281 q 481 103 476 157 q 470 9 486 49 q 397 -43 454 -31 z "},"G":{"ha":1067,"x_min":25,"x_max":1056,"o":"m 929 86 q 925 22 936 50 q 892 -23 914 -6 q 840 -47 869 -40 q 782 -49 811 -54 q 727 -24 753 -43 q 688 29 701 -6 q 542 -29 617 -15 q 397 -33 467 -43 q 267 6 326 -24 q 165 81 207 36 q 73 228 107 143 q 32 410 39 314 q 47 606 25 506 q 122 800 68 707 q 264 964 176 896 q 450 1063 351 1032 q 648 1084 549 1094 q 826 1015 747 1074 q 908 931 874 981 q 951 831 942 881 q 938 739 960 781 q 853 679 917 697 q 799 667 829 672 q 738 660 768 661 q 679 665 707 658 q 635 688 651 671 q 611 734 615 707 q 599 786 607 761 q 575 813 592 807 q 538 813 558 818 q 496 793 517 807 q 460 761 475 779 q 399 656 419 714 q 371 538 378 597 q 369 451 365 496 q 390 367 374 406 q 435 302 406 329 q 508 269 464 275 q 564 267 535 265 q 615 276 593 268 q 649 301 638 285 q 654 342 661 317 q 626 356 651 353 q 572 362 601 360 q 515 366 542 364 q 481 378 489 368 q 462 437 464 399 q 468 513 460 475 q 494 583 476 551 q 535 624 511 615 q 603 631 557 632 q 701 623 650 629 q 800 609 753 617 q 871 596 847 601 q 997 533 951 578 q 1049 435 1043 488 q 1020 337 1056 383 q 904 269 985 290 q 901 232 899 257 q 908 178 903 207 q 920 124 914 150 q 929 86 926 99 z "},"H":{"ha":1097,"x_min":54,"x_max":1071,"o":"m 897 -32 q 784 -53 846 -56 q 674 -22 722 -50 q 640 7 654 -11 q 618 46 625 25 q 594 185 594 113 q 596 328 593 257 q 596 363 596 346 q 597 399 596 381 q 522 388 560 392 q 446 378 483 383 q 444 376 446 378 q 453 350 451 364 q 465 231 463 292 q 465 163 468 197 q 446 97 461 128 q 399 47 429 67 q 335 19 368 26 q 244 17 290 11 q 160 46 199 22 q 122 82 138 60 q 97 129 106 104 q 78 209 83 168 q 69 290 72 250 q 66 376 67 333 q 64 463 65 419 q 56 614 57 539 q 57 765 54 689 q 67 910 60 838 q 106 1047 75 982 q 129 1085 115 1067 q 161 1115 143 1103 q 263 1151 206 1144 q 371 1144 319 1158 q 449 1103 411 1133 q 497 1032 486 1074 q 503 972 504 1003 q 497 910 501 940 q 481 816 490 863 q 468 722 471 769 l 468 715 q 475 717 471 717 q 537 730 494 722 q 615 740 579 738 q 626 854 621 797 q 647 965 632 911 q 673 1035 658 1001 q 713 1094 688 1068 q 769 1133 736 1118 q 838 1150 803 1147 q 860 1153 849 1151 q 883 1151 872 1154 q 900 1148 889 1151 q 924 1140 911 1144 q 948 1132 936 1136 q 964 1125 960 1128 q 992 1108 978 1117 q 1017 1086 1006 1099 q 1044 1051 1032 1069 q 1063 1010 1057 1032 q 1066 943 1071 978 q 1054 876 1061 908 q 1023 729 1039 801 q 996 582 1007 657 q 984 469 988 525 q 983 356 981 414 q 990 264 985 310 q 1003 174 996 218 q 1008 114 1007 144 q 996 57 1010 83 q 954 5 981 28 q 897 -32 928 -18 z "},"I":{"ha":560,"x_min":50,"x_max":528,"o":"m 438 31 q 401 0 425 13 q 349 -20 378 -12 q 292 -30 321 -28 q 240 -28 263 -32 q 206 -21 224 -25 q 174 -10 189 -17 q 136 17 151 -1 q 110 54 121 35 q 90 103 97 78 q 78 156 82 129 q 66 258 69 207 q 63 361 63 308 q 63 380 63 371 q 61 399 63 389 q 65 757 50 578 q 81 901 71 829 q 118 1039 90 972 q 161 1094 131 1072 q 215 1119 185 1113 q 274 1126 244 1126 q 336 1123 306 1128 q 396 1108 367 1118 q 432 1094 414 1101 q 465 1075 450 1086 q 510 1023 493 1056 q 528 958 528 990 q 519 874 528 915 q 500 792 510 832 q 478 684 489 738 q 461 576 468 631 q 453 449 454 513 q 456 321 451 385 q 463 213 458 267 q 460 107 467 160 q 453 67 457 88 q 438 31 449 47 z "},"J":{"ha":947,"x_min":17,"x_max":900,"o":"m 543 -85 q 407 -78 475 -90 q 275 -43 339 -67 q 99 67 174 -7 q 21 215 33 128 q 22 281 17 246 q 40 350 26 317 q 76 410 54 383 q 125 447 97 436 q 160 454 142 454 q 196 450 179 454 q 304 410 253 439 q 351 379 328 394 q 400 353 374 364 q 422 346 411 349 q 443 346 432 343 q 465 358 454 350 q 487 392 479 372 q 499 431 494 411 q 510 513 510 471 q 510 597 511 554 q 508 653 510 625 q 503 710 506 682 q 478 700 492 704 q 453 693 465 696 q 357 674 406 681 q 261 675 308 667 q 208 694 233 681 q 167 731 183 708 q 136 790 147 757 q 122 856 125 822 q 126 930 119 892 q 154 1000 133 968 q 178 1029 165 1015 q 208 1051 192 1043 q 242 1065 224 1061 q 278 1072 260 1068 q 368 1085 322 1081 q 458 1097 414 1090 q 540 1113 500 1104 q 619 1133 579 1122 q 675 1145 647 1142 q 731 1142 703 1149 q 767 1124 750 1136 q 797 1096 785 1111 q 847 988 833 1049 q 867 869 860 928 q 881 753 874 811 q 893 638 889 696 q 897 449 900 543 q 875 263 894 354 q 848 165 864 213 q 806 72 832 117 q 759 10 786 39 q 699 -40 732 -19 q 624 -72 664 -62 q 543 -85 583 -82 z "},"K":{"ha":1150,"x_min":50,"x_max":1132,"o":"m 481 -54 q 387 -99 439 -89 q 285 -96 335 -108 q 194 -51 235 -83 q 139 31 154 -18 q 107 160 122 81 q 79 334 92 239 q 58 531 67 429 q 50 728 50 633 q 58 901 50 822 q 86 1028 67 979 q 147 1100 103 1071 q 244 1142 190 1129 q 351 1148 297 1154 q 442 1115 404 1142 q 474 1065 464 1099 q 485 989 483 1032 q 484 898 488 946 q 476 803 481 850 q 469 716 472 757 q 469 647 467 675 q 569 718 522 678 q 656 806 615 758 q 732 903 696 853 q 801 1006 768 954 q 878 1066 832 1053 q 969 1063 924 1079 q 1049 1008 1014 1047 q 1094 913 1085 968 q 1079 811 1103 865 q 1016 706 1056 757 q 929 611 976 656 q 842 540 882 567 q 874 503 851 528 q 925 447 896 478 q 985 383 954 417 q 1044 319 1017 350 q 1092 261 1072 288 q 1119 221 1113 235 q 1123 151 1132 189 q 1091 81 1114 114 q 1035 20 1068 47 q 969 -18 1003 -7 q 846 -8 904 -40 q 738 85 788 25 q 647 219 688 144 q 574 354 606 293 q 561 340 574 349 q 533 324 549 332 q 506 307 518 315 q 493 293 493 299 q 507 209 499 260 q 518 108 515 158 q 514 13 521 57 q 481 -54 507 -32 z "},"L":{"ha":758,"x_min":40,"x_max":749,"o":"m 706 38 q 627 -26 675 -1 q 522 -59 579 -50 q 403 -64 465 -68 q 286 -42 342 -60 q 185 6 231 -24 q 114 79 139 36 q 65 206 82 132 q 44 363 49 279 q 47 537 40 447 q 72 710 54 626 q 115 867 89 794 q 172 993 140 940 q 243 1066 201 1040 q 328 1098 285 1092 q 415 1092 372 1104 q 489 1051 457 1079 q 538 981 521 1024 q 549 882 556 938 q 520 747 540 814 q 481 613 500 679 q 447 478 461 546 q 439 342 433 410 q 463 311 440 318 q 518 304 486 304 q 583 306 550 304 q 640 301 617 308 q 707 259 682 289 q 740 192 732 229 q 740 113 749 154 q 706 38 732 72 z "},"M":{"ha":1282,"x_min":38,"x_max":1251,"o":"m 1214 35 q 1163 -22 1193 0 q 1097 -53 1132 -44 q 1023 -56 1061 -61 q 951 -29 985 -50 q 917 2 932 -17 q 892 43 901 21 q 875 108 879 75 q 868 175 871 142 q 863 314 864 246 q 858 453 861 382 q 856 517 857 485 q 847 582 854 550 q 842 574 844 578 q 838 565 840 569 q 833 544 835 554 q 829 529 831 535 q 811 461 819 494 q 789 396 803 428 q 756 333 775 363 q 708 279 736 303 q 635 246 675 250 q 568 257 599 242 q 519 295 540 272 q 483 346 499 318 q 444 445 457 393 q 417 550 432 497 q 412 413 414 481 q 407 275 410 344 q 399 164 404 219 q 379 54 393 108 q 369 26 375 39 q 354 1 364 13 q 328 -19 343 -11 q 297 -35 313 -28 q 242 -46 271 -44 q 186 -43 214 -47 q 91 9 132 -33 q 43 107 50 51 q 39 144 40 126 q 38 182 38 163 q 42 271 39 226 q 51 360 46 315 q 82 582 63 472 q 122 803 101 692 q 126 822 125 813 q 133 840 128 832 q 135 843 133 842 q 188 968 154 913 q 272 1039 221 1024 q 357 1038 313 1050 q 433 999 401 1026 q 508 908 478 960 q 565 804 538 857 q 595 744 581 774 q 626 686 610 715 q 671 796 647 742 q 721 903 694 850 q 760 971 739 938 q 814 1026 782 1004 q 897 1053 850 1051 q 983 1032 943 1056 q 1047 976 1021 1013 q 1092 903 1072 940 q 1135 796 1117 850 q 1168 686 1153 742 q 1208 526 1192 607 q 1236 361 1225 444 q 1247 263 1243 313 q 1247 165 1251 214 q 1238 98 1244 132 q 1214 35 1231 64 z "},"N":{"ha":1229,"x_min":42,"x_max":1175,"o":"m 313 -21 q 252 -27 285 -28 q 188 -18 219 -26 q 129 6 156 -10 q 90 46 103 22 q 53 146 64 93 q 42 254 43 199 q 48 366 42 310 q 63 475 54 422 q 75 583 69 524 q 89 703 81 642 q 110 824 97 765 q 144 931 122 883 q 197 1011 165 979 q 278 1050 229 1043 q 366 1038 322 1057 q 453 985 410 1019 q 536 903 496 950 q 613 808 576 857 q 681 710 649 758 q 738 626 713 663 q 774 570 754 601 q 811 518 794 539 q 839 494 828 497 q 851 524 850 492 q 848 635 853 575 q 836 756 843 694 q 820 878 829 818 q 804 988 811 938 q 817 1067 799 1033 q 870 1120 836 1100 q 947 1146 904 1140 q 1031 1141 990 1151 q 1105 1103 1072 1131 q 1151 1032 1138 1076 q 1167 942 1161 1001 q 1174 807 1172 882 q 1174 649 1175 732 q 1170 490 1174 565 q 1162 354 1167 415 q 1151 261 1157 293 q 1093 113 1136 178 q 990 15 1050 49 q 862 -15 931 -19 q 728 43 793 -11 q 634 158 669 92 q 572 298 599 225 q 519 445 544 371 q 454 585 493 519 q 444 481 446 540 q 442 358 443 421 q 437 231 440 294 q 421 115 433 168 q 383 26 408 63 q 313 -21 357 -10 z "},"O":{"ha":1075,"x_min":29,"x_max":1039,"o":"m 1006 289 q 878 88 961 168 q 694 -30 794 8 q 486 -65 593 -68 q 287 -17 379 -62 q 128 114 194 28 q 42 328 61 200 q 36 498 29 410 q 68 670 43 586 q 136 829 93 754 q 240 961 179 904 q 394 1047 303 1019 q 583 1073 486 1075 q 769 1040 679 1071 q 917 946 858 1008 q 971 863 947 913 q 1010 754 994 813 q 1032 632 1025 696 q 1038 506 1039 568 q 1029 388 1038 444 q 1006 289 1021 332 m 439 376 q 521 351 479 346 q 597 384 563 357 q 656 453 632 411 q 687 540 681 496 q 676 623 693 585 q 614 681 660 661 q 535 688 574 697 q 466 654 497 679 q 414 592 435 629 q 387 516 393 556 q 392 440 381 476 q 439 376 404 403 z "},"P":{"ha":983,"x_min":58,"x_max":978,"o":"m 447 -10 q 370 -67 421 -46 q 265 -92 319 -89 q 163 -80 211 -96 q 93 -25 115 -64 q 73 45 81 -3 q 62 147 65 93 q 58 251 58 201 q 60 326 58 301 q 62 415 61 358 q 64 538 63 471 q 69 677 65 604 q 79 815 72 750 q 98 933 86 881 q 128 1011 110 985 q 173 1047 140 1031 q 243 1076 206 1064 q 317 1097 281 1089 q 378 1110 354 1106 q 465 1123 421 1117 q 554 1131 510 1129 q 642 1130 599 1133 q 728 1113 686 1126 q 876 1020 818 1083 q 956 877 935 957 q 962 710 978 797 q 886 550 946 624 q 796 465 847 501 q 686 403 744 429 q 565 360 628 376 q 442 338 503 344 q 441 265 436 315 q 452 160 446 215 q 460 57 458 106 q 447 -10 461 8 m 447 682 q 526 690 488 678 q 586 722 564 703 q 608 762 608 740 q 569 797 607 783 q 535 806 554 803 q 498 807 517 808 q 463 800 479 806 q 436 782 446 794 q 418 750 425 767 q 411 719 411 733 q 419 694 411 704 q 447 682 428 683 z "},"Q":{"ha":1099,"x_min":29,"x_max":1082,"o":"m 942 -204 q 877 -207 910 -211 q 814 -193 844 -203 q 668 -122 732 -171 q 606 -56 632 -93 q 419 -59 513 -74 q 247 3 325 -44 q 114 133 169 51 q 42 328 58 214 q 36 498 29 410 q 68 670 43 586 q 136 829 93 754 q 240 961 179 904 q 394 1047 303 1019 q 583 1073 486 1075 q 769 1040 679 1071 q 917 946 858 1008 q 971 863 947 913 q 1010 754 994 813 q 1032 632 1025 696 q 1038 506 1039 568 q 1029 388 1038 444 q 1006 289 1021 332 q 921 136 974 201 q 801 26 868 71 q 844 35 824 26 q 910 60 876 47 q 978 71 943 74 q 1042 49 1018 68 q 1074 3 1065 31 q 1076 -58 1082 -25 q 1051 -121 1069 -92 q 1006 -173 1033 -150 q 942 -204 978 -196 m 439 376 q 458 365 449 369 q 476 357 467 360 l 476 365 q 481 396 478 381 q 494 422 485 411 q 543 450 511 442 q 599 446 575 458 q 632 419 615 439 q 673 489 657 450 q 689 565 689 528 q 672 633 689 601 q 614 681 654 664 q 535 688 574 697 q 466 654 497 679 q 414 592 435 629 q 387 516 393 556 q 392 440 381 476 q 439 376 404 403 z "},"R":{"ha":1039,"x_min":58,"x_max":1017,"o":"m 447 -10 q 370 -67 421 -46 q 265 -92 319 -89 q 163 -80 211 -96 q 93 -25 115 -64 q 73 45 81 -3 q 62 147 65 93 q 58 251 58 201 q 60 326 58 301 q 62 415 61 358 q 64 538 63 471 q 69 677 65 604 q 79 815 72 750 q 98 933 86 881 q 128 1011 110 985 q 173 1047 140 1031 q 243 1076 206 1064 q 317 1097 281 1089 q 378 1110 354 1106 q 465 1123 421 1117 q 554 1131 510 1129 q 642 1130 599 1133 q 728 1113 686 1126 q 876 1020 818 1083 q 956 877 935 957 q 962 710 978 797 q 886 550 946 624 q 833 493 860 518 q 785 447 806 468 q 753 408 764 426 q 746 372 742 390 q 774 332 750 353 q 847 285 797 311 q 878 272 863 278 q 910 257 894 265 q 953 228 932 244 q 990 192 975 213 q 1015 117 1014 161 q 1001 38 1017 74 q 952 -25 985 0 q 879 -53 919 -50 q 736 -24 799 -60 q 625 70 674 13 q 540 199 576 128 q 476 335 504 269 q 474 342 474 340 q 458 340 465 340 q 442 338 450 339 q 441 265 436 315 q 452 160 446 215 q 460 57 458 106 q 447 -10 461 8 m 447 682 q 526 690 488 678 q 586 722 564 703 q 608 762 608 740 q 569 797 607 783 q 535 806 554 803 q 498 807 517 808 q 463 800 479 806 q 436 782 446 794 q 418 750 425 767 q 411 719 411 733 q 419 694 411 704 q 447 682 428 683 z "},"S":{"ha":869,"x_min":21,"x_max":838,"o":"m 754 507 q 824 378 811 447 q 816 244 838 310 q 744 119 794 178 q 624 17 693 60 q 472 -46 554 -25 q 304 -56 389 -67 q 189 -11 238 -47 q 119 72 140 25 q 109 167 97 118 q 178 251 121 217 q 232 274 200 265 q 297 290 264 283 q 360 302 329 296 q 413 318 392 308 q 444 342 435 328 q 442 381 453 357 q 399 412 433 400 q 325 431 365 424 q 245 444 285 439 q 185 458 206 450 q 58 554 96 493 q 24 686 21 615 q 67 830 28 757 q 170 963 106 903 q 319 1059 235 1022 q 500 1096 404 1096 q 603 1088 549 1096 q 706 1059 658 1079 q 788 1007 754 1039 q 828 929 821 975 q 827 862 832 897 q 807 797 822 826 q 767 744 792 767 q 710 715 743 722 q 653 717 686 710 q 584 735 619 725 q 515 755 549 746 q 455 763 481 764 q 415 744 429 761 q 403 688 400 728 q 423 659 404 671 q 472 637 442 647 q 540 615 503 626 q 617 589 578 604 q 692 554 656 574 q 754 507 728 535 z "},"T":{"ha":999,"x_min":11,"x_max":986,"o":"m 683 -17 q 614 -42 651 -35 q 539 -51 576 -50 q 483 -47 511 -51 q 432 -29 456 -43 q 382 18 399 -14 q 369 53 372 35 q 364 90 365 71 q 363 142 363 117 q 365 196 364 168 q 369 458 371 328 q 363 721 368 589 q 360 763 361 742 q 356 806 358 785 q 351 803 353 804 q 347 800 350 801 q 276 772 313 783 q 201 750 239 760 q 161 744 182 746 q 121 749 140 743 q 85 767 101 754 q 58 797 69 781 q 38 841 46 818 q 24 888 29 864 q 14 939 17 913 q 18 990 11 965 q 51 1056 25 1029 q 87 1081 67 1071 q 128 1097 107 1090 q 251 1131 189 1119 q 378 1150 314 1143 q 507 1161 443 1158 q 636 1164 571 1164 q 742 1163 689 1164 q 847 1150 794 1161 q 878 1142 863 1147 q 907 1131 893 1138 q 961 1078 943 1110 q 980 1024 974 1054 q 984 964 986 994 q 972 907 982 933 q 940 863 961 881 q 876 835 915 842 q 821 828 849 829 q 765 828 793 828 q 742 830 754 829 q 718 829 729 831 q 704 828 710 829 q 706 812 706 819 q 707 799 706 804 q 717 706 711 751 q 731 614 724 660 q 747 461 739 538 q 761 308 754 385 q 767 234 764 271 q 768 160 769 197 q 764 99 768 129 q 744 43 760 69 q 683 -17 724 6 z "},"U":{"ha":1001,"x_min":44,"x_max":964,"o":"m 610 -42 q 501 -50 557 -50 q 392 -40 446 -50 q 288 -8 338 -29 q 199 47 238 13 q 130 126 158 81 q 83 224 101 172 q 56 332 65 276 q 46 440 47 388 q 47 594 44 514 q 60 749 50 674 q 91 890 71 825 q 145 999 111 954 q 230 1061 179 1043 q 353 1060 281 1079 q 404 1031 382 1051 q 440 981 426 1010 q 458 921 453 953 q 458 858 463 889 q 448 799 456 836 q 431 718 440 763 q 412 626 421 674 q 398 536 403 579 q 394 458 393 493 q 406 403 394 422 q 451 358 422 369 q 508 351 479 346 q 562 378 538 356 q 593 436 586 400 q 596 567 606 500 q 574 699 586 633 q 556 831 561 765 q 571 957 550 896 q 610 1013 581 988 q 677 1051 640 1038 q 751 1064 714 1064 q 815 1046 789 1064 q 853 1000 833 1032 q 889 930 872 968 q 918 855 906 892 q 935 796 931 818 q 957 616 950 708 q 957 435 964 524 q 928 267 950 347 q 864 124 906 188 q 760 16 822 60 q 610 -42 697 -28 z "},"V":{"ha":1075,"x_min":18,"x_max":1058,"o":"m 932 371 q 835 193 893 281 q 708 47 778 106 q 557 -29 638 -11 q 392 1 476 -47 q 328 46 357 21 q 272 102 299 71 q 222 174 246 133 q 174 265 199 214 q 108 415 140 336 q 55 573 76 494 q 26 726 33 651 q 33 861 18 800 q 91 965 49 922 q 210 1026 133 1008 q 269 1031 239 1032 q 326 1021 300 1031 q 371 992 351 1011 q 399 944 390 974 q 411 866 406 914 q 422 763 417 818 q 433 648 426 707 q 451 537 439 589 q 479 445 463 485 q 522 389 496 406 q 574 383 554 365 q 608 444 594 400 q 631 552 622 489 q 649 684 640 615 q 667 818 657 753 q 694 932 678 883 q 737 997 707 971 q 803 1035 767 1022 q 881 1047 840 1047 q 956 1033 921 1046 q 1017 992 992 1019 q 1049 925 1042 965 q 1051 792 1058 865 q 1024 644 1043 719 q 981 497 1006 568 q 932 371 956 426 z "},"W":{"ha":1374,"x_min":42,"x_max":1332,"o":"m 1232 78 q 1145 -14 1196 19 q 1039 -56 1094 -47 q 925 -53 983 -65 q 815 -8 867 -40 q 720 74 763 24 q 654 189 678 124 q 599 71 632 128 q 517 -25 567 14 q 442 -56 483 -50 q 357 -53 400 -62 q 273 -24 314 -44 q 201 25 232 -3 q 78 219 114 106 q 42 460 43 333 q 66 717 42 588 q 122 958 90 846 q 163 1030 135 1001 q 226 1071 190 1058 q 299 1081 261 1083 q 370 1063 338 1079 q 425 1015 403 1046 q 453 939 447 983 q 451 880 456 910 q 440 821 447 850 q 395 629 417 725 q 378 436 374 533 q 380 397 378 417 q 387 359 382 376 q 402 331 392 342 q 432 324 413 321 q 487 360 468 326 q 514 447 506 394 q 525 561 522 499 q 531 684 528 624 q 543 797 535 744 q 572 878 551 849 q 617 918 590 904 q 674 933 644 932 q 732 925 703 935 q 785 893 761 915 q 808 846 801 878 q 818 776 815 814 q 821 703 821 739 q 821 646 821 667 q 823 572 821 610 q 831 497 825 533 q 851 426 838 460 q 890 368 865 393 q 946 344 914 344 q 992 372 978 343 q 1001 424 1001 392 q 997 497 1001 457 q 982 581 992 538 q 963 665 972 625 q 946 740 954 706 q 935 796 938 775 q 926 874 928 835 q 932 951 924 914 q 973 1026 942 997 q 1044 1066 1004 1056 q 1127 1068 1083 1076 q 1208 1031 1171 1060 q 1251 981 1235 1010 q 1278 919 1268 953 q 1294 851 1289 886 q 1304 783 1300 817 q 1324 603 1317 696 q 1326 418 1332 510 q 1299 240 1321 326 q 1232 78 1278 153 z "},"X":{"ha":1088,"x_min":21,"x_max":1065,"o":"m 358 -1 q 305 -37 335 -24 q 243 -49 275 -50 q 172 -35 207 -49 q 106 -1 136 -22 q 49 61 72 22 q 22 140 25 100 q 26 184 21 163 q 39 225 31 206 q 74 284 53 257 q 117 338 94 311 q 162 390 140 364 q 206 443 183 417 q 242 486 224 465 q 278 529 260 507 q 287 543 282 536 q 294 557 292 550 q 296 565 299 564 q 276 583 286 575 q 254 600 265 592 q 192 656 222 628 q 133 717 161 685 q 81 808 97 756 q 75 925 64 864 q 92 981 81 953 q 124 1029 104 1008 q 164 1062 142 1049 q 210 1086 186 1075 q 255 1101 231 1096 q 303 1103 279 1106 q 362 1077 335 1099 q 410 1031 389 1056 q 472 950 442 990 q 529 867 501 910 q 539 853 535 860 q 547 840 543 847 q 583 900 564 871 q 624 957 603 929 q 660 1005 642 981 q 700 1050 678 1029 q 753 1085 724 1071 q 813 1108 782 1100 q 885 1115 847 1118 q 954 1093 922 1111 q 1000 1065 978 1081 q 1039 1026 1022 1049 q 1060 983 1054 1007 q 1064 935 1065 958 q 1058 894 1064 914 q 1042 854 1051 874 q 992 777 1022 813 q 926 710 961 742 q 846 641 888 674 q 763 575 804 608 q 767 568 765 572 q 772 561 769 564 q 860 452 814 504 q 949 344 906 400 q 990 290 969 317 q 1025 232 1010 263 q 1044 187 1036 211 q 1053 139 1051 163 q 1035 68 1053 101 q 985 11 1015 36 q 918 -28 954 -14 q 801 -28 861 -47 q 731 12 763 -17 q 674 72 700 40 q 610 162 639 115 q 549 253 582 208 q 547 250 549 253 q 453 111 501 176 q 408 52 431 81 q 358 -1 386 24 z "},"Y":{"ha":944,"x_min":10,"x_max":938,"o":"m 615 -33 q 556 -71 592 -58 q 479 -85 519 -83 q 399 -78 439 -86 q 329 -53 360 -69 q 276 9 289 -32 q 265 99 263 50 q 281 201 268 149 q 308 296 294 253 q 238 304 275 293 q 181 343 200 315 q 125 449 147 393 q 88 565 103 506 q 59 685 72 624 q 31 804 46 746 q 16 869 22 836 q 19 935 10 903 q 72 1002 32 974 q 163 1043 113 1031 q 261 1050 213 1056 q 338 1014 310 1044 q 355 970 347 1003 q 368 895 363 938 q 378 804 374 853 q 388 713 383 756 q 399 636 393 669 q 414 590 406 603 q 433 665 422 619 q 458 763 444 710 q 489 869 472 815 q 525 971 506 924 q 567 1053 544 1018 q 618 1104 590 1089 q 694 1125 653 1124 q 777 1113 736 1126 q 853 1076 818 1100 q 913 1018 889 1051 q 929 930 938 983 q 897 817 921 876 q 844 702 874 758 q 799 607 815 646 q 679 175 711 397 q 662 64 672 121 q 615 -33 651 7 z "},"Z":{"ha":865,"x_min":24,"x_max":843,"o":"m 694 -56 q 551 -81 633 -76 q 385 -72 468 -85 q 229 -30 301 -60 q 115 50 157 0 q 64 191 63 114 q 100 347 65 268 q 192 500 135 425 q 307 633 249 575 q 326 651 308 635 q 363 687 343 668 q 399 721 383 706 q 413 736 414 736 q 355 734 383 738 q 298 726 326 731 q 241 719 269 722 q 185 719 213 717 q 103 746 138 724 q 50 801 69 768 q 27 874 31 835 q 35 951 24 913 q 74 1021 47 989 q 146 1072 101 1053 q 208 1089 168 1082 q 298 1101 249 1096 q 401 1108 347 1106 q 505 1110 456 1110 q 596 1109 554 1111 q 663 1104 638 1107 q 761 1056 725 1094 q 808 963 797 1017 q 806 849 818 910 q 761 732 794 788 q 688 641 733 686 q 593 550 642 596 q 502 457 544 504 q 442 360 460 410 q 445 315 432 333 q 486 283 458 296 q 551 263 514 269 q 627 252 589 256 q 699 249 665 249 q 754 253 733 250 q 802 240 782 257 q 833 194 822 224 q 841 128 843 165 q 823 56 839 92 q 776 -9 807 21 q 694 -56 744 -39 z "},"[":{"ha":653,"x_min":63,"x_max":640,"o":"m 438 -125 q 354 -128 396 -128 q 271 -126 313 -129 q 192 -115 232 -125 q 124 -82 151 -106 q 97 -44 106 -67 q 83 3 88 -21 q 71 96 75 49 q 65 223 68 160 q 64 350 63 286 q 72 578 67 464 q 82 806 76 692 q 88 947 85 876 q 99 1089 90 1018 q 111 1163 103 1125 q 147 1226 119 1201 q 199 1258 169 1246 q 260 1274 228 1271 q 363 1280 311 1279 q 467 1278 415 1281 q 523 1275 494 1276 q 575 1263 551 1274 q 599 1251 588 1257 q 618 1233 611 1244 q 631 1209 626 1222 q 638 1182 635 1196 q 639 1133 640 1157 q 631 1085 638 1108 q 616 1048 626 1065 q 588 1019 606 1031 q 531 1006 563 1004 q 469 1010 499 1007 q 439 1008 451 1013 q 417 987 425 1006 q 407 956 410 968 q 400 878 400 917 q 397 800 400 839 q 391 608 393 704 q 388 415 389 511 q 388 298 388 357 q 406 182 389 239 q 410 170 408 176 q 419 164 413 164 q 463 168 442 167 q 507 167 485 169 q 540 158 524 164 q 569 142 557 153 q 595 110 586 129 q 608 71 604 90 q 612 1 615 38 q 589 -62 608 -35 q 529 -107 568 -94 q 484 -119 507 -115 q 438 -125 461 -122 z "},"\\":{"ha":668,"x_min":-15,"x_max":647,"o":"m 569 -44 q 517 -62 546 -57 q 464 -56 488 -67 q 428 -24 442 -44 q 403 17 414 -4 q 388 49 394 32 q 374 82 381 65 q 230 443 303 264 q 65 794 157 622 q 29 859 47 826 q -1 926 11 892 q -12 963 -8 944 q -12 1000 -15 981 q 1 1028 -10 1015 q 24 1050 11 1040 q 48 1061 32 1054 q 82 1074 64 1068 q 117 1083 100 1079 q 143 1086 133 1086 q 167 1081 156 1086 q 190 1068 179 1075 q 217 1040 206 1056 q 240 1008 229 1024 q 301 915 275 964 q 353 815 328 865 q 399 724 376 769 q 444 633 422 679 q 507 490 479 563 q 565 347 535 418 q 608 228 590 289 q 642 106 626 168 q 647 60 647 83 q 640 17 647 38 q 615 -19 632 -3 q 571 -43 599 -35 q 569 -44 571 -43 z "},"]":{"ha":639,"x_min":14,"x_max":572,"o":"m 400 -121 q 296 -129 347 -128 q 192 -129 244 -131 q 136 -128 164 -129 q 83 -117 108 -128 q 59 -106 71 -112 q 40 -89 47 -100 q 26 -65 31 -78 q 19 -37 22 -51 q 17 11 17 -14 q 22 60 17 36 q 38 97 28 79 q 64 125 47 114 q 121 140 89 140 q 183 138 153 140 q 199 138 190 138 q 214 140 207 138 q 234 163 226 144 q 244 193 242 181 q 250 271 251 232 q 249 349 249 310 q 252 542 251 446 q 250 735 253 638 q 247 851 249 793 q 226 967 244 910 q 222 980 224 974 q 213 985 219 986 q 169 980 190 982 q 125 981 147 978 q 92 988 108 983 q 61 1003 75 993 q 35 1035 44 1015 q 21 1074 26 1054 q 16 1143 14 1107 q 38 1207 18 1179 q 96 1253 60 1240 q 140 1266 118 1261 q 186 1274 163 1271 q 270 1278 228 1278 q 354 1279 313 1279 q 433 1269 393 1278 q 501 1238 474 1261 q 530 1200 521 1222 q 544 1154 539 1178 q 553 1108 550 1131 q 558 1061 556 1085 q 567 934 564 997 q 572 807 571 871 q 570 580 572 693 q 565 351 568 467 q 563 210 563 281 q 556 68 563 139 q 544 -6 551 32 q 510 -71 538 -44 q 459 -104 488 -92 q 400 -121 431 -117 z "},"^":{"ha":590,"x_min":31,"x_max":561,"o":"m 175 610 q 142 613 161 608 q 105 624 124 617 q 70 642 86 632 q 46 663 54 651 q 31 706 31 682 q 51 771 33 742 q 60 785 56 778 q 71 800 65 793 q 79 817 75 808 q 88 835 83 826 q 138 917 110 879 q 199 992 167 956 q 232 1028 214 1011 q 271 1057 250 1044 q 301 1067 285 1067 q 351 1056 328 1069 q 408 1010 383 1038 q 453 953 433 983 q 509 850 483 903 q 553 740 535 797 q 559 706 557 724 q 554 672 561 688 q 535 645 547 657 q 510 625 524 633 q 488 615 501 619 q 459 610 474 611 q 430 610 444 608 q 407 615 415 611 q 381 633 392 622 q 360 656 369 643 q 293 753 321 703 q 274 706 283 729 q 250 661 265 682 q 217 627 236 642 q 175 610 197 613 z "},"_":{"ha":717,"x_min":29,"x_max":685,"o":"m 506 -82 q 434 -82 469 -83 q 363 -81 399 -81 q 256 -78 310 -79 q 149 -71 201 -78 q 106 -61 126 -68 q 68 -39 85 -54 q 38 10 46 -19 q 31 48 33 25 q 31 95 29 71 q 38 142 32 119 q 51 176 43 164 q 74 197 61 189 q 101 213 88 206 q 141 228 121 221 q 182 239 161 235 q 281 248 231 250 q 382 247 332 246 q 407 245 394 247 q 431 243 419 243 q 478 241 447 243 q 543 235 510 239 q 606 223 576 231 q 647 206 635 215 q 665 184 658 197 q 675 158 672 171 q 682 110 681 135 q 685 63 683 86 q 681 23 685 43 q 669 -15 678 3 q 622 -61 654 -49 q 565 -76 594 -72 q 506 -82 535 -81 z "},"`":{"ha":313,"x_min":17,"x_max":285,"o":"m 282 819 q 249 764 279 782 q 186 756 219 746 q 151 773 167 761 q 122 800 135 785 q 103 824 111 811 q 85 847 96 836 q 58 876 72 863 q 36 908 44 890 q 43 982 17 951 q 101 1017 65 1010 q 167 1010 136 1025 q 210 977 189 999 q 249 929 232 956 q 275 874 265 903 q 282 819 285 846 z "},"a":{"ha":928,"x_min":28,"x_max":910,"o":"m 899 188 q 896 84 910 129 q 852 10 882 39 q 783 -28 822 -18 q 702 -28 743 -37 q 624 13 661 -18 q 563 99 586 43 q 438 6 508 35 q 297 -18 368 -24 q 165 28 226 -12 q 68 146 103 69 q 28 343 28 235 q 59 558 28 451 q 149 756 90 664 q 285 906 207 849 q 351 935 314 928 q 428 939 389 943 q 506 919 468 935 q 572 881 543 904 q 654 933 610 918 q 738 941 699 949 q 803 903 776 933 q 833 819 831 874 q 829 748 835 783 q 818 677 824 713 q 808 606 813 642 q 807 535 804 571 q 822 447 811 490 q 847 360 833 403 q 876 275 861 318 q 899 188 890 232 m 357 507 q 343 423 339 461 q 366 366 347 385 q 412 351 385 347 q 467 396 439 356 q 501 472 494 435 q 502 535 508 508 q 479 578 496 563 q 441 594 463 594 q 397 572 419 593 q 357 507 375 551 z "},"b":{"ha":853,"x_min":47,"x_max":836,"o":"m 689 72 q 597 18 647 39 q 492 -14 546 -3 q 381 -26 438 -25 q 272 -22 325 -28 q 222 -12 247 -19 q 173 8 196 -4 q 131 39 150 21 q 103 79 113 57 q 77 171 88 111 q 60 303 67 231 q 51 456 54 376 q 47 610 47 536 q 49 746 47 685 q 56 843 51 807 q 80 909 60 881 q 130 955 100 938 q 197 979 160 972 q 272 982 235 986 q 349 941 326 975 q 376 858 371 907 q 376 751 382 810 q 368 639 371 693 q 444 661 404 650 q 523 677 483 672 q 600 678 563 682 q 669 656 638 675 q 791 532 750 607 q 834 374 832 457 q 799 211 836 292 q 689 72 763 131 m 403 389 q 363 360 378 378 q 343 326 347 343 q 349 298 339 310 q 386 286 358 286 q 424 288 403 286 q 466 297 446 290 q 501 314 486 303 q 519 342 517 325 q 513 377 524 364 q 485 396 503 390 q 446 399 468 401 q 403 389 424 397 z "},"c":{"ha":840,"x_min":22,"x_max":814,"o":"m 725 85 q 537 6 639 24 q 340 11 435 -12 q 168 98 244 35 q 56 261 92 161 q 25 444 22 354 q 58 613 28 533 q 141 757 89 692 q 258 867 193 822 q 397 933 324 913 q 541 944 469 954 q 678 890 613 935 q 792 760 743 846 q 806 674 814 721 q 769 588 797 626 q 700 526 742 549 q 615 513 658 503 q 550 532 589 518 q 472 558 511 546 q 397 572 432 569 q 343 556 363 574 q 315 499 318 532 q 324 435 311 465 q 364 381 338 404 q 426 353 390 357 q 486 356 457 349 q 545 373 515 363 q 605 393 575 383 q 665 406 635 403 q 760 374 725 410 q 804 285 796 338 q 793 176 813 232 q 725 85 774 119 z "},"d":{"ha":953,"x_min":17,"x_max":928,"o":"m 819 57 q 784 -15 814 11 q 714 -49 754 -40 q 628 -49 674 -57 q 543 -15 582 -40 q 490 1 518 0 q 431 -3 461 1 q 369 -11 400 -7 q 311 -10 339 -15 q 158 53 219 7 q 63 159 96 99 q 23 288 29 219 q 35 422 17 357 q 94 542 53 488 q 196 629 135 597 q 278 662 232 647 q 372 681 325 676 q 463 676 419 685 q 538 642 507 668 q 545 747 538 690 q 571 854 553 804 q 620 940 589 904 q 700 983 651 976 q 744 985 717 986 q 801 982 772 985 q 856 972 831 979 q 896 956 882 965 q 924 900 921 936 q 922 822 928 864 q 903 738 915 779 q 886 665 892 696 q 846 362 856 515 q 819 57 836 208 m 378 354 q 397 278 378 303 q 438 256 415 254 q 481 285 461 258 q 504 364 501 313 q 486 423 506 404 q 442 440 467 442 q 398 416 418 438 q 378 354 378 394 z "},"e":{"ha":790,"x_min":24,"x_max":761,"o":"m 450 -50 q 283 -22 357 -54 q 157 67 210 10 q 73 202 104 125 q 33 366 42 279 q 38 543 24 453 q 93 718 53 633 q 186 838 126 790 q 319 906 246 885 q 472 922 392 926 q 625 886 551 917 q 700 831 669 867 q 746 749 731 794 q 761 651 761 703 q 747 551 761 600 q 703 461 732 503 q 629 393 674 419 q 564 374 603 378 q 484 372 525 369 q 403 385 443 375 q 335 406 364 394 q 332 364 333 390 q 336 313 331 338 q 358 269 342 288 q 408 250 374 250 q 460 260 435 250 q 515 279 486 269 q 578 294 544 289 q 653 290 613 300 q 699 265 683 283 q 720 223 715 247 q 720 169 725 199 q 706 108 715 139 q 666 44 693 72 q 603 -5 639 15 q 528 -37 568 -25 q 450 -50 488 -49 m 438 675 q 390 642 406 661 q 376 606 375 622 q 395 584 378 590 q 446 592 413 578 q 478 619 468 601 q 486 651 488 636 q 472 675 485 667 q 438 675 460 683 z "},"f":{"ha":785,"x_min":14,"x_max":765,"o":"m 514 -4 q 440 -51 482 -39 q 355 -53 397 -62 q 277 -17 313 -44 q 225 57 242 11 q 192 198 201 125 q 175 343 182 271 q 86 357 122 339 q 32 403 50 375 q 14 467 14 432 q 31 530 14 501 q 83 576 49 558 q 171 589 118 593 q 194 753 176 683 q 256 872 213 824 q 376 946 299 919 q 578 979 453 972 q 681 961 640 982 q 742 906 721 940 q 764 829 763 871 q 748 750 765 788 q 696 685 731 713 q 610 651 661 657 q 576 649 597 650 q 532 644 554 647 q 490 636 510 642 q 464 621 471 631 q 458 608 461 617 q 454 589 456 599 q 453 572 453 579 q 456 564 453 564 q 511 568 476 565 q 582 570 546 571 q 650 564 618 569 q 697 543 682 558 q 714 515 707 532 q 724 477 721 497 q 725 438 726 457 q 719 404 724 418 q 684 361 710 376 q 625 340 658 346 q 556 335 592 335 q 490 340 519 336 q 508 260 496 308 q 529 160 521 211 q 536 65 538 110 q 514 -4 535 19 z "},"g":{"ha":867,"x_min":28,"x_max":838,"o":"m 451 -153 q 292 -148 372 -161 q 151 -101 211 -135 q 64 -11 92 -67 q 61 121 36 44 q 87 162 68 143 q 129 193 106 181 q 179 210 153 206 q 229 211 206 215 q 271 201 244 208 q 326 188 297 194 q 380 178 354 182 q 421 179 406 175 q 470 210 450 188 q 499 260 490 233 q 506 313 508 288 q 486 354 503 339 q 460 365 474 365 q 434 358 447 364 q 406 342 421 351 q 376 328 392 333 q 233 315 299 299 q 122 375 168 331 q 51 485 75 419 q 31 619 28 550 q 69 753 35 689 q 176 861 104 818 q 290 903 222 889 q 430 918 358 918 q 567 903 501 918 q 678 857 633 888 q 777 740 742 811 q 825 587 813 669 q 831 417 838 504 q 807 251 825 331 q 763 106 789 171 q 708 3 736 40 q 657 -54 686 -28 q 594 -101 628 -81 q 525 -135 561 -122 q 451 -153 489 -149 m 401 678 q 349 650 364 669 q 338 613 333 631 q 365 583 343 594 q 425 583 388 572 q 454 606 447 589 q 457 641 461 624 q 438 670 453 658 q 401 678 424 682 z "},"h":{"ha":922,"x_min":49,"x_max":900,"o":"m 390 36 q 329 -15 374 0 q 235 -28 285 -31 q 139 -6 185 -25 q 74 49 93 14 q 55 117 60 72 q 49 216 50 161 q 51 331 49 271 q 59 447 54 392 q 67 549 64 503 q 72 624 71 596 q 71 688 72 644 q 70 780 69 732 q 75 869 71 828 q 90 931 79 911 q 132 969 106 956 q 188 986 158 983 q 250 982 218 989 q 308 961 282 975 q 352 910 338 944 q 372 835 367 876 q 375 751 378 793 q 368 675 372 708 q 538 763 461 749 q 676 747 615 776 q 782 656 738 718 q 853 515 826 593 q 890 353 881 438 q 892 194 900 268 q 882 128 888 161 q 865 65 876 94 q 834 15 854 36 q 783 -17 814 -7 q 729 -27 758 -25 q 673 -24 700 -29 q 622 -7 646 -19 q 586 29 599 6 q 560 100 567 65 q 552 169 553 135 q 553 237 551 203 q 550 303 554 271 q 533 369 546 336 q 492 435 521 401 q 451 460 471 458 q 416 449 431 463 q 394 408 401 435 q 392 349 386 382 q 403 269 397 310 q 413 189 410 229 q 411 110 415 149 q 390 36 407 71 z "},"i":{"ha":458,"x_min":35,"x_max":435,"o":"m 389 751 q 306 690 354 715 q 208 669 257 664 q 155 694 178 672 q 110 736 132 715 q 72 826 64 781 q 122 907 81 872 q 228 958 164 942 q 354 960 292 974 q 408 928 389 951 q 431 873 426 904 q 424 809 435 842 q 389 751 414 776 m 365 35 q 324 4 350 15 q 269 -12 299 -7 q 209 -15 239 -17 q 157 -6 179 -14 q 97 47 119 7 q 63 138 75 88 q 45 242 50 189 q 38 335 40 296 q 38 403 35 364 q 51 482 42 443 q 76 553 60 521 q 115 601 92 586 q 174 623 140 617 q 242 626 208 629 q 306 608 276 622 q 351 569 335 594 q 367 509 364 551 q 370 419 371 467 q 368 326 369 371 q 368 261 367 282 q 374 210 369 242 q 380 144 378 178 q 379 79 382 110 q 365 35 376 49 z "},"j":{"ha":746,"x_min":15,"x_max":736,"o":"m 722 864 q 671 790 710 821 q 582 742 632 758 q 480 725 532 725 q 389 746 428 725 q 334 794 351 765 q 317 853 317 822 q 331 917 317 885 q 372 977 346 950 q 434 1025 399 1004 q 511 1054 469 1046 q 603 1053 558 1064 q 678 1015 647 1042 q 723 950 710 989 q 722 864 736 911 m 299 -299 q 225 -307 263 -307 q 151 -296 188 -307 q 83 -259 115 -285 q 33 -201 51 -233 q 17 -142 18 -174 q 24 -81 15 -110 q 33 -49 28 -65 q 50 -21 39 -33 q 97 7 67 -3 q 117 10 107 10 q 138 14 126 11 q 187 29 163 18 q 226 60 211 40 q 237 71 232 65 q 244 83 242 76 q 263 169 261 124 q 265 258 264 214 q 267 313 265 286 q 272 368 269 340 q 279 451 275 410 q 300 532 283 493 q 337 592 313 564 q 396 632 361 621 q 466 641 429 643 q 539 632 503 639 q 594 605 569 626 q 631 556 619 583 q 644 500 642 529 q 646 443 647 471 q 637 354 644 399 q 622 265 629 310 q 606 134 614 199 q 586 4 599 69 q 568 -67 579 -32 q 539 -136 557 -103 q 506 -186 525 -162 q 461 -228 486 -210 q 299 -299 389 -276 z "},"k":{"ha":992,"x_min":44,"x_max":965,"o":"m 439 64 q 383 -18 426 8 q 288 -44 340 -44 q 183 -17 235 -43 q 104 58 132 8 q 69 158 82 96 q 51 294 57 219 q 44 448 44 368 q 49 603 44 528 q 63 743 54 679 q 85 850 72 807 q 144 940 101 906 q 235 983 186 975 q 332 971 285 992 q 404 897 379 950 q 413 837 413 879 q 411 747 414 794 q 405 655 408 699 q 403 592 401 611 q 479 653 439 615 q 560 731 519 690 q 643 808 601 771 q 725 868 685 844 q 803 895 765 892 q 875 871 840 899 q 944 768 932 825 q 933 655 956 711 q 861 550 911 599 q 744 472 811 501 q 853 367 800 426 q 935 244 906 307 q 962 121 965 181 q 903 18 958 61 q 783 -20 843 -29 q 669 33 724 -11 q 567 142 615 76 q 485 276 519 208 q 476 269 486 274 q 454 260 467 264 q 432 251 442 256 q 422 243 422 246 q 440 153 431 199 q 439 64 449 108 z "},"l":{"ha":603,"x_min":42,"x_max":592,"o":"m 439 -49 q 316 -53 375 -61 q 209 -19 257 -46 q 126 53 161 8 q 75 163 92 99 q 56 267 64 204 q 45 401 49 329 q 44 549 42 472 q 55 694 46 625 q 80 822 64 764 q 121 917 96 881 q 197 973 149 958 q 295 979 246 988 q 385 941 344 971 q 438 864 425 911 q 450 718 456 793 q 434 568 444 643 q 419 419 424 493 q 438 276 415 346 q 460 249 443 258 q 497 232 476 239 q 535 217 517 225 q 564 192 554 208 q 588 121 585 158 q 577 49 592 83 q 528 -11 563 15 q 439 -49 494 -37 z "},"m":{"ha":1354,"x_min":39,"x_max":1328,"o":"m 414 83 q 349 15 393 39 q 255 -12 306 -8 q 155 3 204 -15 q 75 61 106 21 q 55 142 56 86 q 60 260 54 197 q 73 382 65 324 q 79 471 81 440 q 65 575 78 521 q 46 682 53 629 q 44 783 39 735 q 82 871 49 832 q 164 928 117 911 q 257 940 211 946 q 339 906 303 935 q 386 825 375 876 q 483 880 431 867 q 583 880 535 893 q 672 830 632 867 q 733 736 713 793 q 797 821 763 781 q 874 893 831 861 q 984 933 922 928 q 1103 917 1046 938 q 1207 855 1161 897 q 1272 753 1253 813 q 1289 650 1289 703 q 1283 543 1289 597 q 1270 435 1276 489 q 1268 328 1264 381 q 1277 281 1269 304 q 1294 235 1285 258 q 1311 190 1303 213 q 1324 144 1319 168 q 1313 89 1328 115 q 1270 43 1299 63 q 1203 12 1242 24 q 1125 0 1165 0 q 1045 15 1085 0 q 974 61 1006 29 q 934 131 944 90 q 925 216 924 171 q 934 307 926 261 q 950 393 942 353 q 956 492 961 449 q 935 556 951 535 q 892 573 918 578 q 835 529 865 568 q 810 472 817 506 q 802 399 803 438 q 806 322 801 361 q 812 247 810 282 q 813 184 814 211 q 803 143 813 157 q 736 98 781 113 q 644 85 692 83 q 556 104 597 86 q 501 156 515 122 q 499 226 493 176 q 513 338 506 276 q 520 465 519 400 q 501 581 521 531 q 480 603 496 594 q 445 608 464 611 q 410 589 426 606 q 388 536 393 572 q 390 424 378 483 q 415 306 401 365 q 432 190 428 247 q 414 83 436 132 z "},"n":{"ha":982,"x_min":39,"x_max":949,"o":"m 931 94 q 869 -1 911 36 q 778 -50 828 -39 q 679 -44 728 -61 q 599 25 631 -28 q 574 112 579 57 q 572 231 569 167 q 576 360 574 294 q 574 479 579 426 q 553 565 569 532 q 500 596 538 597 q 429 553 451 594 q 401 451 407 511 q 400 326 394 392 q 411 213 406 261 q 413 167 413 196 q 412 108 414 138 q 403 51 410 78 q 386 11 397 24 q 342 -22 368 -10 q 286 -39 315 -35 q 226 -40 257 -43 q 169 -26 196 -36 q 114 16 135 -14 q 82 87 93 46 q 68 176 71 128 q 65 272 65 224 q 67 367 65 321 q 68 451 69 414 q 62 534 68 493 q 50 616 56 575 q 42 698 44 657 q 46 779 39 739 q 83 872 54 836 q 151 925 113 908 q 231 939 189 942 q 308 915 274 936 q 365 853 343 893 q 388 756 388 813 q 498 865 433 822 q 629 916 563 907 q 756 897 696 925 q 850 797 815 869 q 883 707 867 763 q 911 586 899 651 q 933 449 924 521 q 945 311 942 378 q 945 188 949 244 q 931 94 942 131 z "},"o":{"ha":897,"x_min":26,"x_max":874,"o":"m 628 50 q 442 -4 532 -1 q 276 28 351 -7 q 144 131 201 64 q 57 284 88 197 q 26 472 26 371 q 65 675 26 572 q 158 819 97 761 q 292 908 218 878 q 447 939 365 938 q 603 913 528 940 q 740 830 678 886 q 839 689 803 774 q 867 577 861 638 q 867 455 874 517 q 840 332 860 393 q 790 217 821 271 q 719 119 760 163 q 628 50 678 76 m 399 565 q 357 485 367 525 q 354 413 347 446 q 381 359 361 381 q 425 333 400 338 q 478 346 450 329 q 531 408 506 363 q 553 506 557 458 q 527 581 550 553 q 469 610 504 610 q 399 565 433 610 z "},"p":{"ha":888,"x_min":42,"x_max":872,"o":"m 379 -37 q 319 -90 360 -72 q 233 -110 279 -108 q 145 -97 188 -111 q 79 -50 103 -82 q 56 9 64 -29 q 44 94 47 47 q 43 192 42 140 q 48 291 44 243 q 55 380 51 339 q 61 447 58 421 q 64 507 63 469 q 67 589 65 544 q 72 681 68 633 q 81 770 75 728 q 97 846 88 813 q 121 897 106 879 q 204 948 154 936 q 301 949 254 960 q 381 906 349 938 q 410 824 414 874 q 528 874 461 860 q 656 871 594 889 q 783 803 735 847 q 851 705 831 760 q 868 590 872 650 q 839 472 864 529 q 771 368 814 415 q 669 292 728 321 q 542 258 611 264 q 394 282 472 253 q 397 217 396 263 q 398 120 399 171 q 393 24 397 69 q 379 -37 389 -21 m 410 575 q 397 537 390 551 q 422 517 403 522 q 469 515 442 513 q 519 528 496 518 q 555 554 542 538 q 561 592 568 571 q 534 615 554 610 q 490 616 514 619 q 444 601 467 613 q 410 575 421 590 z "},"q":{"ha":858,"x_min":17,"x_max":831,"o":"m 831 -17 q 804 -95 831 -62 q 738 -144 778 -128 q 651 -163 699 -161 q 560 -150 604 -165 q 493 -97 518 -136 q 455 -7 468 -57 q 438 97 442 43 q 435 194 433 151 q 275 183 349 168 q 147 242 201 199 q 59 349 92 285 q 22 487 26 414 q 42 635 17 560 q 132 774 68 710 q 217 836 169 811 q 318 876 265 861 q 427 896 371 890 q 536 903 483 901 q 599 899 563 903 q 670 885 635 894 q 734 860 706 876 q 775 821 763 844 q 797 730 797 778 q 787 633 796 682 q 767 533 778 583 q 758 435 756 482 q 765 385 758 419 q 778 305 771 350 q 795 209 786 260 q 813 113 804 158 q 826 33 821 68 q 831 -17 831 -3 m 349 567 q 335 524 328 540 q 366 501 343 507 q 418 497 389 494 q 469 511 447 500 q 498 541 492 522 q 481 585 504 560 q 451 601 469 597 q 413 601 432 604 q 376 590 393 599 q 349 567 358 581 z "},"r":{"ha":813,"x_min":40,"x_max":797,"o":"m 450 93 q 401 19 438 44 q 317 -10 364 -6 q 223 3 271 -14 q 142 56 175 19 q 90 144 110 89 q 58 267 69 200 q 44 409 47 335 q 42 554 40 483 q 51 688 44 625 q 68 797 58 751 q 107 881 78 847 q 174 931 136 914 q 253 947 211 947 q 330 931 294 947 q 390 880 365 914 q 419 796 415 846 q 497 858 454 829 q 583 900 539 886 q 668 908 626 914 q 742 865 710 901 q 783 787 769 833 q 796 692 797 740 q 778 601 794 644 q 729 532 763 557 q 685 513 710 517 q 633 510 660 508 q 578 515 606 511 q 523 519 550 518 q 472 514 496 519 q 431 492 449 508 q 413 449 415 478 q 414 381 410 419 q 426 301 418 343 q 440 219 433 258 q 451 146 447 179 q 450 93 454 113 z "},"s":{"ha":664,"x_min":29,"x_max":636,"o":"m 519 93 q 401 10 469 43 q 264 -29 332 -22 q 136 -12 196 -36 q 46 75 76 11 q 32 126 35 99 q 34 182 29 154 q 53 233 39 210 q 89 272 67 257 q 148 299 114 289 q 210 318 182 308 q 249 340 238 328 q 240 372 261 351 q 190 415 217 394 q 138 458 163 436 q 92 505 113 481 q 61 560 71 529 q 47 685 39 625 q 85 796 56 746 q 163 885 115 846 q 271 946 211 924 q 397 972 331 968 q 529 958 463 976 q 603 903 576 944 q 633 815 629 863 q 616 724 636 768 q 550 663 596 681 q 491 652 525 651 q 427 652 457 653 q 379 644 397 651 q 369 610 361 636 q 391 578 374 596 q 430 544 408 561 q 473 513 451 528 q 506 490 494 499 q 599 388 574 442 q 621 283 625 335 q 588 182 617 231 q 519 93 560 133 z "},"t":{"ha":774,"x_min":11,"x_max":756,"o":"m 678 25 q 585 -24 636 -6 q 480 -45 533 -42 q 374 -40 426 -49 q 277 -7 321 -31 q 202 53 233 17 q 158 142 171 90 q 139 312 139 225 q 142 485 139 399 q 67 501 96 481 q 24 556 38 522 q 15 633 11 590 q 38 717 18 675 q 59 741 44 732 q 91 754 74 750 q 127 760 108 758 q 163 763 146 763 q 169 806 164 776 q 182 866 175 835 q 198 925 189 897 q 215 965 207 953 q 271 1008 238 994 q 342 1022 304 1021 q 419 1012 381 1022 q 489 983 457 1001 q 516 948 510 971 q 522 898 522 925 q 514 842 521 871 q 501 792 507 814 q 576 780 539 790 q 642 750 613 769 q 688 702 671 731 q 704 636 706 674 q 679 551 703 585 q 618 501 656 518 q 533 481 581 483 q 436 489 486 478 q 425 409 425 450 q 432 328 425 368 q 450 299 436 303 q 485 302 464 296 q 530 320 506 308 q 579 338 554 332 q 656 335 622 347 q 712 297 689 324 q 745 235 735 271 q 752 162 756 200 q 731 88 749 124 q 678 25 713 51 z "},"u":{"ha":874,"x_min":36,"x_max":842,"o":"m 735 111 q 642 19 697 54 q 522 -31 586 -17 q 391 -38 458 -44 q 263 -6 324 -32 q 151 67 201 21 q 74 179 101 114 q 50 268 58 215 q 39 383 42 321 q 40 512 36 446 q 51 640 43 578 q 73 754 60 701 q 103 842 86 807 q 171 911 128 892 q 258 923 214 931 q 338 881 301 915 q 383 792 374 847 q 383 730 388 768 q 373 648 379 692 q 360 558 367 604 q 351 472 353 513 q 356 399 349 431 q 382 353 363 367 q 408 339 392 344 q 440 336 424 333 q 472 353 457 339 q 494 397 486 367 q 506 496 507 449 q 499 585 506 543 q 483 667 492 628 q 472 742 475 706 q 477 812 469 778 q 511 878 485 846 q 580 927 540 914 q 659 934 619 940 q 733 902 699 928 q 786 835 768 876 q 827 683 813 774 q 838 490 842 592 q 810 289 835 389 q 735 111 786 189 z "},"v":{"ha":999,"x_min":17,"x_max":981,"o":"m 922 496 q 849 340 890 419 q 761 191 808 260 q 663 69 714 122 q 557 -7 611 17 q 447 -17 503 -31 q 339 57 392 -4 q 274 144 310 90 q 201 264 238 199 q 130 401 164 329 q 70 542 96 472 q 31 673 44 611 q 21 781 17 735 q 62 885 26 843 q 146 942 97 926 q 248 945 194 958 q 342 886 301 932 q 364 831 354 871 q 383 740 374 792 q 405 633 393 689 q 433 529 417 576 q 472 449 450 482 q 528 413 494 417 q 567 444 549 410 q 600 524 586 478 q 623 615 614 569 q 636 681 632 661 q 669 810 650 758 q 712 890 688 861 q 766 930 736 919 q 832 938 796 940 q 935 889 901 933 q 974 779 968 844 q 965 638 981 714 q 922 496 950 563 z "},"w":{"ha":1315,"x_min":29,"x_max":1285,"o":"m 1140 51 q 1015 -28 1086 -8 q 869 -37 944 -49 q 722 13 794 -26 q 594 110 650 51 q 530 57 563 82 q 463 13 497 32 q 391 -17 429 -6 q 311 -25 353 -28 q 223 1 265 -24 q 146 63 181 25 q 86 146 111 100 q 51 236 61 192 q 33 438 29 331 q 62 645 38 546 q 126 825 86 744 q 219 948 167 906 q 331 984 271 990 q 451 901 390 978 q 473 840 471 876 q 466 760 475 803 q 440 673 457 718 q 408 585 424 628 q 378 507 392 543 q 361 447 364 471 q 364 390 357 410 q 385 363 371 371 q 417 358 399 356 q 450 367 435 360 q 478 394 467 372 q 495 444 489 415 q 505 508 501 474 q 512 575 508 542 q 519 636 515 608 q 532 681 524 664 q 565 722 544 706 q 611 745 586 739 q 661 747 636 751 q 706 722 686 742 q 729 669 719 707 q 745 587 739 631 q 755 503 751 543 q 763 442 758 463 q 776 400 767 424 q 802 360 786 376 q 839 338 818 343 q 885 353 860 333 q 918 405 910 372 q 924 477 926 438 q 913 559 922 517 q 892 640 903 601 q 874 710 882 678 q 867 761 865 742 q 907 897 869 843 q 996 967 944 950 q 1103 961 1047 985 q 1197 865 1158 938 q 1264 671 1243 782 q 1278 445 1285 560 q 1238 226 1272 331 q 1140 51 1204 122 z "},"x":{"ha":888,"x_min":21,"x_max":879,"o":"m 776 190 q 774 97 789 140 q 726 27 758 54 q 650 -6 693 0 q 563 14 607 -11 q 513 56 533 31 q 474 110 492 81 q 440 169 457 139 q 404 228 424 200 q 365 176 383 203 q 326 122 346 149 q 283 74 306 96 q 233 36 261 51 q 192 26 214 26 q 147 31 169 25 q 104 47 125 36 q 68 74 83 58 q 22 172 21 118 q 53 281 24 225 q 131 390 83 336 q 225 489 179 443 q 183 524 206 507 q 141 559 161 540 q 105 599 121 578 q 81 644 89 619 q 74 744 64 694 q 113 829 85 794 q 185 878 142 864 q 278 872 228 893 q 319 842 296 865 q 366 789 343 818 q 408 732 389 760 q 438 688 428 704 q 485 752 460 719 q 538 813 510 785 q 599 861 567 842 q 669 888 632 881 q 757 877 715 894 q 827 827 799 860 q 867 752 856 794 q 864 668 879 710 q 826 601 850 632 q 774 544 803 571 q 711 494 744 518 q 647 447 678 469 q 692 381 671 418 q 731 306 714 343 q 760 237 749 268 q 776 190 772 206 z "},"y":{"ha":882,"x_min":17,"x_max":860,"o":"m 581 -68 q 500 -105 547 -97 q 408 -103 453 -112 q 326 -67 363 -93 q 281 -3 290 -42 q 290 69 274 25 q 330 160 306 114 q 380 251 354 207 q 418 319 406 294 q 285 324 347 308 q 172 377 222 340 q 85 467 121 414 q 33 583 50 519 q 22 715 17 646 q 60 851 28 783 q 101 901 74 881 q 159 933 128 922 q 224 945 190 944 q 283 938 257 946 q 327 910 310 929 q 344 863 344 892 q 356 699 344 756 q 385 625 367 642 q 430 627 404 608 q 485 691 456 646 q 547 803 515 736 q 613 950 579 869 q 652 984 622 975 q 717 989 682 993 q 783 969 751 985 q 832 931 815 954 q 854 869 849 907 q 857 786 860 831 q 846 692 854 742 q 827 597 838 643 q 806 510 817 551 q 786 442 794 469 q 767 373 779 415 q 738 280 754 331 q 703 175 722 229 q 664 73 685 121 q 622 -12 643 25 q 581 -68 601 -50 z "},"z":{"ha":817,"x_min":29,"x_max":797,"o":"m 600 7 q 490 6 560 7 q 347 7 421 4 q 206 19 272 10 q 107 53 140 29 q 60 119 74 76 q 49 209 47 161 q 67 303 51 257 q 110 382 83 350 q 148 415 122 397 q 205 453 174 433 q 269 496 236 474 q 331 540 303 518 q 377 583 358 563 q 397 624 396 604 q 340 631 371 632 q 278 624 310 629 q 216 614 247 619 q 156 608 185 608 q 104 615 128 607 q 64 646 81 624 q 31 740 32 690 q 51 832 29 790 q 113 901 72 874 q 207 926 154 928 q 330 933 267 924 q 456 947 393 942 q 577 946 518 951 q 689 911 636 940 q 735 862 721 893 q 749 794 749 831 q 740 718 750 757 q 713 646 729 679 q 687 608 706 633 q 642 552 668 583 q 588 487 617 521 q 533 422 558 453 q 490 365 508 390 q 468 326 472 339 q 544 331 500 326 q 633 333 589 335 q 712 319 676 331 q 763 278 747 307 q 791 184 785 232 q 781 97 797 136 q 720 32 764 57 q 600 7 676 7 z "},"{":{"ha":685,"x_min":43,"x_max":671,"o":"m 518 -158 q 416 -162 474 -162 q 303 -153 358 -162 q 201 -124 247 -144 q 132 -64 154 -103 q 105 26 108 -22 q 107 125 101 75 q 119 226 113 175 q 122 326 126 278 q 103 389 119 357 q 72 452 88 421 q 50 513 57 483 q 61 567 43 542 q 102 677 96 617 q 102 802 108 738 q 87 933 96 867 q 83 1060 78 999 q 101 1142 88 1099 q 139 1222 115 1185 q 194 1287 163 1260 q 265 1322 226 1314 q 345 1335 296 1329 q 446 1341 394 1340 q 543 1334 497 1342 q 614 1307 589 1326 q 648 1252 639 1288 q 653 1178 657 1217 q 632 1106 649 1140 q 589 1054 615 1071 q 547 1040 569 1042 q 501 1038 525 1038 q 453 1035 476 1038 q 413 1019 431 1032 q 387 974 392 1006 q 385 906 382 943 q 396 833 389 869 q 404 771 403 796 q 404 695 408 728 q 388 637 400 663 q 351 588 375 611 q 292 543 328 565 q 368 510 329 531 q 419 451 407 489 q 424 400 424 439 q 424 317 425 361 q 424 233 424 272 q 428 181 424 193 q 438 167 429 171 q 459 162 447 163 q 483 162 471 161 q 506 163 496 163 q 602 138 565 161 q 655 81 639 115 q 668 6 671 46 q 647 -70 665 -35 q 594 -131 628 -106 q 518 -158 561 -156 z "},"}":{"ha":676,"x_min":11,"x_max":633,"o":"m 550 -62 q 482 -123 528 -101 q 381 -153 436 -144 q 269 -162 326 -162 q 167 -160 211 -162 q 90 -133 124 -157 q 38 -73 57 -108 q 15 3 18 -37 q 27 78 11 43 q 79 136 43 113 q 175 161 115 160 q 197 160 185 161 q 222 160 210 160 q 242 165 233 161 q 253 179 250 169 q 256 231 257 192 q 254 315 256 271 q 253 399 253 360 q 257 451 253 439 q 308 509 269 488 q 385 544 347 531 q 325 589 349 567 q 288 637 301 611 q 270 695 274 663 q 269 771 267 728 q 277 833 271 796 q 287 906 283 869 q 285 974 290 943 q 258 1018 279 1004 q 216 1033 239 1031 q 169 1035 193 1035 q 123 1037 146 1035 q 81 1051 100 1039 q 36 1102 53 1068 q 15 1174 19 1136 q 20 1249 11 1213 q 54 1304 29 1285 q 125 1332 79 1324 q 222 1340 171 1340 q 322 1335 274 1340 q 403 1324 371 1329 q 474 1288 442 1315 q 530 1224 506 1261 q 568 1144 554 1188 q 586 1063 582 1101 q 584 935 592 1001 q 571 805 576 869 q 572 681 565 740 q 615 571 579 621 q 627 517 633 546 q 606 456 621 488 q 574 392 590 425 q 556 329 557 360 q 560 230 553 281 q 574 128 568 179 q 576 29 579 78 q 550 -62 574 -19 z "},"~":{"ha":779,"x_min":32,"x_max":751,"o":"m 204 297 q 147 295 178 288 q 91 322 117 303 q 49 367 65 340 q 32 422 32 393 q 43 469 32 443 q 72 522 54 494 q 112 575 89 549 q 159 623 135 601 q 208 658 183 644 q 253 676 232 672 q 303 660 271 679 q 370 620 336 642 q 434 585 404 599 q 479 583 464 571 q 530 632 504 607 q 588 664 556 657 q 651 660 619 671 q 705 628 682 650 q 740 576 728 606 q 746 514 751 546 q 724 465 742 493 q 682 410 706 438 q 633 358 658 382 q 592 324 608 335 q 534 300 565 306 q 471 299 503 294 q 409 319 439 304 q 357 357 379 335 q 330 384 344 369 q 301 388 315 399 q 256 337 276 365 q 204 297 236 308 z "},"":{"ha":347,"x_min":0,"x_max":0,"o":""},"":{"ha":475,"x_min":36,"x_max":439,"o":"m 386 507 q 310 472 353 479 q 227 476 268 465 q 153 513 186 486 q 104 581 119 540 q 97 625 96 600 q 103 674 97 650 q 123 719 110 697 q 153 753 136 740 q 193 769 168 764 q 246 773 218 774 q 299 767 274 772 q 343 753 325 761 q 402 705 379 736 q 432 638 425 674 q 428 567 439 603 q 386 507 417 532 m 340 -303 q 279 -324 315 -317 q 207 -330 243 -331 q 138 -319 171 -329 q 83 -287 104 -308 q 51 -221 61 -265 q 39 -125 42 -176 q 39 -24 36 -74 q 44 57 42 25 q 53 133 47 86 q 72 228 60 179 q 99 318 83 276 q 139 376 115 360 q 188 394 160 390 q 245 391 217 397 q 297 370 274 385 q 332 335 321 356 q 351 271 342 317 q 368 173 360 225 q 382 74 376 121 q 390 7 388 26 q 401 -76 396 -29 q 403 -167 406 -122 q 386 -249 400 -211 q 340 -303 372 -286 z "},"":{"ha":769,"x_min":31,"x_max":728,"o":"m 429 -43 q 376 -44 403 -46 q 326 -32 350 -43 q 288 22 294 -17 q 293 94 282 60 q 304 135 300 117 q 160 208 224 156 q 64 344 96 261 q 39 523 31 436 q 85 683 47 610 q 185 813 124 757 q 317 899 246 869 q 312 920 314 910 q 307 942 310 931 q 307 986 304 963 q 325 1024 310 1010 q 367 1044 342 1040 q 408 1051 383 1049 q 456 1051 432 1053 q 501 1044 481 1050 q 532 1024 521 1038 q 547 993 543 1010 q 550 961 551 976 q 546 911 550 936 q 633 860 592 894 q 708 768 675 825 q 720 695 728 735 q 688 622 713 656 q 628 569 664 589 q 554 557 592 550 q 497 574 531 561 q 428 597 463 586 q 363 609 394 607 q 315 594 332 611 q 291 546 294 574 q 299 492 288 518 q 333 446 310 465 q 388 422 356 426 q 440 425 414 419 q 492 440 467 431 q 544 457 518 449 q 597 467 571 465 q 681 440 650 471 q 719 365 711 410 q 710 272 726 319 q 650 194 693 224 q 506 132 583 149 q 517 67 513 101 q 517 15 521 32 q 509 -1 514 7 q 497 -15 504 -10 q 465 -34 482 -28 q 429 -43 447 -40 z "},"":{"ha":918,"x_min":38,"x_max":871,"o":"m 236 -36 q 197 -47 217 -42 q 158 -51 178 -51 q 124 -45 142 -51 q 93 -28 107 -39 q 67 6 76 -14 q 50 47 57 26 q 42 140 38 92 q 67 228 46 188 q 83 256 74 243 q 106 279 92 269 q 137 292 119 290 q 171 297 154 294 q 185 301 178 300 q 199 307 193 303 q 211 322 207 313 q 218 342 215 332 q 175 339 197 339 q 133 347 153 339 q 79 413 90 363 q 83 488 71 450 q 133 535 96 525 q 159 538 146 538 q 186 538 172 538 q 158 619 171 578 q 143 701 144 660 q 151 763 142 733 q 171 822 160 793 q 209 899 186 863 q 263 965 232 935 q 297 999 279 983 q 336 1026 315 1015 q 424 1063 376 1050 q 517 1068 471 1075 q 639 1038 579 1058 q 746 978 699 1018 q 810 914 781 950 q 850 835 839 878 q 851 751 861 794 q 814 676 842 708 q 765 635 793 653 q 707 610 738 618 q 649 603 679 603 q 593 618 618 604 q 575 631 583 624 q 560 647 567 638 q 540 675 549 660 q 521 703 532 690 q 499 720 514 711 q 472 724 483 729 q 458 709 463 719 q 451 688 453 699 q 449 617 444 653 q 464 547 454 581 q 516 562 490 554 q 569 569 542 569 q 619 560 594 569 q 661 533 643 551 q 684 498 676 518 q 693 458 692 478 q 690 419 696 439 q 668 388 683 400 q 642 372 657 376 q 611 364 626 367 q 572 362 592 361 q 532 363 551 363 q 524 363 528 363 q 515 363 519 364 q 515 351 515 357 q 518 342 515 346 q 531 326 521 332 q 553 317 540 321 q 578 313 565 314 q 600 310 590 311 q 658 306 629 307 q 715 304 686 304 q 761 307 738 304 q 806 301 785 310 q 838 274 825 293 q 857 233 850 254 q 871 142 871 190 q 853 53 871 94 q 828 10 843 31 q 789 -19 813 -10 q 728 -30 761 -32 q 664 -22 696 -28 q 570 -6 617 -12 q 475 3 524 0 q 355 -8 414 6 q 236 -36 296 -21 z "},"":{"ha":972,"x_min":39,"x_max":935,"o":"m 207 76 q 172 72 190 69 q 135 82 153 74 q 102 104 117 90 q 78 133 88 118 q 60 172 67 151 q 56 213 53 192 q 81 264 58 243 q 126 299 103 283 q 172 331 149 315 q 157 358 163 344 q 129 464 133 407 q 135 574 125 521 q 144 603 138 589 q 157 633 150 618 q 140 649 149 642 q 119 664 131 657 q 102 677 111 671 q 85 690 93 683 q 60 719 71 703 q 46 754 50 735 q 60 822 39 790 q 91 862 72 844 q 131 889 110 879 q 173 897 151 899 q 214 879 194 896 q 241 851 229 867 q 265 821 253 836 q 287 795 276 808 q 307 768 297 782 q 324 775 313 769 q 440 813 379 800 q 556 815 496 822 q 665 779 615 807 q 701 825 681 801 q 738 859 717 844 q 783 879 760 874 q 828 878 806 883 q 869 858 851 872 q 897 831 883 847 q 919 795 910 814 q 932 757 929 776 q 929 721 935 738 q 902 683 921 699 q 864 654 883 667 q 829 635 846 644 q 794 618 813 626 q 799 605 797 611 q 801 592 800 599 q 803 533 807 563 q 796 472 800 503 q 784 417 792 444 q 764 365 776 390 q 812 331 788 347 q 860 294 836 314 q 893 258 879 281 q 902 219 903 240 q 893 179 901 197 q 867 142 883 160 q 830 113 850 125 q 788 94 810 100 q 746 96 767 89 q 719 109 731 100 q 696 129 707 118 q 656 178 676 153 q 615 228 636 203 q 581 211 597 217 q 506 192 544 197 q 428 186 467 186 q 383 191 404 186 q 339 203 361 196 q 292 149 315 175 q 242 99 268 122 q 225 86 233 92 q 207 76 217 81 m 383 469 q 400 438 388 450 q 430 419 413 425 q 467 416 447 414 q 504 426 486 418 q 540 453 524 436 q 568 490 556 471 q 578 514 575 501 q 579 539 582 526 q 550 571 572 561 q 502 583 525 582 q 453 578 479 585 q 398 535 419 567 q 383 469 376 504 z "},"":{"ha":999,"x_min":42,"x_max":969,"o":"m 647 -33 q 588 -71 624 -58 q 511 -85 551 -83 q 431 -78 471 -86 q 361 -53 392 -69 q 312 1 325 -33 q 297 79 299 36 q 253 80 274 79 q 218 82 233 81 q 140 100 169 86 q 101 132 110 114 q 109 168 93 150 q 167 197 125 186 q 229 207 190 204 q 317 213 268 210 q 322 233 319 224 q 328 253 325 243 q 267 255 294 254 q 221 257 240 256 q 142 276 172 261 q 104 308 113 290 q 112 343 96 325 q 169 372 128 361 q 180 374 175 374 q 192 376 185 375 q 146 476 164 424 q 114 584 128 529 q 88 694 100 639 q 63 804 76 750 q 48 869 54 836 q 51 935 42 903 q 104 1002 64 974 q 194 1043 144 1031 q 293 1050 244 1056 q 369 1014 342 1044 q 387 970 379 1003 q 400 895 394 938 q 410 804 406 853 q 420 713 415 756 q 431 636 425 669 q 446 590 438 603 q 466 665 454 619 q 491 763 478 710 q 521 869 504 815 q 557 971 538 924 q 599 1053 576 1018 q 650 1104 622 1089 q 726 1125 685 1124 q 809 1113 768 1126 q 885 1076 850 1100 q 944 1018 921 1051 q 961 930 969 983 q 929 817 953 876 q 876 702 906 758 q 831 607 847 646 q 788 497 807 553 q 754 383 769 442 q 849 363 815 381 q 885 326 882 346 q 863 287 889 306 q 776 261 836 268 q 725 257 757 257 q 721 233 722 244 q 717 210 719 221 q 735 209 726 210 q 751 208 744 208 q 846 188 813 204 q 883 150 879 171 q 860 110 886 129 q 774 85 833 92 q 740 82 760 83 q 697 81 721 81 q 679 19 690 49 q 647 -33 668 -10 z "},"":{"ha":447,"x_min":61,"x_max":390,"o":"m 208 507 q 174 508 192 507 q 140 513 157 508 q 96 547 111 524 q 80 587 85 567 q 72 628 75 607 q 67 694 67 661 q 65 763 67 728 q 63 838 64 800 q 63 915 61 876 q 65 946 64 931 q 72 976 67 961 q 81 998 75 988 q 96 1015 88 1008 q 115 1028 101 1019 q 135 1038 128 1036 q 210 1044 171 1047 q 283 1028 249 1042 q 330 994 311 1017 q 360 947 349 972 q 365 924 365 936 q 368 899 365 911 q 378 834 375 867 q 378 769 381 801 q 376 724 375 746 q 374 678 376 701 q 371 628 371 653 q 360 579 371 603 q 351 559 356 568 q 338 542 346 550 q 331 538 335 539 q 325 533 328 536 q 269 513 300 518 q 208 507 239 507 m 217 -107 q 183 -106 200 -107 q 150 -100 165 -106 q 124 -87 136 -96 q 106 -65 113 -78 q 90 -26 94 -47 q 82 14 85 -6 q 76 81 76 47 q 75 149 75 115 q 72 226 74 188 q 72 303 71 264 q 81 363 72 333 q 90 384 85 374 q 106 403 96 394 q 124 415 110 407 q 144 425 138 422 q 219 431 181 433 q 292 415 258 428 q 338 382 319 404 q 368 335 357 360 q 374 310 374 324 q 378 285 375 297 q 386 156 390 222 q 385 110 385 132 q 382 64 385 88 q 380 14 379 39 q 369 -35 381 -11 q 360 -54 365 -44 q 347 -71 356 -64 q 340 -75 344 -74 q 333 -79 336 -76 q 278 -101 308 -94 q 217 -107 247 -107 z "},"":{"ha":926,"x_min":40,"x_max":888,"o":"m 569 158 q 498 70 544 110 q 394 6 451 31 q 276 -28 338 -19 q 163 -24 215 -36 q 102 4 129 -15 q 59 50 75 24 q 42 107 43 76 q 58 167 40 138 q 90 197 69 185 q 136 217 111 208 q 185 231 161 225 q 226 244 210 238 q 245 260 242 251 q 233 282 249 268 q 188 314 213 299 q 141 345 164 329 q 99 381 118 361 q 69 425 79 400 q 60 542 44 488 q 119 640 76 597 q 224 709 163 682 q 353 743 286 736 q 422 841 374 801 q 530 903 469 881 q 658 928 590 925 q 786 918 725 932 q 860 872 836 907 q 884 797 885 836 q 858 724 883 757 q 782 685 832 690 q 734 683 761 682 q 684 684 707 685 q 647 677 661 683 q 640 650 633 671 q 676 612 646 635 q 741 565 706 589 q 808 519 776 542 q 849 485 840 497 q 874 375 888 429 q 815 276 860 321 q 703 199 769 231 q 569 158 636 168 m 354 463 q 401 425 367 433 q 469 421 436 417 q 522 438 503 425 q 521 467 540 451 q 473 489 504 481 q 413 498 442 497 q 365 490 383 499 q 354 463 346 482 z "},"":{"ha":426,"x_min":21,"x_max":406,"o":"m 346 951 q 394 907 382 936 q 397 851 406 878 q 362 806 389 824 q 293 796 335 789 q 251 817 265 801 q 233 855 236 833 q 235 898 229 876 q 257 935 242 919 q 295 957 272 951 q 346 951 318 963 m 142 949 q 190 904 178 933 q 193 848 201 875 q 158 803 185 821 q 89 793 131 786 q 34 832 47 800 q 31 895 21 864 q 70 946 40 926 q 142 949 100 965 z "},"":{"ha":1197,"x_min":46,"x_max":1154,"o":"m 863 8 q 726 -36 796 -19 q 585 -53 656 -53 q 440 -36 511 -53 q 366 -14 401 -29 q 296 19 331 1 q 226 63 260 39 q 164 119 192 88 q 93 237 119 172 q 56 369 67 301 q 47 448 49 408 q 49 528 46 488 q 58 614 51 571 q 81 697 65 657 q 185 870 115 799 q 345 983 256 942 q 537 1033 435 1024 q 739 1022 639 1043 q 825 999 783 1013 q 906 964 867 985 q 945 939 926 953 q 983 910 964 925 q 1063 819 1029 871 q 1121 711 1097 768 q 1151 574 1147 646 q 1143 432 1154 501 q 1129 349 1136 390 q 1108 267 1122 307 q 1056 163 1089 211 q 978 79 1024 115 q 922 40 951 57 q 863 8 893 22 m 551 128 q 676 133 614 121 q 793 172 739 144 q 895 254 851 201 q 957 369 939 307 q 969 543 981 451 q 910 707 957 635 q 826 789 876 757 q 701 842 767 826 q 570 851 635 857 q 447 817 506 844 q 342 745 388 790 q 271 636 297 700 q 244 492 244 572 q 258 375 244 433 q 303 268 272 317 q 403 174 342 207 q 474 143 436 154 q 551 128 513 132 m 765 250 q 647 200 711 211 q 524 203 583 189 q 416 258 464 218 q 346 360 368 297 q 330 511 318 438 q 379 643 342 585 q 473 740 417 701 q 590 788 529 779 q 708 771 650 797 q 807 672 765 744 q 816 618 821 647 q 793 565 811 589 q 749 526 775 540 q 696 517 724 511 q 655 530 679 521 q 606 546 631 539 q 560 555 582 553 q 525 544 538 557 q 508 508 510 529 q 514 469 506 488 q 539 435 522 450 q 578 418 556 421 q 616 419 597 415 q 653 431 635 424 q 690 444 671 438 q 728 451 708 450 q 788 431 765 454 q 815 375 810 408 q 808 307 819 342 q 765 250 796 272 z "},"":{"ha":724,"x_min":31,"x_max":683,"o":"m 654 275 q 683 217 683 247 q 664 163 683 186 q 612 129 644 139 q 543 136 579 119 q 483 178 515 149 q 421 244 450 207 q 370 319 392 281 q 344 388 349 357 q 355 474 338 426 q 403 565 372 521 q 471 648 433 610 q 543 707 508 686 q 596 718 568 722 q 644 697 624 714 q 674 656 665 681 q 669 606 682 631 q 640 562 657 582 q 606 522 624 542 q 570 481 588 501 q 539 439 553 461 q 535 395 526 417 q 565 353 544 374 q 610 312 585 332 q 654 275 635 292 m 347 274 q 376 216 376 247 q 357 162 376 185 q 305 129 338 139 q 236 135 272 119 q 176 176 208 147 q 114 242 143 206 q 63 317 85 279 q 38 386 42 356 q 49 474 31 426 q 97 565 67 521 q 165 648 128 610 q 238 707 203 686 q 290 718 263 722 q 338 697 318 714 q 367 656 358 681 q 363 604 375 631 q 333 560 350 581 q 299 521 317 540 q 263 481 281 501 q 232 439 246 461 q 228 395 219 417 q 258 352 238 374 q 303 311 278 331 q 347 274 328 292 z "},"":{"ha":775,"x_min":32,"x_max":735,"o":"m 664 171 q 622 165 644 167 q 579 168 600 164 q 542 182 558 172 q 518 210 525 192 q 510 259 508 233 q 514 311 511 285 q 453 308 483 308 q 392 308 422 308 q 294 306 343 307 q 197 306 246 304 q 159 308 178 307 q 121 315 140 310 q 94 324 107 318 q 71 339 81 329 q 56 358 65 344 q 43 378 46 371 q 35 453 32 414 q 56 526 39 492 q 97 573 69 554 q 157 603 125 592 q 188 608 172 607 q 219 611 204 608 q 383 619 301 624 q 441 618 411 618 q 499 615 471 618 q 563 613 531 613 q 624 601 594 613 q 648 592 636 597 q 669 581 660 588 q 681 567 675 575 q 706 515 699 543 q 714 458 713 486 q 728 388 725 424 q 733 315 732 351 q 734 276 735 296 q 729 238 733 257 q 720 211 726 224 q 703 189 714 199 q 685 178 694 182 q 664 171 675 174 z "},"":{"ha":0,"x_min":0,"x_max":0,"o":""},"":{"ha":846,"x_min":42,"x_max":804,"o":"m 604 332 q 510 301 560 313 q 413 290 461 290 q 363 292 388 290 q 314 301 338 294 q 263 317 288 307 q 214 339 238 326 q 166 369 189 353 q 124 408 143 386 q 75 489 93 444 q 49 581 57 533 q 42 634 43 607 q 44 689 42 661 q 51 749 47 719 q 67 806 56 778 q 138 925 90 876 q 248 1002 186 974 q 380 1037 310 1031 q 519 1029 450 1043 q 578 1013 549 1022 q 633 989 607 1004 q 662 972 649 982 q 688 951 675 963 q 743 890 719 925 q 782 815 767 854 q 802 721 800 771 q 797 624 804 671 q 788 566 793 594 q 774 510 783 538 q 683 381 746 431 q 645 353 665 365 q 604 332 625 342 m 390 414 q 476 417 432 408 q 557 444 519 425 q 626 501 596 464 q 669 581 657 538 q 676 701 685 638 q 636 813 668 764 q 579 869 615 846 q 448 912 518 908 q 317 888 378 915 q 217 804 257 861 q 178 664 178 747 q 189 584 179 624 q 219 511 199 544 q 288 444 243 471 q 337 424 311 431 q 390 414 363 417 m 403 494 q 378 475 394 482 q 343 467 361 468 q 309 472 325 467 q 286 489 293 476 q 279 512 282 496 q 276 545 276 528 q 275 579 275 563 q 275 604 275 596 q 276 653 276 621 q 278 720 276 685 q 285 786 281 756 q 297 831 289 817 q 312 842 301 836 q 335 851 322 847 q 360 858 347 856 q 381 863 372 861 q 438 870 408 868 q 494 864 467 872 q 543 833 524 854 q 569 785 563 811 q 572 731 576 760 q 547 678 567 703 q 522 651 535 661 q 503 631 508 640 q 504 613 499 622 q 535 592 510 604 q 545 587 540 589 q 554 582 550 585 q 582 561 572 574 q 590 535 589 550 q 585 510 590 521 q 544 481 574 483 q 497 490 518 478 q 461 520 476 501 q 434 563 446 539 q 413 607 422 586 q 412 608 413 608 q 411 610 411 608 q 406 609 408 610 q 401 608 404 608 q 401 585 399 601 q 404 550 403 568 q 406 516 406 532 q 403 494 407 500 m 403 722 q 428 724 415 721 q 449 734 442 728 q 456 748 456 740 q 443 760 456 756 q 419 763 433 763 q 399 754 406 763 q 391 734 392 744 q 403 722 390 724 z "},"":{"ha":489,"x_min":26,"x_max":471,"o":"m 406 771 q 367 758 388 761 q 325 754 346 754 q 193 758 257 754 q 147 763 169 761 q 101 769 124 764 q 73 780 86 774 q 50 797 60 786 q 32 831 38 813 q 28 869 26 850 q 40 904 31 888 q 65 932 50 921 q 94 942 79 939 q 124 947 108 946 q 194 949 160 950 q 265 947 229 949 q 336 947 301 947 q 404 938 371 946 q 433 924 419 933 q 454 901 447 915 q 456 827 471 865 q 406 771 442 789 z "},"":{"ha":371,"x_min":28,"x_max":346,"o":"m 233 725 q 167 720 201 717 q 103 738 132 724 q 53 777 74 753 q 31 835 32 801 q 51 919 28 882 q 110 975 74 956 q 192 994 147 994 q 278 968 238 994 q 331 906 317 943 q 339 833 346 869 q 305 766 332 796 q 233 725 278 736 m 196 896 q 172 888 181 897 q 160 868 163 879 q 166 848 158 857 q 194 842 174 839 q 218 851 210 843 q 227 869 226 860 q 220 887 228 879 q 196 896 213 894 z "},"":{"ha":756,"x_min":36,"x_max":719,"o":"m 431 354 q 391 349 414 350 q 345 353 368 349 q 303 365 322 357 q 274 389 283 374 q 260 419 264 403 q 257 453 257 436 q 257 483 257 468 q 258 513 257 497 q 259 516 258 515 q 260 518 260 517 q 239 514 249 515 q 218 511 229 513 q 164 511 192 508 q 117 533 136 514 q 94 574 100 550 q 85 621 88 597 q 85 675 82 647 q 104 722 88 703 q 147 751 121 742 q 200 763 174 760 q 223 761 207 763 q 258 757 239 760 q 256 780 257 768 q 256 803 256 792 q 269 864 253 838 q 321 903 286 892 q 359 910 336 908 q 405 909 382 911 q 449 900 428 907 q 482 882 469 893 q 499 856 493 871 q 507 826 504 842 q 507 804 507 819 q 506 771 507 789 q 531 770 518 771 q 557 768 543 769 q 588 763 572 765 q 618 753 603 760 q 645 728 633 744 q 663 693 657 713 q 671 653 669 674 q 668 615 672 632 q 629 561 658 581 q 589 547 610 550 q 546 542 568 543 q 523 540 535 540 q 500 539 511 540 q 505 489 503 514 q 504 439 507 464 q 499 410 503 424 q 485 385 494 396 q 431 354 463 361 m 396 -12 q 299 -15 347 -14 q 201 -14 250 -17 q 163 -12 182 -14 q 125 -7 144 -11 q 98 1 111 -4 q 75 14 85 7 q 60 30 69 18 q 47 47 50 42 q 40 111 36 78 q 60 174 43 144 q 101 214 74 197 q 161 239 129 231 q 192 244 176 243 q 224 247 208 244 q 306 255 264 253 q 388 254 347 257 q 445 253 415 253 q 503 250 475 253 q 567 248 535 247 q 628 239 599 249 q 652 231 640 235 q 674 219 664 226 q 685 208 681 215 q 711 160 704 186 q 718 108 718 135 q 719 80 719 94 q 711 51 718 65 q 693 30 704 40 q 667 14 682 19 q 617 0 643 4 q 565 -7 592 -4 q 481 -12 524 -11 q 396 -12 439 -12 z "},"":{"ha":647,"x_min":36,"x_max":604,"o":"m 486 403 q 386 388 443 392 q 272 388 329 383 q 165 408 215 393 q 88 450 115 422 q 60 499 65 471 q 62 557 54 528 q 88 614 69 586 q 131 661 106 642 q 182 692 153 679 q 241 718 211 706 q 299 745 271 731 q 349 779 328 760 q 368 819 369 799 q 353 854 367 840 q 319 869 339 868 q 282 849 299 869 q 272 825 274 838 q 269 800 271 813 q 265 776 268 788 q 251 754 261 764 q 202 731 232 738 q 142 730 172 725 q 88 749 113 735 q 53 785 63 763 q 46 856 36 818 q 75 926 56 894 q 136 993 99 965 q 218 1037 174 1021 q 311 1056 263 1053 q 406 1050 360 1060 q 493 1017 453 1040 q 561 957 533 994 q 594 875 589 919 q 585 788 600 831 q 536 708 569 744 q 454 650 503 672 q 415 634 435 642 q 383 613 396 626 q 378 592 368 597 q 411 588 389 588 q 463 592 433 589 q 515 597 492 594 q 567 585 547 599 q 596 551 588 572 q 601 503 604 529 q 582 457 597 478 q 540 424 567 438 q 486 403 514 410 z "},"":{"ha":703,"x_min":40,"x_max":663,"o":"m 525 340 q 430 313 481 321 q 327 306 379 304 q 223 317 275 307 q 125 343 171 326 q 60 393 81 358 q 43 463 40 428 q 72 528 46 499 q 146 563 97 557 q 196 560 171 565 q 246 550 221 556 q 296 541 271 544 q 346 542 321 538 q 374 552 361 544 q 392 570 386 560 q 399 592 399 581 q 389 613 399 603 q 371 619 385 617 q 340 624 357 622 q 309 628 324 626 q 288 632 294 629 q 246 658 261 640 q 228 696 231 675 q 237 737 226 717 q 271 769 247 757 q 326 790 296 783 q 379 813 356 797 q 398 838 396 822 q 392 865 400 853 q 367 884 383 878 q 333 882 351 890 q 324 873 329 879 q 312 859 318 867 q 300 844 306 851 q 292 835 294 838 q 241 797 271 810 q 179 783 211 783 q 117 793 147 782 q 68 829 88 804 q 53 869 54 847 q 61 913 53 890 q 84 956 69 935 q 117 992 99 976 q 252 1058 179 1043 q 394 1061 325 1074 q 518 1015 463 1049 q 601 933 574 981 q 620 830 629 885 q 551 721 611 775 q 635 627 608 681 q 660 519 663 574 q 624 417 657 465 q 525 340 590 369 z "},"":{"ha":314,"x_min":28,"x_max":297,"o":"m 126 756 q 64 764 93 746 q 31 819 35 782 q 38 874 28 846 q 64 929 47 903 q 102 977 81 956 q 146 1010 124 999 q 213 1017 178 1025 q 271 982 247 1010 q 278 908 297 949 q 254 876 268 890 q 228 847 240 863 q 210 824 218 836 q 192 800 201 811 q 162 773 178 785 q 126 756 146 761 z "},"":{"ha":918,"x_min":25,"x_max":857,"o":"m 763 -42 q 701 -54 733 -53 q 642 -44 669 -56 q 593 -6 613 -32 q 579 24 583 8 q 572 56 575 40 q 567 101 568 79 q 567 146 567 124 q 566 323 565 235 q 565 499 567 411 q 565 608 565 554 q 572 718 565 663 q 538 717 554 718 q 504 714 521 717 q 504 624 506 669 q 501 533 503 578 q 497 403 499 468 q 494 274 496 339 q 494 209 494 250 q 489 124 493 168 q 477 42 485 81 q 456 -14 469 4 q 419 -36 442 -29 q 359 -47 392 -46 q 299 -37 326 -49 q 250 0 271 -28 q 236 30 240 14 q 229 63 232 46 q 225 107 226 85 q 224 153 224 129 q 223 328 222 240 q 222 504 224 417 l 222 515 q 149 546 182 524 q 85 604 113 569 q 43 679 58 639 q 27 758 29 717 q 36 838 25 800 q 92 935 51 890 q 185 1000 133 979 q 296 1022 238 1021 q 411 1024 354 1024 q 543 1022 478 1022 q 674 1019 608 1022 q 738 1012 706 1017 q 799 992 771 1007 q 821 977 810 985 q 839 958 832 969 q 853 921 850 942 q 857 879 857 900 q 856 844 857 861 q 853 810 856 826 q 843 792 850 799 q 846 758 846 775 q 847 735 846 742 q 847 631 849 682 q 844 528 846 579 q 840 398 842 463 q 838 268 839 333 q 836 203 838 244 q 831 119 835 163 q 819 36 828 75 q 797 -19 811 -3 q 763 -42 786 -35 z "},"":{"ha":251,"x_min":21,"x_max":229,"o":"m 221 432 q 216 363 229 392 q 178 318 203 333 q 124 301 154 303 q 70 315 94 300 q 33 359 46 329 q 32 436 21 389 q 68 484 40 468 q 127 499 96 500 q 186 481 158 497 q 221 432 214 464 z "},"":{"ha":343,"x_min":13,"x_max":329,"o":"m 150 -283 q 110 -281 131 -283 q 71 -272 90 -279 q 49 -260 60 -267 q 31 -243 38 -254 q 15 -201 17 -224 q 21 -160 13 -179 q 46 -131 29 -142 q 86 -122 63 -119 q 108 -125 94 -122 q 134 -129 121 -128 q 160 -131 147 -131 q 178 -126 172 -131 q 176 -122 182 -124 q 165 -118 171 -119 q 140 -115 153 -115 q 114 -111 126 -115 q 86 -92 94 -107 q 78 -68 79 -81 q 79 -43 78 -56 l 79 -26 q 81 5 79 -11 q 86 36 82 21 q 122 77 93 67 q 179 75 151 88 q 208 31 211 63 q 206 10 208 24 q 206 -7 203 -3 q 215 -15 207 -11 q 231 -21 222 -18 q 247 -27 239 -24 q 258 -32 254 -31 q 293 -56 276 -43 q 319 -89 310 -69 q 328 -128 329 -107 q 321 -168 328 -149 q 294 -220 311 -196 q 253 -260 276 -244 q 203 -279 229 -275 q 150 -283 176 -283 z "},"":{"ha":529,"x_min":25,"x_max":486,"o":"m 322 392 q 249 407 285 390 q 196 451 213 424 q 176 506 181 476 q 172 564 172 536 q 174 656 171 610 q 182 747 178 701 q 135 747 158 744 q 92 757 113 750 q 60 772 75 763 q 39 793 46 781 q 28 844 25 817 q 48 898 31 872 q 89 944 65 924 q 210 1028 143 992 q 276 1049 240 1044 q 343 1046 311 1053 q 401 1021 375 1039 q 438 974 426 1003 q 447 933 444 954 q 449 890 449 911 q 446 777 447 833 q 451 664 444 721 q 465 597 457 631 q 479 531 472 564 q 485 496 483 514 q 479 463 486 478 q 443 422 471 439 q 410 407 428 413 q 374 399 393 401 q 348 394 361 396 q 322 392 335 393 z "},"":{"ha":724,"x_min":40,"x_max":692,"o":"m 181 136 q 112 129 144 119 q 60 163 79 139 q 40 217 40 186 q 69 275 40 247 q 113 312 88 292 q 159 353 139 332 q 188 395 179 374 q 185 439 197 417 q 153 481 171 461 q 118 522 136 501 q 83 562 100 542 q 54 606 67 582 q 50 656 42 631 q 78 697 58 681 q 126 718 99 714 q 179 707 154 722 q 251 648 214 686 q 319 565 289 610 q 367 474 350 521 q 379 388 385 426 q 353 319 375 357 q 303 244 332 281 q 241 178 274 207 q 181 136 208 149 m 488 135 q 419 129 451 119 q 367 162 386 139 q 347 216 347 185 q 375 274 346 247 q 420 311 394 292 q 466 352 446 331 q 495 395 486 374 q 492 439 504 417 q 460 481 478 461 q 425 521 443 501 q 390 560 407 540 q 361 604 374 581 q 357 656 349 631 q 385 697 365 681 q 433 718 406 714 q 486 707 461 722 q 558 648 521 686 q 626 565 596 610 q 674 474 657 521 q 686 386 692 426 q 660 317 681 356 q 610 242 639 279 q 548 176 581 206 q 488 135 515 147 z "},"":{"ha":1656,"x_min":13,"x_max":1633,"o":"m 714 7 q 649 -10 685 -10 q 590 -6 619 -10 q 532 11 560 -1 q 491 35 510 21 q 457 68 472 50 q 433 113 442 88 q 428 164 425 139 q 463 319 439 243 q 521 467 488 394 l 521 469 q 522 471 521 471 q 577 636 549 554 q 642 797 606 718 q 712 940 674 871 q 801 1071 750 1010 q 846 1105 819 1090 q 899 1114 872 1119 q 969 1095 935 1107 q 1031 1061 1003 1083 q 1067 1027 1050 1046 q 1093 985 1085 1008 q 1100 922 1103 954 q 1089 858 1097 889 q 1048 740 1074 797 q 996 625 1022 683 q 896 383 939 506 q 843 236 868 310 q 782 92 818 163 q 753 45 769 68 q 714 7 738 22 m 308 419 q 235 434 271 417 q 182 479 199 451 q 163 534 167 504 q 158 592 158 564 q 160 683 157 638 q 168 775 164 729 q 122 775 144 772 q 78 785 99 778 q 47 799 61 790 q 25 821 32 808 q 15 846 18 832 q 14 872 13 860 q 34 926 17 900 q 75 972 51 951 q 196 1056 129 1019 q 262 1076 226 1072 q 329 1073 297 1081 q 387 1047 361 1065 q 424 1001 413 1029 q 433 960 431 982 q 435 918 435 939 q 432 805 433 861 q 438 692 431 749 q 451 625 443 658 q 465 558 458 592 q 471 524 469 542 q 465 489 472 506 q 429 450 457 467 q 397 435 414 440 q 360 425 379 429 q 334 422 347 422 q 308 419 321 421 m 1435 -8 q 1358 -15 1399 -17 q 1286 6 1317 -12 q 1260 29 1271 13 q 1250 53 1253 40 q 1246 81 1247 67 q 1246 119 1244 100 q 1249 158 1247 139 q 1249 172 1249 165 q 1247 186 1249 179 q 1193 181 1219 185 q 1139 179 1167 178 q 1103 183 1121 181 q 1068 192 1085 185 q 1028 218 1047 201 q 992 294 996 250 l 992 306 q 986 342 988 324 q 985 378 985 360 q 990 438 986 408 q 996 500 993 468 q 1011 561 999 531 q 1047 615 1024 592 q 1100 647 1068 636 q 1149 651 1124 654 q 1197 642 1174 649 q 1223 628 1211 636 q 1242 608 1235 619 q 1246 581 1249 599 q 1236 546 1243 564 q 1233 529 1236 540 q 1226 497 1231 513 q 1215 464 1221 481 q 1208 438 1211 451 q 1206 410 1204 424 q 1214 381 1206 393 q 1232 373 1218 375 q 1253 371 1246 371 q 1276 371 1264 371 q 1299 374 1288 371 q 1307 376 1301 375 q 1315 379 1313 378 q 1324 396 1322 382 q 1328 417 1326 410 q 1332 486 1332 451 q 1332 543 1332 514 q 1347 596 1332 572 q 1363 616 1354 607 q 1382 631 1371 625 q 1406 636 1393 635 q 1429 636 1418 638 q 1478 628 1453 635 q 1518 606 1503 621 q 1534 579 1529 594 q 1540 549 1539 564 q 1533 481 1542 515 q 1514 414 1525 447 q 1510 403 1511 408 q 1507 393 1510 399 q 1524 390 1515 392 q 1542 386 1532 388 q 1558 381 1546 385 q 1574 376 1571 378 q 1598 364 1586 369 q 1619 350 1610 358 q 1631 330 1629 342 q 1632 307 1633 318 q 1626 269 1632 288 q 1608 236 1621 251 q 1567 204 1594 215 q 1540 197 1554 199 q 1510 196 1525 196 l 1501 196 q 1519 97 1519 144 q 1517 64 1519 81 q 1504 32 1515 47 q 1474 6 1493 17 q 1435 -8 1456 -4 z "},"":{"ha":1567,"x_min":13,"x_max":1531,"o":"m 714 7 q 649 -10 685 -10 q 590 -6 619 -10 q 532 11 560 -1 q 491 35 510 21 q 457 68 472 50 q 433 113 442 88 q 428 164 425 139 q 463 319 439 243 q 521 467 488 394 l 521 469 q 522 471 521 471 q 577 636 549 554 q 642 797 606 718 q 712 940 674 871 q 801 1071 750 1010 q 846 1105 819 1090 q 899 1114 872 1119 q 969 1095 935 1107 q 1031 1061 1003 1083 q 1067 1027 1050 1046 q 1093 985 1085 1008 q 1100 922 1103 954 q 1089 858 1097 889 q 1048 740 1074 797 q 996 625 1022 683 q 896 383 939 506 q 843 236 868 310 q 782 92 818 163 q 753 45 769 68 q 714 7 738 22 m 308 419 q 235 434 271 417 q 182 479 199 451 q 163 534 167 504 q 158 592 158 564 q 160 683 157 638 q 168 775 164 729 q 122 775 144 772 q 78 785 99 778 q 47 799 61 790 q 25 821 32 808 q 15 846 18 832 q 14 872 13 860 q 34 926 17 900 q 75 972 51 951 q 196 1056 129 1019 q 262 1076 226 1072 q 329 1073 297 1081 q 387 1047 361 1065 q 424 1001 413 1029 q 433 960 431 982 q 435 918 435 939 q 432 805 433 861 q 438 692 431 749 q 451 625 443 658 q 465 558 458 592 q 471 524 469 542 q 465 489 472 506 q 429 450 457 467 q 397 435 414 440 q 360 425 379 429 q 334 422 347 422 q 308 419 321 421 m 1411 3 q 1311 -12 1368 -8 q 1197 -12 1254 -17 q 1090 8 1140 -7 q 1013 50 1040 22 q 985 99 990 71 q 987 157 979 128 q 1013 213 994 186 q 1056 260 1031 240 q 1108 292 1079 278 q 1167 318 1138 306 q 1224 344 1196 331 q 1274 378 1253 358 q 1294 419 1294 397 q 1279 453 1293 440 q 1245 468 1265 467 q 1208 447 1225 469 q 1198 424 1200 436 q 1194 399 1196 411 q 1190 374 1193 386 q 1176 354 1186 363 q 1127 331 1157 336 q 1067 329 1097 325 q 1013 347 1038 333 q 978 383 988 361 q 972 456 963 418 q 1001 526 982 493 q 1101 617 1036 585 q 1237 655 1165 650 q 1376 635 1308 660 q 1488 556 1444 611 q 1520 474 1515 518 q 1510 388 1525 431 q 1463 308 1496 344 q 1381 250 1429 272 q 1342 233 1361 240 q 1308 213 1322 225 q 1303 192 1293 197 q 1337 188 1314 188 q 1389 191 1360 188 q 1442 196 1418 194 q 1493 185 1472 199 q 1522 149 1514 171 q 1527 103 1531 128 q 1507 57 1524 78 q 1465 24 1492 38 q 1411 3 1439 10 z "},"":{"ha":1849,"x_min":38,"x_max":1826,"o":"m 907 7 q 842 -10 878 -10 q 783 -6 813 -10 q 725 11 753 -1 q 684 35 703 21 q 650 68 665 50 q 626 113 635 88 q 621 164 618 139 q 656 319 632 243 q 714 467 681 394 l 714 469 q 715 471 714 471 q 770 636 742 554 q 835 797 799 718 q 905 940 867 871 q 996 1071 943 1010 q 1039 1105 1013 1090 q 1092 1114 1065 1119 q 1162 1095 1128 1107 q 1224 1061 1196 1083 q 1260 1027 1243 1046 q 1286 985 1278 1008 q 1293 922 1296 954 q 1282 858 1290 889 q 1241 740 1267 797 q 1189 625 1215 683 q 1089 383 1132 506 q 1036 236 1061 310 q 975 92 1011 163 q 947 45 963 68 q 907 7 931 22 m 522 300 q 427 272 478 281 q 324 265 376 264 q 220 276 272 267 q 122 303 168 286 q 58 353 78 318 q 40 424 38 388 q 69 489 43 460 q 143 522 94 518 q 193 520 168 525 q 243 510 218 515 q 293 501 268 504 q 343 501 318 497 q 390 530 374 507 q 386 572 406 553 q 368 579 382 576 q 338 584 354 582 q 306 588 321 586 q 285 592 292 589 q 243 617 258 600 q 226 656 228 635 q 234 697 224 676 q 268 729 244 717 q 323 750 293 743 q 376 772 353 757 q 395 798 393 782 q 389 826 397 814 q 365 844 381 839 q 331 842 349 850 q 321 833 326 839 q 309 819 315 826 q 297 806 303 813 q 289 796 292 799 q 238 757 268 771 q 176 742 208 743 q 115 753 144 742 q 65 789 85 764 q 51 828 51 807 q 58 872 50 850 q 81 915 67 894 q 114 951 96 936 q 249 1018 176 1003 q 391 1021 322 1033 q 515 974 460 1008 q 599 892 571 940 q 617 790 626 844 q 549 681 608 735 q 633 587 606 640 q 657 479 660 533 q 621 377 654 425 q 522 300 588 329 m 1628 -8 q 1551 -15 1592 -17 q 1479 6 1511 -12 q 1453 29 1464 13 q 1443 53 1446 40 q 1439 81 1440 67 q 1439 119 1438 100 q 1442 158 1440 139 q 1442 172 1442 165 q 1440 186 1442 179 q 1386 181 1413 185 q 1333 179 1360 178 q 1296 183 1314 181 q 1261 192 1278 185 q 1221 218 1240 201 q 1185 294 1189 250 l 1185 306 q 1179 342 1181 324 q 1178 378 1178 360 q 1183 438 1179 408 q 1189 500 1186 468 q 1204 561 1192 531 q 1240 615 1217 592 q 1293 647 1261 636 q 1342 651 1317 654 q 1390 642 1367 649 q 1416 628 1404 636 q 1435 608 1428 619 q 1439 581 1442 599 q 1429 546 1436 564 q 1426 529 1429 540 q 1419 497 1424 513 q 1408 464 1414 481 q 1401 438 1404 451 q 1399 410 1397 424 q 1407 381 1399 393 q 1425 373 1411 375 q 1446 371 1439 371 q 1469 371 1457 371 q 1492 374 1481 371 q 1500 376 1494 375 q 1508 379 1506 378 q 1517 396 1515 382 q 1521 417 1519 410 q 1525 486 1525 451 q 1525 543 1525 514 q 1540 596 1525 572 q 1556 616 1547 607 q 1575 631 1564 625 q 1599 636 1586 635 q 1622 636 1611 638 q 1671 628 1646 635 q 1711 606 1696 621 q 1727 579 1722 594 q 1733 549 1732 564 q 1726 481 1735 515 q 1707 414 1718 447 q 1703 403 1704 408 q 1700 393 1703 399 q 1717 390 1708 392 q 1735 386 1725 388 q 1751 381 1739 385 q 1767 376 1764 378 q 1791 364 1779 369 q 1813 350 1803 358 q 1824 330 1822 342 q 1825 307 1826 318 q 1819 269 1825 288 q 1801 236 1814 251 q 1760 204 1788 215 q 1733 197 1747 199 q 1703 196 1718 196 l 1694 196 q 1713 97 1713 144 q 1710 64 1713 81 q 1697 32 1708 47 q 1667 6 1686 17 q 1628 -8 1649 -4 z "},"":{"ha":754,"x_min":-11,"x_max":740,"o":"m 535 593 q 476 562 510 572 q 406 551 442 551 q 334 560 369 551 q 272 588 299 569 q 241 626 249 604 q 237 672 233 649 q 254 719 240 696 q 290 760 268 743 q 375 801 331 792 q 460 801 419 810 q 532 772 500 793 q 578 722 564 751 q 583 659 592 693 q 535 593 574 625 m 563 -235 q 418 -269 493 -262 q 274 -265 343 -276 q 146 -225 204 -254 q 49 -152 88 -196 q 0 -49 11 -108 q 14 81 -11 10 q 86 183 35 140 q 193 257 138 226 q 226 288 214 268 q 248 331 239 308 q 265 379 257 354 q 283 425 272 404 q 320 460 294 447 q 376 474 346 472 q 436 468 407 476 q 483 442 465 460 q 514 382 506 418 q 519 307 522 346 q 503 230 515 268 q 472 164 490 192 q 438 124 458 142 q 398 90 418 107 q 359 54 378 72 q 331 13 340 36 q 326 -29 319 -10 q 350 -60 333 -49 q 390 -73 367 -71 q 435 -64 413 -75 q 457 -37 451 -56 q 464 2 463 -19 q 465 46 465 24 q 471 88 464 68 q 510 142 481 118 q 576 176 540 165 q 648 181 613 186 q 704 150 683 176 q 736 33 732 92 q 722 -77 740 -25 q 663 -170 703 -129 q 563 -235 622 -211 z "},"":{"ha":1088,"x_min":39,"x_max":1044,"o":"m 636 1189 q 603 1133 632 1151 q 540 1124 574 1114 q 505 1141 521 1129 q 475 1168 489 1153 q 457 1192 465 1179 q 439 1215 449 1204 q 413 1245 426 1231 q 389 1278 399 1260 q 396 1351 369 1318 q 454 1387 419 1379 q 521 1379 489 1394 q 565 1347 543 1368 q 603 1299 586 1325 q 628 1243 619 1272 q 636 1189 638 1214 m 950 -65 q 870 -103 921 -90 q 769 -112 819 -115 q 676 -92 718 -110 q 624 -39 635 -74 q 613 35 614 -11 q 615 139 613 81 l 614 139 q 579 141 603 140 q 528 141 556 142 q 476 139 501 140 q 435 133 450 138 q 440 46 439 85 q 433 -17 440 7 q 383 -76 425 -53 q 288 -106 340 -99 q 185 -105 236 -114 q 106 -68 133 -96 q 69 4 82 -46 q 49 110 56 54 q 40 221 42 167 q 39 306 39 275 q 48 457 40 379 q 75 610 56 535 q 129 753 94 685 q 219 878 164 822 q 349 975 275 932 q 505 1040 424 1018 q 666 1055 586 1061 q 811 1004 746 1049 q 929 881 885 954 q 998 724 974 808 q 1031 549 1022 639 q 1043 376 1040 460 q 1042 274 1044 338 q 1029 143 1039 210 q 1000 19 1019 76 q 950 -65 981 -39 m 458 386 q 585 397 526 378 q 635 421 607 404 q 628 577 638 508 q 588 674 619 646 q 555 690 574 685 q 516 695 536 696 q 477 688 496 694 q 446 669 458 682 q 420 627 429 654 q 408 565 411 600 q 405 487 404 529 q 408 399 406 444 q 435 391 418 394 q 458 386 451 388 z "},"":{"ha":1088,"x_min":39,"x_max":1044,"o":"m 544 1142 q 481 1150 511 1132 q 449 1206 451 1168 q 456 1261 446 1232 q 482 1317 465 1290 q 520 1365 499 1343 q 564 1397 542 1386 q 630 1404 594 1413 q 688 1368 665 1396 q 702 1334 700 1353 q 694 1296 704 1315 q 672 1263 686 1276 q 646 1233 658 1249 q 627 1210 635 1222 q 608 1186 619 1197 q 580 1159 596 1171 q 544 1142 564 1147 m 950 -65 q 870 -103 921 -90 q 769 -112 819 -115 q 676 -92 718 -110 q 624 -39 635 -74 q 613 35 614 -11 q 615 139 613 81 l 614 139 q 579 141 603 140 q 528 141 556 142 q 476 139 501 140 q 435 133 450 138 q 440 46 439 85 q 433 -17 440 7 q 383 -76 425 -53 q 288 -106 340 -99 q 185 -105 236 -114 q 106 -68 133 -96 q 69 4 82 -46 q 49 110 56 54 q 40 221 42 167 q 39 306 39 275 q 48 457 40 379 q 75 610 56 535 q 129 753 94 685 q 219 878 164 822 q 349 975 275 932 q 505 1040 424 1018 q 666 1055 586 1061 q 811 1004 746 1049 q 929 881 885 954 q 998 724 974 808 q 1031 549 1022 639 q 1043 376 1040 460 q 1042 274 1044 338 q 1029 143 1039 210 q 1000 19 1019 76 q 950 -65 981 -39 m 458 386 q 585 397 526 378 q 635 421 607 404 q 628 577 638 508 q 588 674 619 646 q 555 690 574 685 q 516 695 536 696 q 477 688 496 694 q 446 669 458 682 q 420 627 429 654 q 408 565 411 600 q 405 487 404 529 q 408 399 406 444 q 435 391 418 394 q 458 386 451 388 z "},"":{"ha":1088,"x_min":39,"x_max":1044,"o":"m 447 1117 q 418 1111 433 1113 q 390 1113 403 1110 q 367 1123 376 1115 q 354 1146 357 1131 q 360 1183 350 1163 q 385 1225 369 1204 q 417 1265 400 1246 q 447 1296 435 1283 q 467 1313 457 1306 q 488 1331 478 1321 q 519 1356 503 1344 q 554 1375 535 1368 q 580 1379 565 1379 q 606 1372 594 1379 q 636 1350 622 1364 q 663 1322 650 1336 q 691 1292 674 1311 q 724 1253 708 1274 q 749 1211 739 1232 q 757 1174 758 1190 q 743 1144 754 1158 q 694 1122 724 1125 q 642 1132 665 1118 q 625 1142 636 1135 q 601 1156 614 1149 q 578 1168 589 1163 q 561 1174 567 1174 q 532 1163 550 1175 q 506 1144 514 1150 q 477 1128 492 1136 q 447 1117 463 1121 m 950 -65 q 870 -103 921 -90 q 769 -112 819 -115 q 676 -92 718 -110 q 624 -39 635 -74 q 613 35 614 -11 q 615 139 613 81 l 614 139 q 579 141 603 140 q 528 141 556 142 q 476 139 501 140 q 435 133 450 138 q 440 46 439 85 q 433 -17 440 7 q 383 -76 425 -53 q 288 -106 340 -99 q 185 -105 236 -114 q 106 -68 133 -96 q 69 4 82 -46 q 49 110 56 54 q 40 221 42 167 q 39 306 39 275 q 48 457 40 379 q 75 610 56 535 q 129 753 94 685 q 219 878 164 822 q 349 975 275 932 q 505 1040 424 1018 q 666 1055 586 1061 q 811 1004 746 1049 q 929 881 885 954 q 998 724 974 808 q 1031 549 1022 639 q 1043 376 1040 460 q 1042 274 1044 338 q 1029 143 1039 210 q 1000 19 1019 76 q 950 -65 981 -39 m 458 386 q 585 397 526 378 q 635 421 607 404 q 628 577 638 508 q 588 674 619 646 q 555 690 574 685 q 516 695 536 696 q 477 688 496 694 q 446 669 458 682 q 420 627 429 654 q 408 565 411 600 q 405 487 404 529 q 408 399 406 444 q 435 391 418 394 q 458 386 451 388 z "},"":{"ha":1088,"x_min":39,"x_max":1044,"o":"m 690 1132 q 631 1114 664 1111 q 602 1121 615 1115 q 578 1135 589 1126 q 556 1152 567 1143 q 531 1167 544 1161 q 521 1169 528 1169 q 515 1163 518 1168 q 510 1154 511 1157 q 482 1128 497 1135 q 446 1123 464 1119 q 415 1138 428 1126 q 394 1165 401 1149 q 392 1201 388 1182 q 404 1234 394 1215 q 426 1269 414 1253 q 453 1299 439 1286 q 483 1317 468 1313 q 517 1317 499 1322 q 550 1300 535 1311 q 582 1276 567 1289 q 617 1257 597 1263 q 623 1260 619 1256 q 629 1267 626 1264 q 644 1284 636 1275 q 658 1301 651 1293 q 688 1318 671 1315 q 721 1315 706 1321 q 747 1294 736 1308 q 757 1263 757 1281 q 751 1228 757 1244 q 739 1194 746 1211 q 719 1159 732 1175 q 690 1132 707 1143 m 950 -65 q 870 -103 921 -90 q 769 -112 819 -115 q 676 -92 718 -110 q 624 -39 635 -74 q 613 35 614 -11 q 615 139 613 81 l 614 139 q 579 141 603 140 q 528 141 556 142 q 476 139 501 140 q 435 133 450 138 q 440 46 439 85 q 433 -17 440 7 q 383 -76 425 -53 q 288 -106 340 -99 q 185 -105 236 -114 q 106 -68 133 -96 q 69 4 82 -46 q 49 110 56 54 q 40 221 42 167 q 39 306 39 275 q 48 457 40 379 q 75 610 56 535 q 129 753 94 685 q 219 878 164 822 q 349 975 275 932 q 505 1040 424 1018 q 666 1055 586 1061 q 811 1004 746 1049 q 929 881 885 954 q 998 724 974 808 q 1031 549 1022 639 q 1043 376 1040 460 q 1042 274 1044 338 q 1029 143 1039 210 q 1000 19 1019 76 q 950 -65 981 -39 m 458 386 q 585 397 526 378 q 635 421 607 404 q 628 577 638 508 q 588 674 619 646 q 555 690 574 685 q 516 695 536 696 q 477 688 496 694 q 446 669 458 682 q 420 627 429 654 q 408 565 411 600 q 405 487 404 529 q 408 399 406 444 q 435 391 418 394 q 458 386 451 388 z "},"":{"ha":1088,"x_min":39,"x_max":1044,"o":"m 683 1288 q 731 1243 719 1272 q 735 1187 743 1214 q 699 1142 726 1160 q 631 1132 672 1125 q 588 1153 603 1136 q 570 1190 574 1169 q 573 1233 567 1211 q 594 1272 579 1256 q 633 1293 610 1288 q 683 1288 656 1299 m 479 1285 q 527 1240 515 1269 q 531 1184 539 1211 q 495 1140 522 1157 q 426 1129 468 1122 q 384 1150 399 1133 q 366 1188 369 1167 q 369 1231 363 1208 q 390 1269 375 1253 q 428 1290 406 1285 q 479 1285 451 1296 m 950 -65 q 870 -103 921 -90 q 769 -112 819 -115 q 676 -92 718 -110 q 624 -39 635 -74 q 613 35 614 -11 q 615 139 613 81 l 614 139 q 579 141 603 140 q 528 141 556 142 q 476 139 501 140 q 435 133 450 138 q 440 46 439 85 q 433 -17 440 7 q 383 -76 425 -53 q 288 -106 340 -99 q 185 -105 236 -114 q 106 -68 133 -96 q 69 4 82 -46 q 49 110 56 54 q 40 221 42 167 q 39 306 39 275 q 48 457 40 379 q 75 610 56 535 q 129 753 94 685 q 219 878 164 822 q 349 975 275 932 q 505 1040 424 1018 q 666 1055 586 1061 q 811 1004 746 1049 q 929 881 885 954 q 998 724 974 808 q 1031 549 1022 639 q 1043 376 1040 460 q 1042 274 1044 338 q 1029 143 1039 210 q 1000 19 1019 76 q 950 -65 981 -39 m 458 386 q 585 397 526 378 q 635 421 607 404 q 628 577 638 508 q 588 674 619 646 q 555 690 574 685 q 516 695 536 696 q 477 688 496 694 q 446 669 458 682 q 420 627 429 654 q 408 565 411 600 q 405 487 404 529 q 408 399 406 444 q 435 391 418 394 q 458 386 451 388 z "},"":{"ha":1088,"x_min":39,"x_max":1044,"o":"m 596 1093 q 529 1089 564 1085 q 465 1107 494 1093 q 415 1146 436 1121 q 393 1204 394 1171 q 413 1288 390 1251 q 473 1344 436 1325 q 555 1364 510 1364 q 640 1338 600 1364 q 694 1276 679 1313 q 701 1202 708 1239 q 667 1135 694 1165 q 596 1093 640 1104 m 558 1264 q 534 1256 543 1265 q 523 1237 525 1247 q 528 1217 521 1226 q 557 1210 536 1208 q 581 1219 572 1211 q 590 1238 589 1228 q 583 1255 590 1247 q 558 1264 575 1263 m 950 -65 q 870 -103 921 -90 q 769 -112 819 -115 q 676 -92 718 -110 q 624 -39 635 -74 q 613 35 614 -11 q 615 139 613 81 l 614 139 q 579 141 603 140 q 528 141 556 142 q 476 139 501 140 q 435 133 450 138 q 440 46 439 85 q 433 -17 440 7 q 383 -76 425 -53 q 288 -106 340 -99 q 185 -105 236 -114 q 106 -68 133 -96 q 69 4 82 -46 q 49 110 56 54 q 40 221 42 167 q 39 306 39 275 q 48 457 40 379 q 75 610 56 535 q 129 753 94 685 q 219 878 164 822 q 349 975 275 932 q 505 1040 424 1018 q 666 1055 586 1061 q 811 1004 746 1049 q 929 881 885 954 q 998 724 974 808 q 1031 549 1022 639 q 1043 376 1040 460 q 1042 274 1044 338 q 1029 143 1039 210 q 1000 19 1019 76 q 950 -65 981 -39 m 458 386 q 585 397 526 378 q 635 421 607 404 q 628 577 638 508 q 588 674 619 646 q 555 690 574 685 q 516 695 536 696 q 477 688 496 694 q 446 669 458 682 q 420 627 429 654 q 408 565 411 600 q 405 487 404 529 q 408 399 406 444 q 435 391 418 394 q 458 386 451 388 z "},"":{"ha":1583,"x_min":42,"x_max":1564,"o":"m 1447 11 q 1314 -48 1393 -19 q 1151 -92 1235 -76 q 990 -103 1068 -107 q 860 -65 911 -100 q 788 -72 825 -72 q 717 -64 750 -72 q 659 -39 683 -56 q 626 3 635 -22 q 616 76 617 31 q 618 179 615 121 l 617 179 q 582 181 606 181 q 531 181 558 182 q 478 179 504 181 q 438 174 453 178 q 442 86 442 125 q 436 24 443 47 q 385 -35 428 -12 q 291 -66 343 -58 q 188 -65 239 -74 q 108 -28 136 -56 q 72 44 85 -6 q 51 151 58 94 q 43 262 44 208 q 42 346 42 315 q 51 497 43 419 q 78 650 58 575 q 132 794 97 725 q 222 918 167 863 q 352 1015 278 972 q 508 1080 426 1058 q 669 1095 589 1101 q 814 1046 749 1089 q 867 1001 843 1025 q 942 1038 894 1025 q 1043 1056 990 1050 q 1147 1061 1096 1061 q 1232 1061 1199 1061 q 1310 1057 1263 1060 q 1406 1045 1358 1054 q 1494 1021 1454 1036 q 1551 979 1535 1006 q 1563 940 1561 964 q 1559 888 1564 915 q 1546 835 1554 861 q 1529 793 1538 810 q 1465 738 1508 751 q 1370 726 1422 724 q 1263 742 1318 729 q 1163 767 1208 756 q 1106 775 1131 775 q 1075 743 1082 775 q 1071 724 1074 735 q 1066 703 1068 714 q 1065 685 1064 693 q 1072 675 1065 678 q 1131 666 1089 668 q 1219 662 1172 664 q 1306 656 1265 660 q 1361 642 1347 651 q 1384 590 1379 626 q 1383 515 1389 554 q 1360 442 1376 475 q 1322 400 1344 408 q 1271 394 1306 393 q 1197 399 1236 394 q 1124 408 1158 403 q 1071 418 1089 414 q 1066 371 1069 399 q 1063 316 1063 343 q 1068 267 1063 289 q 1092 239 1074 246 q 1127 240 1103 235 q 1182 254 1151 244 q 1247 276 1213 264 q 1311 299 1281 289 q 1366 315 1342 308 q 1403 319 1390 321 q 1481 272 1451 311 q 1518 182 1511 232 q 1508 84 1525 132 q 1447 11 1492 36 m 461 426 q 588 438 529 418 q 638 461 610 444 q 631 617 640 549 q 590 714 622 686 q 558 731 576 725 q 519 735 539 736 q 480 728 499 735 q 449 710 461 722 q 423 667 432 694 q 410 605 414 640 q 408 527 407 569 q 411 439 408 485 q 438 431 421 435 q 461 426 454 428 z "},"":{"ha":992,"x_min":33,"x_max":956,"o":"m 578 -268 q 530 -280 554 -276 q 482 -283 506 -283 q 442 -280 463 -283 q 401 -268 421 -276 q 374 -249 386 -261 q 357 -219 361 -236 q 357 -168 349 -194 q 390 -133 365 -142 q 433 -131 410 -126 q 476 -128 456 -135 q 453 -117 465 -121 q 432 -107 442 -114 q 421 -92 425 -101 q 415 -74 417 -83 q 417 -58 415 -67 q 421 -39 418 -49 q 334 -15 375 -31 q 260 24 293 0 q 133 162 183 76 q 58 347 82 247 q 35 550 33 446 q 64 743 36 654 q 168 933 97 853 q 332 1057 239 1013 q 533 1107 425 1101 q 749 1072 642 1113 q 810 1047 778 1061 q 869 1013 842 1032 q 917 969 896 993 q 946 914 938 944 q 947 828 956 874 q 916 741 939 782 q 859 669 893 700 q 785 628 825 638 q 712 633 747 619 q 640 665 676 646 q 567 703 604 685 q 492 721 531 721 q 441 701 463 721 q 407 651 419 682 q 392 585 394 621 q 396 515 389 549 q 420 453 403 481 q 465 413 438 425 q 528 412 483 404 q 622 431 572 419 q 715 454 671 443 q 781 464 760 465 q 866 438 831 461 q 922 378 901 414 q 949 299 943 343 q 947 209 956 254 q 915 122 939 164 q 854 47 892 79 q 716 -24 797 0 q 547 -50 635 -49 q 548 -54 547 -53 q 549 -57 549 -56 q 562 -68 551 -61 q 576 -78 572 -75 q 610 -99 593 -89 q 639 -126 628 -110 q 650 -155 649 -139 q 649 -186 651 -171 q 623 -235 643 -212 q 578 -268 603 -257 z "},"":{"ha":863,"x_min":54,"x_max":849,"o":"m 549 1276 q 515 1221 544 1239 q 453 1213 486 1203 q 417 1230 433 1218 q 388 1257 401 1242 q 369 1281 378 1268 q 351 1304 361 1293 q 325 1333 339 1319 q 301 1365 311 1347 q 308 1439 282 1406 q 367 1474 332 1467 q 433 1467 401 1482 q 477 1434 456 1456 q 515 1386 499 1413 q 541 1331 532 1360 q 549 1276 550 1303 m 732 107 q 647 66 696 86 q 544 29 599 46 q 432 2 489 13 q 322 -10 375 -8 q 221 -1 268 -11 q 140 33 174 8 q 85 121 103 60 q 60 253 67 182 q 56 394 54 324 q 58 511 57 465 q 60 586 58 539 q 66 689 63 633 q 75 804 69 744 q 89 918 81 864 q 110 1015 97 972 q 139 1082 122 1058 q 208 1127 160 1111 q 313 1150 257 1143 q 426 1157 369 1157 q 518 1157 482 1157 q 596 1153 549 1156 q 691 1141 643 1150 q 780 1117 739 1132 q 838 1075 821 1101 q 848 1035 847 1060 q 844 983 849 1010 q 831 930 839 956 q 814 888 822 904 q 750 833 793 846 q 655 822 707 819 q 548 838 603 825 q 447 863 493 851 q 391 870 415 871 q 361 838 367 869 q 356 820 360 831 q 351 799 353 810 q 350 781 349 789 q 358 771 351 774 q 417 762 375 764 q 505 758 458 760 q 592 751 551 756 q 646 736 632 747 q 669 686 664 722 q 667 610 674 650 q 645 538 661 571 q 607 496 629 504 q 556 490 590 489 q 483 494 521 490 q 409 504 444 499 q 356 513 374 510 q 351 466 354 493 q 347 412 347 439 q 353 363 347 385 q 376 335 358 342 q 412 335 388 331 q 467 350 436 340 q 531 372 497 360 q 596 394 565 385 q 651 410 626 404 q 688 415 675 417 q 767 367 738 407 q 804 278 797 328 q 794 180 811 228 q 732 107 776 132 z "},"":{"ha":863,"x_min":54,"x_max":849,"o":"m 458 1213 q 396 1221 425 1203 q 363 1276 367 1239 q 369 1332 360 1303 q 396 1388 379 1361 q 434 1435 413 1414 q 478 1468 456 1457 q 544 1475 508 1483 q 603 1439 579 1467 q 617 1405 615 1424 q 608 1367 618 1386 q 586 1333 600 1347 q 560 1304 572 1319 q 542 1281 550 1293 q 524 1257 533 1268 q 494 1230 510 1242 q 458 1213 478 1218 m 732 107 q 647 66 696 86 q 544 29 599 46 q 432 2 489 13 q 322 -10 375 -8 q 221 -1 268 -11 q 140 33 174 8 q 85 121 103 60 q 60 253 67 182 q 56 394 54 324 q 58 511 57 465 q 60 586 58 539 q 66 689 63 633 q 75 804 69 744 q 89 918 81 864 q 110 1015 97 972 q 139 1082 122 1058 q 208 1127 160 1111 q 313 1150 257 1143 q 426 1157 369 1157 q 518 1157 482 1157 q 596 1153 549 1156 q 691 1141 643 1150 q 780 1117 739 1132 q 838 1075 821 1101 q 848 1035 847 1060 q 844 983 849 1010 q 831 930 839 956 q 814 888 822 904 q 750 833 793 846 q 655 822 707 819 q 548 838 603 825 q 447 863 493 851 q 391 870 415 871 q 361 838 367 869 q 356 820 360 831 q 351 799 353 810 q 350 781 349 789 q 358 771 351 774 q 417 762 375 764 q 505 758 458 760 q 592 751 551 756 q 646 736 632 747 q 669 686 664 722 q 667 610 674 650 q 645 538 661 571 q 607 496 629 504 q 556 490 590 489 q 483 494 521 490 q 409 504 444 499 q 356 513 374 510 q 351 466 354 493 q 347 412 347 439 q 353 363 347 385 q 376 335 358 342 q 412 335 388 331 q 467 350 436 340 q 531 372 497 360 q 596 394 565 385 q 651 410 626 404 q 688 415 675 417 q 767 367 738 407 q 804 278 797 328 q 794 180 811 228 q 732 107 776 132 z "},"":{"ha":863,"x_min":54,"x_max":849,"o":"m 336 1217 q 307 1211 322 1213 q 278 1213 292 1210 q 256 1223 265 1215 q 243 1246 246 1231 q 250 1284 240 1263 q 275 1326 260 1306 q 307 1366 290 1347 q 336 1397 324 1385 q 356 1413 346 1406 q 376 1431 367 1421 q 408 1456 392 1444 q 443 1475 424 1468 q 494 1474 471 1485 q 526 1451 513 1464 q 553 1422 539 1438 q 581 1392 564 1411 q 613 1353 597 1374 q 638 1311 628 1332 q 646 1275 647 1290 q 632 1246 643 1256 q 583 1222 613 1226 q 531 1233 554 1218 q 514 1242 525 1236 q 490 1256 503 1249 q 467 1269 478 1264 q 450 1275 456 1275 q 422 1263 440 1275 q 394 1246 403 1251 q 366 1228 381 1236 q 336 1217 351 1221 m 732 107 q 647 66 696 86 q 544 29 599 46 q 432 2 489 13 q 322 -10 375 -8 q 221 -1 268 -11 q 140 33 174 8 q 85 121 103 60 q 60 253 67 182 q 56 394 54 324 q 58 511 57 465 q 60 586 58 539 q 66 689 63 633 q 75 804 69 744 q 89 918 81 864 q 110 1015 97 972 q 139 1082 122 1058 q 208 1127 160 1111 q 313 1150 257 1143 q 426 1157 369 1157 q 518 1157 482 1157 q 596 1153 549 1156 q 691 1141 643 1150 q 780 1117 739 1132 q 838 1075 821 1101 q 848 1035 847 1060 q 844 983 849 1010 q 831 930 839 956 q 814 888 822 904 q 750 833 793 846 q 655 822 707 819 q 548 838 603 825 q 447 863 493 851 q 391 870 415 871 q 361 838 367 869 q 356 820 360 831 q 351 799 353 810 q 350 781 349 789 q 358 771 351 774 q 417 762 375 764 q 505 758 458 760 q 592 751 551 756 q 646 736 632 747 q 669 686 664 722 q 667 610 674 650 q 645 538 661 571 q 607 496 629 504 q 556 490 590 489 q 483 494 521 490 q 409 504 444 499 q 356 513 374 510 q 351 466 354 493 q 347 412 347 439 q 353 363 347 385 q 376 335 358 342 q 412 335 388 331 q 467 350 436 340 q 531 372 497 360 q 596 394 565 385 q 651 410 626 404 q 688 415 675 417 q 767 367 738 407 q 804 278 797 328 q 794 180 811 228 q 732 107 776 132 z "},"":{"ha":863,"x_min":54,"x_max":849,"o":"m 603 1381 q 651 1337 639 1365 q 654 1281 663 1308 q 619 1236 646 1254 q 550 1225 592 1218 q 507 1247 522 1231 q 488 1284 492 1263 q 492 1327 485 1306 q 514 1365 499 1349 q 551 1386 529 1381 q 603 1381 574 1392 m 397 1378 q 445 1334 433 1363 q 449 1278 457 1306 q 413 1233 440 1251 q 344 1222 386 1215 q 302 1243 317 1226 q 284 1281 288 1260 q 287 1324 281 1303 q 308 1362 293 1346 q 347 1383 324 1378 q 397 1378 369 1389 m 732 107 q 647 66 696 86 q 544 29 599 46 q 432 2 489 13 q 322 -10 375 -8 q 221 -1 268 -11 q 140 33 174 8 q 85 121 103 60 q 60 253 67 182 q 56 394 54 324 q 58 511 57 465 q 60 586 58 539 q 66 689 63 633 q 75 804 69 744 q 89 918 81 864 q 110 1015 97 972 q 139 1082 122 1058 q 208 1127 160 1111 q 313 1150 257 1143 q 426 1157 369 1157 q 518 1157 482 1157 q 596 1153 549 1156 q 691 1141 643 1150 q 780 1117 739 1132 q 838 1075 821 1101 q 848 1035 847 1060 q 844 983 849 1010 q 831 930 839 956 q 814 888 822 904 q 750 833 793 846 q 655 822 707 819 q 548 838 603 825 q 447 863 493 851 q 391 870 415 871 q 361 838 367 869 q 356 820 360 831 q 351 799 353 810 q 350 781 349 789 q 358 771 351 774 q 417 762 375 764 q 505 758 458 760 q 592 751 551 756 q 646 736 632 747 q 669 686 664 722 q 667 610 674 650 q 645 538 661 571 q 607 496 629 504 q 556 490 590 489 q 483 494 521 490 q 409 504 444 499 q 356 513 374 510 q 351 466 354 493 q 347 412 347 439 q 353 363 347 385 q 376 335 358 342 q 412 335 388 331 q 467 350 436 340 q 531 372 497 360 q 596 394 565 385 q 651 410 626 404 q 688 415 675 417 q 767 367 738 407 q 804 278 797 328 q 794 180 811 228 q 732 107 776 132 z "},"":{"ha":560,"x_min":50,"x_max":528,"o":"m 443 1247 q 410 1192 440 1210 q 347 1183 381 1174 q 312 1200 328 1189 q 283 1226 296 1211 q 265 1251 272 1238 q 246 1275 257 1264 q 219 1304 233 1290 q 197 1336 206 1318 q 204 1410 178 1376 q 262 1445 226 1438 q 328 1438 297 1453 q 372 1405 350 1426 q 410 1357 393 1383 q 436 1302 426 1331 q 443 1247 446 1274 m 438 31 q 401 0 425 13 q 349 -20 378 -12 q 292 -30 321 -28 q 240 -28 263 -32 q 206 -21 224 -25 q 174 -10 189 -17 q 136 17 151 -1 q 110 54 121 35 q 90 103 97 78 q 78 156 82 129 q 66 258 69 207 q 63 361 63 308 q 63 380 63 371 q 61 399 63 389 q 65 757 50 578 q 81 901 71 829 q 118 1039 90 972 q 161 1094 131 1072 q 215 1119 185 1113 q 274 1126 244 1126 q 336 1123 306 1128 q 396 1108 367 1118 q 432 1094 414 1101 q 465 1075 450 1086 q 510 1023 493 1056 q 528 958 528 990 q 519 874 528 915 q 500 792 510 832 q 478 684 489 738 q 461 576 468 631 q 453 449 454 513 q 456 321 451 385 q 463 213 458 267 q 460 107 467 160 q 453 67 457 88 q 438 31 449 47 z "},"":{"ha":560,"x_min":50,"x_max":528,"o":"m 307 1196 q 243 1204 272 1186 q 211 1260 214 1222 q 218 1315 208 1286 q 244 1369 228 1343 q 283 1417 261 1396 q 325 1450 304 1439 q 392 1458 357 1465 q 450 1422 428 1450 q 457 1349 476 1389 q 434 1317 447 1331 q 407 1288 421 1303 q 390 1263 397 1276 q 371 1239 382 1250 q 341 1213 357 1224 q 307 1196 325 1201 m 438 31 q 401 0 425 13 q 349 -20 378 -12 q 292 -30 321 -28 q 240 -28 263 -32 q 206 -21 224 -25 q 174 -10 189 -17 q 136 17 151 -1 q 110 54 121 35 q 90 103 97 78 q 78 156 82 129 q 66 258 69 207 q 63 361 63 308 q 63 380 63 371 q 61 399 63 389 q 65 757 50 578 q 81 901 71 829 q 118 1039 90 972 q 161 1094 131 1072 q 215 1119 185 1113 q 274 1126 244 1126 q 336 1123 306 1128 q 396 1108 367 1118 q 432 1094 414 1101 q 465 1075 450 1086 q 510 1023 493 1056 q 528 958 528 990 q 519 874 528 915 q 500 792 510 832 q 478 684 489 738 q 461 576 468 631 q 453 449 454 513 q 456 321 451 385 q 463 213 458 267 q 460 107 467 160 q 453 67 457 88 q 438 31 449 47 z "},"":{"ha":578,"x_min":50,"x_max":528,"o":"m 210 1158 q 181 1153 196 1154 q 152 1154 165 1151 q 129 1165 139 1157 q 117 1188 119 1172 q 124 1226 114 1204 q 149 1268 133 1247 q 181 1308 164 1289 q 210 1339 197 1326 q 230 1355 219 1347 q 250 1372 240 1363 q 281 1398 265 1386 q 317 1417 297 1410 q 368 1415 344 1426 q 399 1392 385 1406 q 426 1364 413 1379 q 454 1334 438 1353 q 486 1294 471 1315 q 511 1253 501 1274 q 519 1217 521 1232 q 506 1188 517 1199 q 457 1164 486 1168 q 404 1175 428 1160 q 388 1184 399 1178 q 364 1198 376 1190 q 340 1211 351 1206 q 324 1217 329 1217 q 295 1205 314 1217 q 268 1188 276 1193 q 240 1170 254 1178 q 210 1158 225 1163 m 438 31 q 401 0 425 13 q 349 -20 378 -12 q 292 -30 321 -28 q 240 -28 263 -32 q 206 -21 224 -25 q 174 -10 189 -17 q 136 17 151 -1 q 110 54 121 35 q 90 103 97 78 q 78 156 82 129 q 66 258 69 207 q 63 361 63 308 q 63 380 63 371 q 61 399 63 389 q 65 757 50 578 q 81 901 71 829 q 118 1039 90 972 q 161 1094 131 1072 q 215 1119 185 1113 q 274 1126 244 1126 q 336 1123 306 1128 q 396 1108 367 1118 q 432 1094 414 1101 q 465 1075 450 1086 q 510 1023 493 1056 q 528 958 528 990 q 519 874 528 915 q 500 792 510 832 q 478 684 489 738 q 461 576 468 631 q 453 449 454 513 q 456 321 451 385 q 463 213 458 267 q 460 107 467 160 q 453 67 457 88 q 438 31 449 47 z "},"":{"ha":583,"x_min":50,"x_max":528,"o":"m 464 1336 q 512 1292 500 1321 q 515 1235 524 1263 q 480 1191 507 1208 q 411 1181 453 1174 q 369 1201 383 1185 q 351 1239 354 1218 q 353 1282 347 1260 q 375 1320 360 1304 q 413 1342 390 1336 q 464 1336 436 1347 m 260 1333 q 308 1289 296 1318 q 311 1233 319 1260 q 276 1188 303 1206 q 207 1178 249 1171 q 164 1199 179 1183 q 145 1236 149 1215 q 149 1279 142 1257 q 171 1317 156 1301 q 208 1339 186 1333 q 260 1333 231 1344 m 438 31 q 401 0 425 13 q 349 -20 378 -12 q 292 -30 321 -28 q 240 -28 263 -32 q 206 -21 224 -25 q 174 -10 189 -17 q 136 17 151 -1 q 110 54 121 35 q 90 103 97 78 q 78 156 82 129 q 66 258 69 207 q 63 361 63 308 q 63 380 63 371 q 61 399 63 389 q 65 757 50 578 q 81 901 71 829 q 118 1039 90 972 q 161 1094 131 1072 q 215 1119 185 1113 q 274 1126 244 1126 q 336 1123 306 1128 q 396 1108 367 1118 q 432 1094 414 1101 q 465 1075 450 1086 q 510 1023 493 1056 q 528 958 528 990 q 519 874 528 915 q 500 792 510 832 q 478 684 489 738 q 461 576 468 631 q 453 449 454 513 q 456 321 451 385 q 463 213 458 267 q 460 107 467 160 q 453 67 457 88 q 438 31 449 47 z "},"":{"ha":1117,"x_min":10,"x_max":1085,"o":"m 575 -67 q 477 -76 533 -74 q 365 -72 421 -79 q 264 -46 310 -65 q 196 11 218 -26 q 166 90 179 42 q 144 196 153 138 q 131 319 136 254 q 125 451 126 385 q 94 447 110 449 q 71 446 78 444 q 31 475 43 450 q 16 517 22 489 q 17 560 10 544 q 35 581 22 572 q 61 592 47 589 q 88 593 69 593 q 125 592 107 593 q 133 731 128 667 q 147 836 139 794 q 246 1028 172 957 q 419 1126 319 1100 q 631 1134 518 1151 q 849 1060 744 1117 q 974 938 924 1019 q 1051 756 1025 856 q 1081 551 1078 656 q 1064 360 1085 446 q 995 206 1044 278 q 878 76 946 133 q 733 -18 811 19 q 575 -67 654 -56 m 497 388 q 558 383 526 376 q 617 406 590 389 q 663 451 644 424 q 685 510 682 478 q 653 669 696 619 q 508 717 610 719 q 503 682 506 706 q 499 629 501 658 q 556 633 528 635 q 600 618 585 632 q 622 567 621 600 q 608 510 622 533 q 561 478 592 482 q 532 475 553 476 q 496 475 511 474 q 497 422 496 446 q 497 388 497 399 z "},"":{"ha":1229,"x_min":42,"x_max":1175,"o":"m 725 1122 q 697 1109 713 1114 q 665 1106 681 1104 q 638 1113 651 1107 q 613 1126 624 1118 q 590 1143 601 1135 q 565 1158 579 1151 q 561 1160 564 1158 q 557 1160 558 1161 q 551 1153 554 1158 q 544 1146 547 1149 q 518 1119 536 1128 q 481 1115 500 1111 q 449 1129 463 1118 q 429 1157 436 1140 q 426 1192 422 1174 q 440 1224 431 1206 q 462 1260 449 1243 q 490 1291 475 1278 q 518 1308 504 1304 q 552 1308 535 1314 q 585 1292 569 1301 q 617 1267 601 1281 q 651 1247 632 1253 q 658 1251 654 1246 q 664 1258 661 1256 q 678 1276 671 1267 q 693 1293 686 1285 q 723 1310 706 1307 q 756 1306 740 1313 q 781 1286 771 1300 q 792 1254 792 1272 q 787 1219 792 1236 q 775 1186 782 1201 q 754 1150 767 1167 q 725 1122 742 1133 m 313 -21 q 252 -27 285 -28 q 188 -18 219 -26 q 129 6 156 -10 q 90 46 103 22 q 53 146 64 93 q 42 254 43 199 q 48 366 42 310 q 63 475 54 422 q 75 583 69 524 q 89 703 81 642 q 110 824 97 765 q 144 931 122 883 q 197 1011 165 979 q 278 1050 229 1043 q 366 1038 322 1057 q 453 985 410 1019 q 536 903 496 950 q 613 808 576 857 q 681 710 649 758 q 738 626 713 663 q 774 570 754 601 q 811 518 794 539 q 839 494 828 497 q 851 524 850 492 q 848 635 853 575 q 836 756 843 694 q 820 878 829 818 q 804 988 811 938 q 817 1067 799 1033 q 870 1120 836 1100 q 947 1146 904 1140 q 1031 1141 990 1151 q 1105 1103 1072 1131 q 1151 1032 1138 1076 q 1167 942 1161 1001 q 1174 807 1172 882 q 1174 649 1175 732 q 1170 490 1174 565 q 1162 354 1167 415 q 1151 261 1157 293 q 1093 113 1136 178 q 990 15 1050 49 q 862 -15 931 -19 q 728 43 793 -11 q 634 158 669 92 q 572 298 599 225 q 519 445 544 371 q 454 585 493 519 q 444 481 446 540 q 442 358 443 421 q 437 231 440 294 q 421 115 433 168 q 383 26 408 63 q 313 -21 357 -10 z "},"":{"ha":1075,"x_min":29,"x_max":1039,"o":"m 724 1189 q 690 1133 719 1151 q 628 1124 661 1114 q 592 1141 608 1129 q 563 1168 576 1153 q 544 1192 553 1179 q 526 1215 536 1204 q 499 1245 513 1231 q 476 1278 486 1260 q 483 1351 457 1318 q 542 1387 507 1379 q 608 1379 576 1394 q 652 1347 631 1368 q 690 1299 674 1325 q 716 1243 707 1272 q 724 1189 725 1214 m 1006 289 q 878 88 961 168 q 694 -30 794 8 q 486 -65 593 -68 q 287 -17 379 -62 q 128 114 194 28 q 42 328 61 200 q 36 498 29 410 q 68 670 43 586 q 136 829 93 754 q 240 961 179 904 q 394 1047 303 1019 q 583 1073 486 1075 q 769 1040 679 1071 q 917 946 858 1008 q 971 863 947 913 q 1010 754 994 813 q 1032 632 1025 696 q 1038 506 1039 568 q 1029 388 1038 444 q 1006 289 1021 332 m 439 376 q 521 351 479 346 q 597 384 563 357 q 656 453 632 411 q 687 540 681 496 q 676 623 693 585 q 614 681 660 661 q 535 688 574 697 q 466 654 497 679 q 414 592 435 629 q 387 516 393 556 q 392 440 381 476 q 439 376 404 403 z "},"":{"ha":1075,"x_min":29,"x_max":1039,"o":"m 565 1124 q 502 1133 532 1114 q 469 1189 472 1151 q 476 1243 467 1214 q 503 1299 486 1272 q 541 1347 519 1325 q 585 1379 563 1368 q 651 1387 615 1394 q 708 1351 686 1379 q 715 1278 735 1318 q 693 1245 707 1260 q 667 1215 679 1231 q 648 1192 656 1204 q 629 1168 640 1179 q 601 1141 617 1153 q 565 1124 585 1129 m 1006 289 q 878 88 961 168 q 694 -30 794 8 q 486 -65 593 -68 q 287 -17 379 -62 q 128 114 194 28 q 42 328 61 200 q 36 498 29 410 q 68 670 43 586 q 136 829 93 754 q 240 961 179 904 q 394 1047 303 1019 q 583 1073 486 1075 q 769 1040 679 1071 q 917 946 858 1008 q 971 863 947 913 q 1010 754 994 813 q 1032 632 1025 696 q 1038 506 1039 568 q 1029 388 1038 444 q 1006 289 1021 332 m 439 376 q 521 351 479 346 q 597 384 563 357 q 656 453 632 411 q 687 540 681 496 q 676 623 693 585 q 614 681 660 661 q 535 688 574 697 q 466 654 497 679 q 414 592 435 629 q 387 516 393 556 q 392 440 381 476 q 439 376 404 403 z "},"":{"ha":1075,"x_min":29,"x_max":1039,"o":"m 451 1131 q 422 1125 438 1126 q 394 1127 407 1124 q 371 1138 381 1131 q 358 1160 361 1146 q 365 1198 356 1176 q 389 1240 374 1219 q 422 1280 404 1261 q 451 1311 439 1299 q 472 1328 461 1321 q 492 1344 482 1335 q 523 1370 507 1358 q 558 1389 539 1382 q 610 1388 585 1399 q 640 1365 626 1379 q 668 1336 654 1351 q 696 1306 679 1325 q 728 1267 713 1288 q 753 1225 743 1246 q 761 1189 763 1204 q 747 1160 758 1171 q 699 1136 728 1140 q 646 1147 669 1132 q 629 1157 640 1150 q 606 1171 618 1164 q 582 1183 593 1178 q 565 1189 571 1189 q 536 1177 554 1189 q 510 1160 518 1165 q 481 1142 496 1150 q 451 1131 467 1135 m 1006 289 q 878 88 961 168 q 694 -30 794 8 q 486 -65 593 -68 q 287 -17 379 -62 q 128 114 194 28 q 42 328 61 200 q 36 498 29 410 q 68 670 43 586 q 136 829 93 754 q 240 961 179 904 q 394 1047 303 1019 q 583 1073 486 1075 q 769 1040 679 1071 q 917 946 858 1008 q 971 863 947 913 q 1010 754 994 813 q 1032 632 1025 696 q 1038 506 1039 568 q 1029 388 1038 444 q 1006 289 1021 332 m 439 376 q 521 351 479 346 q 597 384 563 357 q 656 453 632 411 q 687 540 681 496 q 676 623 693 585 q 614 681 660 661 q 535 688 574 697 q 466 654 497 679 q 414 592 435 629 q 387 516 393 556 q 392 440 381 476 q 439 376 404 403 z "},"":{"ha":1075,"x_min":29,"x_max":1039,"o":"m 682 1146 q 622 1128 656 1125 q 594 1135 607 1129 q 569 1149 581 1140 q 547 1165 558 1157 q 522 1181 536 1174 q 518 1182 521 1181 q 513 1182 515 1183 q 506 1176 510 1181 q 501 1168 503 1171 q 474 1142 489 1149 q 438 1137 456 1133 q 406 1151 419 1140 q 386 1179 393 1163 q 383 1215 379 1196 q 396 1247 386 1229 q 418 1283 406 1265 q 445 1313 431 1300 q 475 1331 460 1326 q 508 1330 490 1336 q 542 1314 526 1324 q 574 1290 558 1303 q 608 1269 589 1276 q 615 1273 611 1268 q 621 1281 618 1278 q 635 1298 628 1289 q 650 1315 643 1307 q 680 1332 663 1329 q 713 1328 697 1335 q 738 1308 728 1322 q 749 1276 749 1294 q 743 1242 749 1258 q 731 1208 738 1225 q 711 1173 724 1189 q 682 1146 699 1157 m 1006 289 q 878 88 961 168 q 694 -30 794 8 q 486 -65 593 -68 q 287 -17 379 -62 q 128 114 194 28 q 42 328 61 200 q 36 498 29 410 q 68 670 43 586 q 136 829 93 754 q 240 961 179 904 q 394 1047 303 1019 q 583 1073 486 1075 q 769 1040 679 1071 q 917 946 858 1008 q 971 863 947 913 q 1010 754 994 813 q 1032 632 1025 696 q 1038 506 1039 568 q 1029 388 1038 444 q 1006 289 1021 332 m 439 376 q 521 351 479 346 q 597 384 563 357 q 656 453 632 411 q 687 540 681 496 q 676 623 693 585 q 614 681 660 661 q 535 688 574 697 q 466 654 497 679 q 414 592 435 629 q 387 516 393 556 q 392 440 381 476 q 439 376 404 403 z "},"":{"ha":1075,"x_min":29,"x_max":1039,"o":"m 649 1293 q 697 1249 685 1278 q 700 1194 708 1221 q 665 1149 692 1167 q 596 1138 638 1131 q 542 1177 554 1146 q 539 1240 529 1208 q 578 1291 549 1272 q 649 1293 607 1310 m 444 1290 q 492 1247 481 1275 q 496 1191 504 1218 q 460 1146 488 1164 q 392 1135 433 1128 q 349 1156 364 1139 q 330 1194 333 1172 q 333 1237 326 1215 q 356 1274 340 1258 q 394 1296 371 1290 q 444 1290 417 1301 m 1006 289 q 878 88 961 168 q 694 -30 794 8 q 486 -65 593 -68 q 287 -17 379 -62 q 128 114 194 28 q 42 328 61 200 q 36 498 29 410 q 68 670 43 586 q 136 829 93 754 q 240 961 179 904 q 394 1047 303 1019 q 583 1073 486 1075 q 769 1040 679 1071 q 917 946 858 1008 q 971 863 947 913 q 1010 754 994 813 q 1032 632 1025 696 q 1038 506 1039 568 q 1029 388 1038 444 q 1006 289 1021 332 m 439 376 q 521 351 479 346 q 597 384 563 357 q 656 453 632 411 q 687 540 681 496 q 676 623 693 585 q 614 681 660 661 q 535 688 574 697 q 466 654 497 679 q 414 592 435 629 q 387 516 393 556 q 392 440 381 476 q 439 376 404 403 z "},"":{"ha":653,"x_min":36,"x_max":613,"o":"m 240 133 q 193 125 219 122 q 122 145 154 126 q 72 192 90 164 q 51 255 53 221 q 69 321 49 289 q 117 369 88 347 q 139 385 122 375 q 131 390 131 390 q 95 417 113 404 q 67 449 78 431 q 47 549 36 493 q 62 592 51 569 q 86 632 72 614 q 118 662 100 650 q 157 674 136 674 q 190 671 174 674 q 222 661 207 668 q 269 624 250 649 q 308 576 289 600 q 319 592 314 585 q 329 608 324 600 q 367 656 347 632 q 414 692 388 679 q 486 700 449 707 q 553 665 521 692 q 590 618 575 644 q 608 565 604 592 q 604 511 613 538 q 574 464 596 485 q 548 440 563 454 q 517 414 533 426 q 526 403 521 408 q 535 394 531 399 q 567 359 551 376 q 594 319 583 342 q 604 288 601 304 q 603 256 607 271 q 585 215 599 235 q 552 179 571 194 q 512 155 533 164 q 468 147 490 146 q 424 160 444 149 q 388 189 403 172 q 369 209 378 200 q 350 228 360 218 q 315 191 333 208 q 285 165 296 174 q 263 148 274 156 q 240 133 253 140 z "},"":{"ha":1081,"x_min":31,"x_max":1043,"o":"m 204 -101 q 181 -100 194 -103 q 154 -92 168 -97 q 128 -78 140 -86 q 111 -64 117 -71 q 98 -37 101 -53 q 97 -6 94 -21 q 113 40 101 18 q 128 67 121 54 q 144 94 136 81 q 80 199 106 140 q 43 328 54 257 q 38 498 31 410 q 69 670 44 586 q 138 829 94 754 q 242 961 181 904 q 362 1035 292 1007 q 509 1070 432 1063 q 664 1066 586 1078 q 807 1024 742 1054 q 824 1045 815 1035 q 840 1067 832 1056 q 860 1088 850 1078 q 885 1101 871 1099 q 922 1097 904 1104 q 956 1081 939 1089 q 983 1065 969 1074 q 1006 1044 997 1057 q 1018 1005 1018 1026 q 1007 965 1018 983 q 953 899 982 929 q 1010 760 989 840 q 1037 594 1031 679 q 1035 428 1043 508 q 1007 289 1028 347 q 879 88 963 168 q 695 -31 796 8 q 487 -66 594 -69 q 286 -17 379 -62 q 265 -46 275 -32 q 243 -75 254 -60 q 226 -92 236 -85 q 204 -101 215 -99 m 567 690 q 489 669 525 692 q 428 612 453 647 q 392 533 403 576 q 392 450 381 489 l 400 463 q 482 578 442 521 q 567 690 522 636 m 525 353 q 590 378 558 357 q 644 432 621 400 q 679 501 667 464 q 689 575 692 539 q 679 562 683 568 q 669 549 675 556 q 610 470 640 508 q 553 392 581 432 l 525 353 z "},"":{"ha":1001,"x_min":44,"x_max":964,"o":"m 597 1176 q 565 1121 594 1139 q 501 1113 535 1103 q 466 1129 482 1118 q 438 1156 450 1140 q 419 1180 426 1167 q 400 1204 411 1193 q 374 1233 388 1219 q 351 1265 360 1247 q 358 1339 332 1306 q 416 1374 381 1367 q 482 1367 451 1382 q 526 1334 504 1356 q 564 1286 547 1313 q 590 1231 581 1260 q 597 1176 600 1203 m 610 -42 q 501 -50 557 -50 q 392 -40 446 -50 q 288 -8 338 -29 q 199 47 238 13 q 130 126 158 81 q 83 224 101 172 q 56 332 65 276 q 46 440 47 388 q 47 594 44 514 q 60 749 50 674 q 91 890 71 825 q 145 999 111 954 q 230 1061 179 1043 q 353 1060 281 1079 q 404 1031 382 1051 q 440 981 426 1010 q 458 921 453 953 q 458 858 463 889 q 448 799 456 836 q 431 718 440 763 q 412 626 421 674 q 398 536 403 579 q 394 458 393 493 q 406 403 394 422 q 451 358 422 369 q 508 351 479 346 q 562 378 538 356 q 593 436 586 400 q 596 567 606 500 q 574 699 586 633 q 556 831 561 765 q 571 957 550 896 q 610 1013 581 988 q 677 1051 640 1038 q 751 1064 714 1064 q 815 1046 789 1064 q 853 1000 833 1032 q 889 930 872 968 q 918 855 906 892 q 935 796 931 818 q 957 616 950 708 q 957 435 964 524 q 928 267 950 347 q 864 124 906 188 q 760 16 822 60 q 610 -42 697 -28 z "},"":{"ha":1001,"x_min":44,"x_max":964,"o":"m 543 1106 q 479 1114 508 1096 q 447 1169 450 1132 q 453 1225 444 1196 q 479 1281 463 1254 q 517 1328 496 1307 q 561 1361 539 1350 q 628 1369 593 1376 q 686 1333 664 1361 q 693 1260 713 1300 q 670 1226 683 1240 q 643 1197 657 1213 q 626 1174 633 1186 q 607 1150 618 1161 q 577 1123 593 1135 q 543 1106 561 1111 m 610 -42 q 501 -50 557 -50 q 392 -40 446 -50 q 288 -8 338 -29 q 199 47 238 13 q 130 126 158 81 q 83 224 101 172 q 56 332 65 276 q 46 440 47 388 q 47 594 44 514 q 60 749 50 674 q 91 890 71 825 q 145 999 111 954 q 230 1061 179 1043 q 353 1060 281 1079 q 404 1031 382 1051 q 440 981 426 1010 q 458 921 453 953 q 458 858 463 889 q 448 799 456 836 q 431 718 440 763 q 412 626 421 674 q 398 536 403 579 q 394 458 393 493 q 406 403 394 422 q 451 358 422 369 q 508 351 479 346 q 562 378 538 356 q 593 436 586 400 q 596 567 606 500 q 574 699 586 633 q 556 831 561 765 q 571 957 550 896 q 610 1013 581 988 q 677 1051 640 1038 q 751 1064 714 1064 q 815 1046 789 1064 q 853 1000 833 1032 q 889 930 872 968 q 918 855 906 892 q 935 796 931 818 q 957 616 950 708 q 957 435 964 524 q 928 267 950 347 q 864 124 906 188 q 760 16 822 60 q 610 -42 697 -28 z "},"":{"ha":1001,"x_min":44,"x_max":964,"o":"m 406 1132 q 376 1126 392 1128 q 348 1128 361 1125 q 325 1140 335 1132 q 313 1161 315 1147 q 319 1199 310 1178 q 344 1242 329 1221 q 376 1281 360 1263 q 406 1313 393 1300 q 426 1329 415 1322 q 446 1346 436 1336 q 477 1372 461 1360 q 513 1390 493 1383 q 564 1389 539 1400 q 594 1367 581 1381 q 622 1338 608 1353 q 650 1308 633 1326 q 682 1268 667 1289 q 707 1226 697 1247 q 715 1190 717 1206 q 701 1161 713 1172 q 653 1138 682 1142 q 600 1149 624 1133 q 583 1158 594 1151 q 560 1172 572 1165 q 536 1185 547 1179 q 519 1190 525 1190 q 491 1178 510 1190 q 464 1161 472 1167 q 435 1144 450 1151 q 406 1132 421 1136 m 610 -42 q 501 -50 557 -50 q 392 -40 446 -50 q 288 -8 338 -29 q 199 47 238 13 q 130 126 158 81 q 83 224 101 172 q 56 332 65 276 q 46 440 47 388 q 47 594 44 514 q 60 749 50 674 q 91 890 71 825 q 145 999 111 954 q 230 1061 179 1043 q 353 1060 281 1079 q 404 1031 382 1051 q 440 981 426 1010 q 458 921 453 953 q 458 858 463 889 q 448 799 456 836 q 431 718 440 763 q 412 626 421 674 q 398 536 403 579 q 394 458 393 493 q 406 403 394 422 q 451 358 422 369 q 508 351 479 346 q 562 378 538 356 q 593 436 586 400 q 596 567 606 500 q 574 699 586 633 q 556 831 561 765 q 571 957 550 896 q 610 1013 581 988 q 677 1051 640 1038 q 751 1064 714 1064 q 815 1046 789 1064 q 853 1000 833 1032 q 889 930 872 968 q 918 855 906 892 q 935 796 931 818 q 957 616 950 708 q 957 435 964 524 q 928 267 950 347 q 864 124 906 188 q 760 16 822 60 q 610 -42 697 -28 z "},"":{"ha":1001,"x_min":44,"x_max":964,"o":"m 633 1286 q 681 1242 669 1271 q 685 1187 693 1214 q 649 1142 676 1160 q 581 1131 622 1124 q 538 1151 553 1135 q 520 1190 524 1168 q 523 1233 517 1211 q 544 1270 529 1254 q 583 1292 560 1286 q 633 1286 606 1297 m 429 1283 q 477 1240 465 1268 q 481 1184 489 1211 q 445 1139 472 1157 q 376 1128 418 1121 q 334 1149 349 1132 q 316 1187 319 1165 q 319 1230 313 1208 q 340 1267 325 1251 q 378 1289 356 1283 q 429 1283 401 1294 m 610 -42 q 501 -50 557 -50 q 392 -40 446 -50 q 288 -8 338 -29 q 199 47 238 13 q 130 126 158 81 q 83 224 101 172 q 56 332 65 276 q 46 440 47 388 q 47 594 44 514 q 60 749 50 674 q 91 890 71 825 q 145 999 111 954 q 230 1061 179 1043 q 353 1060 281 1079 q 404 1031 382 1051 q 440 981 426 1010 q 458 921 453 953 q 458 858 463 889 q 448 799 456 836 q 431 718 440 763 q 412 626 421 674 q 398 536 403 579 q 394 458 393 493 q 406 403 394 422 q 451 358 422 369 q 508 351 479 346 q 562 378 538 356 q 593 436 586 400 q 596 567 606 500 q 574 699 586 633 q 556 831 561 765 q 571 957 550 896 q 610 1013 581 988 q 677 1051 640 1038 q 751 1064 714 1064 q 815 1046 789 1064 q 853 1000 833 1032 q 889 930 872 968 q 918 855 906 892 q 935 796 931 818 q 957 616 950 708 q 957 435 964 524 q 928 267 950 347 q 864 124 906 188 q 760 16 822 60 q 610 -42 697 -28 z "},"":{"ha":944,"x_min":10,"x_max":938,"o":"m 431 1111 q 367 1119 397 1101 q 335 1175 338 1138 q 342 1231 332 1201 q 368 1286 351 1260 q 406 1333 385 1313 q 449 1365 428 1354 q 516 1373 481 1381 q 574 1338 551 1365 q 588 1303 586 1322 q 581 1265 590 1285 q 558 1232 571 1246 q 532 1203 544 1218 q 513 1179 521 1192 q 494 1156 506 1167 q 465 1128 481 1140 q 431 1111 450 1117 m 615 -33 q 556 -71 592 -58 q 479 -85 519 -83 q 399 -78 439 -86 q 329 -53 360 -69 q 276 9 289 -32 q 265 99 263 50 q 281 201 268 149 q 308 296 294 253 q 238 304 275 293 q 181 343 200 315 q 125 449 147 393 q 88 565 103 506 q 59 685 72 624 q 31 804 46 746 q 16 869 22 836 q 19 935 10 903 q 72 1002 32 974 q 163 1043 113 1031 q 261 1050 213 1056 q 338 1014 310 1044 q 355 970 347 1003 q 368 895 363 938 q 378 804 374 853 q 388 713 383 756 q 399 636 393 669 q 414 590 406 603 q 433 665 422 619 q 458 763 444 710 q 489 869 472 815 q 525 971 506 924 q 567 1053 544 1018 q 618 1104 590 1089 q 694 1125 653 1124 q 777 1113 736 1126 q 853 1076 818 1100 q 913 1018 889 1051 q 929 930 938 983 q 897 817 921 876 q 844 702 874 758 q 799 607 815 646 q 679 175 711 397 q 662 64 672 121 q 615 -33 651 7 z "},"":{"ha":1014,"x_min":50,"x_max":1000,"o":"m 438 31 q 401 0 425 13 q 349 -20 378 -12 q 292 -30 321 -28 q 240 -28 263 -32 q 206 -21 224 -25 q 174 -10 189 -17 q 136 17 151 -1 q 110 54 121 35 q 90 103 97 78 q 78 156 82 129 q 66 258 69 207 q 63 361 63 308 q 63 380 63 371 q 61 399 63 389 q 65 757 50 578 q 81 901 71 829 q 118 1039 90 972 q 161 1094 131 1072 q 215 1119 185 1113 q 274 1126 244 1126 q 336 1123 306 1128 q 396 1108 367 1118 q 432 1094 414 1101 q 465 1075 450 1086 q 510 1023 493 1056 q 528 958 528 990 q 519 878 528 918 q 501 797 511 838 q 661 822 579 825 q 804 783 735 819 q 924 694 874 747 q 967 632 950 667 q 993 561 985 597 q 999 488 1000 525 q 988 418 999 451 q 927 316 968 363 q 835 242 886 269 q 712 196 776 210 q 582 181 647 182 q 527 183 560 181 q 463 192 494 185 q 463 149 464 169 q 460 107 463 128 q 453 67 457 88 q 438 31 449 47 m 475 482 q 509 476 490 478 q 546 478 528 475 q 579 488 564 481 q 603 510 594 496 q 604 558 617 533 q 564 592 592 583 q 485 599 522 603 q 474 597 479 597 q 464 594 468 597 q 461 576 461 583 q 457 534 458 556 q 454 492 456 513 q 465 487 460 489 q 475 482 469 485 z "},"":{"ha":1047,"x_min":46,"x_max":1036,"o":"m 776 -43 q 678 -55 729 -56 q 582 -39 628 -54 q 472 22 521 -18 q 425 85 439 47 q 415 134 415 108 q 417 185 414 160 q 435 241 419 214 q 474 285 450 268 q 538 296 503 306 q 588 275 564 289 q 638 253 611 261 q 666 248 651 249 q 694 254 681 247 q 708 275 708 260 q 701 303 708 290 q 673 340 690 324 q 635 367 656 356 q 576 390 607 382 q 515 413 544 399 q 480 440 496 422 q 461 479 464 457 q 461 505 458 492 q 468 531 464 518 q 503 601 483 567 q 533 672 522 635 q 538 696 536 683 q 536 719 539 708 q 493 757 526 751 q 433 742 460 763 q 401 700 413 725 q 382 650 390 675 q 360 522 361 588 q 363 392 358 457 q 368 275 365 333 q 374 158 371 217 q 374 86 375 122 q 357 18 372 50 q 328 -16 347 -1 q 289 -40 310 -31 q 221 -51 257 -54 q 153 -37 185 -49 q 121 -24 136 -31 q 93 -6 106 -17 q 57 51 68 17 q 49 90 50 71 q 47 129 47 110 q 53 278 46 204 q 58 428 61 353 q 56 617 54 522 q 82 803 58 711 q 111 888 93 846 q 158 963 129 929 q 255 1033 199 1007 q 369 1068 311 1058 q 451 1076 410 1075 q 535 1074 493 1076 q 624 1065 579 1071 q 714 1049 669 1060 q 768 1031 742 1042 q 818 1004 794 1021 q 890 917 864 974 q 911 807 917 861 q 881 716 906 758 q 833 633 857 674 q 821 608 826 621 q 815 581 815 594 q 819 572 815 578 q 825 564 822 567 q 858 527 840 544 q 896 493 876 510 q 938 451 919 474 q 974 404 957 428 q 1023 285 1010 353 q 1019 156 1036 218 q 970 65 1004 107 q 892 1 936 24 q 835 -24 864 -14 q 776 -43 807 -35 z "},"":{"ha":928,"x_min":28,"x_max":910,"o":"m 597 1075 q 565 1019 594 1038 q 501 1010 536 1000 q 467 1027 483 1015 q 438 1054 451 1039 q 419 1078 426 1065 q 401 1101 411 1090 q 374 1131 388 1117 q 351 1164 361 1146 q 358 1238 332 1204 q 416 1273 381 1265 q 483 1265 451 1281 q 526 1233 504 1254 q 564 1185 547 1211 q 590 1129 581 1158 q 597 1075 600 1100 m 899 188 q 896 84 910 129 q 852 10 882 39 q 783 -28 822 -18 q 702 -28 743 -37 q 624 13 661 -18 q 563 99 586 43 q 438 6 508 35 q 297 -18 368 -24 q 165 28 226 -12 q 68 146 103 69 q 28 343 28 235 q 59 558 28 451 q 149 756 90 664 q 285 906 207 849 q 351 935 314 928 q 428 939 389 943 q 506 919 468 935 q 572 881 543 904 q 654 933 610 918 q 738 941 699 949 q 803 903 776 933 q 833 819 831 874 q 829 748 835 783 q 818 677 824 713 q 808 606 813 642 q 807 535 804 571 q 822 447 811 490 q 847 360 833 403 q 876 275 861 318 q 899 188 890 232 m 357 507 q 343 423 339 461 q 366 366 347 385 q 412 351 385 347 q 467 396 439 356 q 501 472 494 435 q 502 535 508 508 q 479 578 496 563 q 441 594 463 594 q 397 572 419 593 q 357 507 375 551 z "},"":{"ha":928,"x_min":28,"x_max":910,"o":"m 538 1000 q 474 1008 504 990 q 442 1064 444 1026 q 449 1119 439 1090 q 475 1174 458 1147 q 513 1222 492 1200 q 556 1254 535 1243 q 623 1262 588 1269 q 681 1226 658 1254 q 688 1153 707 1193 q 665 1121 678 1135 q 639 1092 651 1107 q 620 1068 628 1081 q 601 1044 613 1056 q 572 1017 588 1029 q 538 1000 556 1006 m 899 188 q 896 84 910 129 q 852 10 882 39 q 783 -28 822 -18 q 702 -28 743 -37 q 624 13 661 -18 q 563 99 586 43 q 438 6 508 35 q 297 -18 368 -24 q 165 28 226 -12 q 68 146 103 69 q 28 343 28 235 q 59 558 28 451 q 149 756 90 664 q 285 906 207 849 q 351 935 314 928 q 428 939 389 943 q 506 919 468 935 q 572 881 543 904 q 654 933 610 918 q 738 941 699 949 q 803 903 776 933 q 833 819 831 874 q 829 748 835 783 q 818 677 824 713 q 808 606 813 642 q 807 535 804 571 q 822 447 811 490 q 847 360 833 403 q 876 275 861 318 q 899 188 890 232 m 357 507 q 343 423 339 461 q 366 366 347 385 q 412 351 385 347 q 467 396 439 356 q 501 472 494 435 q 502 535 508 508 q 479 578 496 563 q 441 594 463 594 q 397 572 419 593 q 357 507 375 551 z "},"":{"ha":928,"x_min":28,"x_max":910,"o":"m 411 1014 q 382 1008 397 1010 q 353 1010 367 1007 q 331 1022 340 1014 q 318 1043 321 1029 q 324 1081 314 1060 q 349 1124 333 1103 q 381 1163 364 1144 q 411 1194 399 1182 q 431 1211 421 1204 q 450 1228 440 1218 q 481 1253 465 1242 q 517 1272 497 1265 q 568 1271 544 1282 q 599 1249 586 1263 q 626 1219 613 1235 q 654 1190 638 1208 q 686 1150 671 1171 q 711 1108 701 1129 q 719 1072 721 1088 q 706 1043 717 1053 q 658 1019 686 1024 q 606 1031 629 1015 q 589 1040 600 1033 q 565 1054 578 1047 q 541 1067 553 1061 q 524 1072 529 1072 q 495 1060 514 1072 q 469 1043 476 1049 q 411 1014 442 1024 m 899 188 q 896 84 910 129 q 852 10 882 39 q 783 -28 822 -18 q 702 -28 743 -37 q 624 13 661 -18 q 563 99 586 43 q 438 6 508 35 q 297 -18 368 -24 q 165 28 226 -12 q 68 146 103 69 q 28 343 28 235 q 59 558 28 451 q 149 756 90 664 q 285 906 207 849 q 351 935 314 928 q 428 939 389 943 q 506 919 468 935 q 572 881 543 904 q 654 933 610 918 q 738 941 699 949 q 803 903 776 933 q 833 819 831 874 q 829 748 835 783 q 818 677 824 713 q 808 606 813 642 q 807 535 804 571 q 822 447 811 490 q 847 360 833 403 q 876 275 861 318 q 899 188 890 232 m 357 507 q 343 423 339 461 q 366 366 347 385 q 412 351 385 347 q 467 396 439 356 q 501 472 494 435 q 502 535 508 508 q 479 578 496 563 q 441 594 463 594 q 397 572 419 593 q 357 507 375 551 z "},"":{"ha":928,"x_min":28,"x_max":910,"o":"m 626 1029 q 567 1013 596 1011 q 514 1033 538 1013 q 491 1050 503 1042 q 467 1064 479 1058 q 457 1067 461 1067 q 451 1060 454 1065 q 446 1053 447 1056 q 433 1037 440 1044 q 418 1026 426 1029 q 382 1022 400 1018 q 350 1036 364 1025 q 329 1064 336 1047 q 326 1099 322 1081 q 340 1131 331 1113 q 362 1167 349 1150 q 390 1198 375 1185 q 418 1215 404 1211 q 452 1214 435 1219 q 485 1199 469 1208 q 517 1174 501 1188 q 551 1154 532 1160 q 559 1157 556 1153 q 565 1164 563 1161 q 579 1183 572 1174 q 594 1200 586 1192 q 624 1217 607 1214 q 656 1213 640 1219 q 683 1193 672 1207 q 693 1161 693 1179 q 688 1126 693 1143 q 675 1093 682 1108 q 656 1057 668 1074 q 626 1029 643 1040 m 899 188 q 896 84 910 129 q 852 10 882 39 q 783 -28 822 -18 q 702 -28 743 -37 q 624 13 661 -18 q 563 99 586 43 q 438 6 508 35 q 297 -18 368 -24 q 165 28 226 -12 q 68 146 103 69 q 28 343 28 235 q 59 558 28 451 q 149 756 90 664 q 285 906 207 849 q 351 935 314 928 q 428 939 389 943 q 506 919 468 935 q 572 881 543 904 q 654 933 610 918 q 738 941 699 949 q 803 903 776 933 q 833 819 831 874 q 829 748 835 783 q 818 677 824 713 q 808 606 813 642 q 807 535 804 571 q 822 447 811 490 q 847 360 833 403 q 876 275 861 318 q 899 188 890 232 m 357 507 q 343 423 339 461 q 366 366 347 385 q 412 351 385 347 q 467 396 439 356 q 501 472 494 435 q 502 535 508 508 q 479 578 496 563 q 441 594 463 594 q 397 572 419 593 q 357 507 375 551 z "},"":{"ha":928,"x_min":28,"x_max":910,"o":"m 651 1192 q 699 1147 688 1176 q 703 1091 711 1118 q 667 1047 694 1064 q 599 1036 640 1029 q 556 1057 571 1040 q 538 1094 542 1074 q 541 1138 535 1115 q 563 1176 547 1160 q 601 1197 578 1192 q 651 1192 624 1203 m 447 1189 q 495 1144 483 1174 q 499 1088 507 1115 q 463 1044 490 1061 q 394 1033 436 1026 q 340 1072 353 1040 q 336 1135 326 1104 q 376 1186 346 1167 q 447 1189 406 1206 m 899 188 q 896 84 910 129 q 852 10 882 39 q 783 -28 822 -18 q 702 -28 743 -37 q 624 13 661 -18 q 563 99 586 43 q 438 6 508 35 q 297 -18 368 -24 q 165 28 226 -12 q 68 146 103 69 q 28 343 28 235 q 59 558 28 451 q 149 756 90 664 q 285 906 207 849 q 351 935 314 928 q 428 939 389 943 q 506 919 468 935 q 572 881 543 904 q 654 933 610 918 q 738 941 699 949 q 803 903 776 933 q 833 819 831 874 q 829 748 835 783 q 818 677 824 713 q 808 606 813 642 q 807 535 804 571 q 822 447 811 490 q 847 360 833 403 q 876 275 861 318 q 899 188 890 232 m 357 507 q 343 423 339 461 q 366 366 347 385 q 412 351 385 347 q 467 396 439 356 q 501 472 494 435 q 502 535 508 508 q 479 578 496 563 q 441 594 463 594 q 397 572 419 593 q 357 507 375 551 z "},"":{"ha":928,"x_min":28,"x_max":910,"o":"m 561 1032 q 496 1027 531 1024 q 431 1045 461 1031 q 381 1084 401 1060 q 358 1142 360 1108 q 379 1226 356 1189 q 440 1283 403 1263 q 521 1302 476 1303 q 606 1276 565 1301 q 659 1214 644 1251 q 667 1140 674 1176 q 633 1073 660 1103 q 561 1032 606 1043 m 525 1203 q 500 1195 510 1204 q 488 1175 490 1186 q 494 1155 486 1164 q 522 1149 501 1146 q 546 1158 538 1150 q 555 1176 554 1167 q 548 1194 556 1186 q 525 1203 540 1201 m 899 188 q 896 84 910 129 q 852 10 882 39 q 783 -28 822 -18 q 702 -28 743 -37 q 624 13 661 -18 q 563 99 586 43 q 438 6 508 35 q 297 -18 368 -24 q 165 28 226 -12 q 68 146 103 69 q 28 343 28 235 q 59 558 28 451 q 149 756 90 664 q 285 906 207 849 q 351 935 314 928 q 428 939 389 943 q 506 919 468 935 q 572 881 543 904 q 654 933 610 918 q 738 941 699 949 q 803 903 776 933 q 833 819 831 874 q 829 748 835 783 q 818 677 824 713 q 808 606 813 642 q 807 535 804 571 q 822 447 811 490 q 847 360 833 403 q 876 275 861 318 q 899 188 890 232 m 357 507 q 343 423 339 461 q 366 366 347 385 q 412 351 385 347 q 467 396 439 356 q 501 472 494 435 q 502 535 508 508 q 479 578 496 563 q 441 594 463 594 q 397 572 419 593 q 357 507 375 551 z "},"":{"ha":1353,"x_min":28,"x_max":1324,"o":"m 1011 -68 q 908 -60 957 -71 q 819 -26 860 -49 q 753 -46 789 -43 q 681 -35 717 -49 q 615 8 646 -22 q 563 85 583 38 q 438 -8 508 21 q 297 -32 368 -37 q 165 15 226 -26 q 68 132 103 56 q 28 330 28 221 q 59 545 28 439 q 149 744 90 651 q 285 893 207 836 q 351 922 314 914 q 428 925 389 929 q 506 906 468 921 q 572 867 543 890 q 640 913 603 897 q 713 929 678 929 q 776 913 747 929 q 821 864 806 897 q 1001 905 904 904 q 1188 868 1097 906 q 1262 813 1232 849 q 1307 731 1292 776 q 1323 633 1322 685 q 1309 533 1324 582 q 1265 443 1294 485 q 1192 375 1236 401 q 1126 356 1165 360 q 1046 355 1088 351 q 965 367 1004 358 q 896 388 925 376 q 893 346 894 372 q 897 294 892 319 q 919 251 903 269 q 969 232 936 232 q 1022 242 996 232 q 1078 262 1049 251 q 1140 278 1107 272 q 1214 274 1174 283 q 1261 249 1244 267 q 1282 206 1278 231 q 1281 151 1286 181 q 1267 92 1276 122 q 1227 27 1254 56 q 1165 -22 1200 -1 q 1089 -55 1129 -43 q 1011 -68 1049 -67 m 1000 657 q 952 624 967 643 q 939 589 938 604 q 958 567 940 574 q 1008 574 975 561 q 1040 601 1031 583 q 1048 633 1050 618 q 1034 657 1046 649 q 1000 657 1022 665 m 357 493 q 343 410 339 447 q 366 353 347 372 q 412 338 385 333 q 467 382 439 342 q 501 458 494 422 q 502 522 508 494 q 479 565 496 549 q 441 580 463 581 q 397 558 419 579 q 357 493 375 538 z "},"":{"ha":840,"x_min":22,"x_max":814,"o":"m 403 -208 q 350 -206 378 -211 q 303 -183 322 -200 q 286 -157 290 -174 q 285 -124 282 -140 q 297 -93 288 -107 q 319 -72 306 -79 q 356 -69 333 -67 q 381 -72 368 -71 q 408 -72 394 -74 q 388 -67 397 -69 q 371 -58 379 -65 q 351 -29 353 -47 q 358 7 349 -11 q 175 92 257 28 q 56 261 93 157 q 25 444 22 354 q 58 613 28 533 q 141 757 89 692 q 258 867 193 822 q 397 933 324 913 q 541 944 469 954 q 678 890 613 935 q 792 760 743 846 q 806 674 814 721 q 769 588 797 626 q 700 526 742 549 q 615 513 658 503 q 550 532 589 518 q 472 558 511 546 q 397 572 432 569 q 343 556 363 574 q 315 499 318 532 q 324 435 311 465 q 364 381 338 404 q 426 353 390 357 q 486 356 457 349 q 545 373 515 363 q 605 393 575 383 q 665 406 635 403 q 760 374 725 410 q 804 285 796 338 q 793 176 813 232 q 725 85 774 119 q 592 19 663 40 q 449 -1 521 -3 q 500 -19 475 -7 q 536 -56 525 -32 q 545 -110 547 -79 q 525 -160 543 -140 q 468 -194 501 -183 q 403 -208 435 -206 z "},"":{"ha":790,"x_min":24,"x_max":761,"o":"m 528 1075 q 496 1019 525 1038 q 432 1010 467 1000 q 398 1027 414 1015 q 368 1054 382 1039 q 349 1078 357 1065 q 332 1101 342 1090 q 305 1131 318 1117 q 282 1164 292 1146 q 289 1238 263 1204 q 347 1273 311 1265 q 414 1265 382 1281 q 458 1233 436 1254 q 496 1185 479 1211 q 522 1129 513 1158 q 528 1075 531 1100 m 450 -50 q 283 -22 357 -54 q 157 67 210 10 q 73 202 104 125 q 33 366 42 279 q 38 543 24 453 q 93 718 53 633 q 186 838 126 790 q 319 906 246 885 q 472 922 392 926 q 625 886 551 917 q 700 831 669 867 q 746 749 731 794 q 761 651 761 703 q 747 551 761 600 q 703 461 732 503 q 629 393 674 419 q 564 374 603 378 q 484 372 525 369 q 403 385 443 375 q 335 406 364 394 q 332 364 333 390 q 336 313 331 338 q 358 269 342 288 q 408 250 374 250 q 460 260 435 250 q 515 279 486 269 q 578 294 544 289 q 653 290 613 300 q 699 265 683 283 q 720 223 715 247 q 720 169 725 199 q 706 108 715 139 q 666 44 693 72 q 603 -5 639 15 q 528 -37 568 -25 q 450 -50 488 -49 m 438 675 q 390 642 406 661 q 376 606 375 622 q 395 584 378 590 q 446 592 413 578 q 478 619 468 601 q 486 651 488 636 q 472 675 485 667 q 438 675 460 683 z "},"":{"ha":790,"x_min":24,"x_max":761,"o":"m 426 1000 q 363 1009 393 990 q 331 1065 333 1028 q 338 1119 328 1090 q 364 1175 347 1149 q 402 1223 381 1201 q 446 1256 424 1244 q 512 1263 476 1271 q 569 1228 547 1256 q 576 1154 596 1194 q 554 1122 568 1136 q 528 1093 540 1108 q 509 1069 517 1082 q 490 1044 501 1056 q 462 1017 478 1029 q 426 1000 446 1006 m 450 -50 q 283 -22 357 -54 q 157 67 210 10 q 73 202 104 125 q 33 366 42 279 q 38 543 24 453 q 93 718 53 633 q 186 838 126 790 q 319 906 246 885 q 472 922 392 926 q 625 886 551 917 q 700 831 669 867 q 746 749 731 794 q 761 651 761 703 q 747 551 761 600 q 703 461 732 503 q 629 393 674 419 q 564 374 603 378 q 484 372 525 369 q 403 385 443 375 q 335 406 364 394 q 332 364 333 390 q 336 313 331 338 q 358 269 342 288 q 408 250 374 250 q 460 260 435 250 q 515 279 486 269 q 578 294 544 289 q 653 290 613 300 q 699 265 683 283 q 720 223 715 247 q 720 169 725 199 q 706 108 715 139 q 666 44 693 72 q 603 -5 639 15 q 528 -37 568 -25 q 450 -50 488 -49 m 438 675 q 390 642 406 661 q 376 606 375 622 q 395 584 378 590 q 446 592 413 578 q 478 619 468 601 q 486 651 488 636 q 472 675 485 667 q 438 675 460 683 z "},"":{"ha":790,"x_min":24,"x_max":761,"o":"m 308 979 q 251 976 281 971 q 215 1008 222 981 q 222 1047 213 1025 q 247 1089 232 1068 q 279 1128 263 1110 q 308 1160 296 1147 q 328 1176 318 1169 q 349 1193 339 1183 q 380 1219 364 1207 q 415 1238 396 1231 q 467 1236 443 1247 q 498 1214 485 1228 q 525 1185 511 1200 q 553 1155 536 1174 q 585 1115 569 1136 q 610 1074 600 1094 q 618 1038 619 1053 q 604 1008 615 1018 q 556 985 585 989 q 503 996 526 982 q 487 1006 497 999 q 464 1019 476 1013 q 440 1032 451 1026 q 422 1038 428 1038 q 394 1026 413 1038 q 367 1008 375 1014 q 308 979 339 989 m 450 -50 q 283 -22 357 -54 q 157 67 210 10 q 73 202 104 125 q 33 366 42 279 q 38 543 24 453 q 93 718 53 633 q 186 838 126 790 q 319 906 246 885 q 472 922 392 926 q 625 886 551 917 q 700 831 669 867 q 746 749 731 794 q 761 651 761 703 q 747 551 761 600 q 703 461 732 503 q 629 393 674 419 q 564 374 603 378 q 484 372 525 369 q 403 385 443 375 q 335 406 364 394 q 332 364 333 390 q 336 313 331 338 q 358 269 342 288 q 408 250 374 250 q 460 260 435 250 q 515 279 486 269 q 578 294 544 289 q 653 290 613 300 q 699 265 683 283 q 720 223 715 247 q 720 169 725 199 q 706 108 715 139 q 666 44 693 72 q 603 -5 639 15 q 528 -37 568 -25 q 450 -50 488 -49 m 438 675 q 390 642 406 661 q 376 606 375 622 q 395 584 378 590 q 446 592 413 578 q 478 619 468 601 q 486 651 488 636 q 472 675 485 667 q 438 675 460 683 z "},"":{"ha":790,"x_min":24,"x_max":761,"o":"m 539 1167 q 587 1123 575 1151 q 590 1067 599 1094 q 555 1022 582 1040 q 486 1011 528 1004 q 443 1033 458 1017 q 424 1070 428 1049 q 428 1113 421 1092 q 450 1151 435 1135 q 488 1172 465 1167 q 539 1167 510 1178 m 333 1164 q 381 1120 369 1149 q 385 1065 393 1092 q 349 1019 376 1038 q 281 1008 322 1001 q 238 1029 253 1013 q 220 1067 224 1046 q 223 1110 217 1089 q 244 1148 229 1132 q 283 1169 260 1164 q 333 1164 306 1175 m 450 -50 q 283 -22 357 -54 q 157 67 210 10 q 73 202 104 125 q 33 366 42 279 q 38 543 24 453 q 93 718 53 633 q 186 838 126 790 q 319 906 246 885 q 472 922 392 926 q 625 886 551 917 q 700 831 669 867 q 746 749 731 794 q 761 651 761 703 q 747 551 761 600 q 703 461 732 503 q 629 393 674 419 q 564 374 603 378 q 484 372 525 369 q 403 385 443 375 q 335 406 364 394 q 332 364 333 390 q 336 313 331 338 q 358 269 342 288 q 408 250 374 250 q 460 260 435 250 q 515 279 486 269 q 578 294 544 289 q 653 290 613 300 q 699 265 683 283 q 720 223 715 247 q 720 169 725 199 q 706 108 715 139 q 666 44 693 72 q 603 -5 639 15 q 528 -37 568 -25 q 450 -50 488 -49 m 438 675 q 390 642 406 661 q 376 606 375 622 q 395 584 378 590 q 446 592 413 578 q 478 619 468 601 q 486 651 488 636 q 472 675 485 667 q 438 675 460 683 z "},"":{"ha":432,"x_min":40,"x_max":388,"o":"m 311 1006 q 278 949 307 968 q 215 940 249 931 q 180 958 196 946 q 150 985 164 969 q 132 1008 140 996 q 114 1032 124 1021 q 87 1062 100 1047 q 64 1094 74 1076 q 71 1168 44 1135 q 129 1203 94 1196 q 196 1196 164 1211 q 240 1163 218 1185 q 278 1115 261 1142 q 303 1060 294 1089 q 311 1006 313 1031 m 371 51 q 330 11 356 26 q 274 -10 304 -4 q 215 -15 244 -17 q 163 -1 185 -12 q 119 38 138 10 q 89 106 101 67 q 68 190 76 144 q 55 283 60 236 q 47 373 50 329 q 43 451 44 417 q 44 542 40 489 q 56 647 47 594 q 81 742 65 699 q 121 807 97 786 q 180 836 146 828 q 248 840 214 844 q 311 817 282 835 q 357 765 340 799 q 369 718 365 750 q 375 647 374 686 q 376 563 376 607 q 374 479 375 519 q 373 406 374 439 q 374 353 372 372 q 379 285 375 328 q 385 197 383 242 q 385 111 388 151 q 371 51 382 71 z "},"":{"ha":432,"x_min":42,"x_max":389,"o":"m 167 918 q 103 926 133 908 q 71 982 74 944 q 78 1038 68 1008 q 104 1093 88 1067 q 142 1141 121 1119 q 185 1174 164 1163 q 252 1181 217 1189 q 310 1144 288 1172 q 324 1110 322 1129 q 317 1072 326 1092 q 294 1039 308 1053 q 268 1010 281 1025 q 249 986 257 999 q 231 963 242 974 q 201 935 217 947 q 167 918 186 924 m 372 51 q 331 11 357 26 q 276 -10 306 -4 q 216 -15 246 -17 q 164 -1 186 -12 q 121 38 139 10 q 90 106 103 67 q 69 190 78 144 q 56 283 61 236 q 49 373 51 329 q 44 451 46 417 q 45 542 42 489 q 58 647 49 594 q 83 742 67 699 q 122 807 99 786 q 181 836 147 828 q 249 840 215 844 q 313 817 283 835 q 358 765 342 799 q 371 718 367 750 q 376 647 375 686 q 377 563 378 607 q 376 479 376 519 q 374 406 375 439 q 375 353 374 372 q 381 285 376 328 q 387 197 385 242 q 386 111 389 151 q 372 51 383 71 z "},"":{"ha":471,"x_min":36,"x_max":443,"o":"m 133 910 q 104 904 119 906 q 76 906 89 903 q 53 917 63 910 q 40 939 43 925 q 46 977 36 956 q 71 1019 56 999 q 103 1059 86 1040 q 133 1090 121 1078 q 153 1108 143 1100 q 172 1124 163 1115 q 203 1150 188 1139 q 239 1168 219 1161 q 265 1173 251 1174 q 290 1167 279 1172 q 322 1144 308 1158 q 349 1117 335 1131 q 376 1087 360 1106 q 408 1047 393 1068 q 433 1004 424 1025 q 442 968 443 983 q 428 939 439 950 q 380 916 408 919 q 328 926 351 913 q 311 936 322 929 q 288 950 300 943 q 263 963 275 957 q 246 968 251 968 q 217 957 236 969 q 192 939 199 944 q 133 910 164 919 m 381 51 q 340 11 365 26 q 284 -10 314 -4 q 224 -15 254 -17 q 172 -1 194 -12 q 129 38 147 10 q 99 106 111 67 q 78 190 86 144 q 65 283 69 236 q 57 373 60 329 q 53 451 54 417 q 53 542 50 489 q 66 647 57 594 q 91 742 75 699 q 132 807 107 786 q 191 836 157 828 q 258 840 225 844 q 322 817 292 835 q 368 765 351 799 q 380 718 376 750 q 385 647 383 686 q 386 563 386 607 q 385 479 386 519 q 384 406 385 439 q 385 353 383 372 q 390 285 386 328 q 395 197 393 242 q 395 111 397 151 q 381 51 393 71 z "},"":{"ha":457,"x_min":35,"x_max":419,"o":"m 360 1083 q 408 1040 396 1068 q 411 984 419 1011 q 376 940 403 957 q 307 929 349 922 q 265 950 279 933 q 247 988 250 967 q 249 1031 243 1008 q 271 1068 256 1053 q 309 1089 286 1083 q 360 1083 332 1094 m 156 1081 q 203 1037 192 1065 q 207 981 215 1008 q 172 936 199 954 q 103 925 144 918 q 48 965 61 933 q 44 1028 35 996 q 84 1078 54 1060 q 156 1081 114 1097 m 382 51 q 341 11 367 26 q 285 -10 315 -4 q 226 -15 256 -17 q 175 -1 197 -12 q 115 69 138 15 q 79 190 92 122 q 62 328 67 258 q 54 451 57 399 q 55 542 51 489 q 67 647 58 594 q 92 742 76 699 q 133 807 108 786 q 192 836 158 828 q 260 840 226 844 q 323 817 293 835 q 369 765 353 799 q 381 718 378 750 q 386 647 385 686 q 388 563 388 607 q 387 479 388 519 q 385 406 386 439 q 386 353 385 372 q 392 285 388 328 q 398 197 396 242 q 397 111 400 151 q 382 51 394 71 z "},"":{"ha":851,"x_min":14,"x_max":825,"o":"m 643 25 q 509 -28 579 -14 q 372 -33 439 -42 q 242 7 304 -24 q 133 86 181 38 q 54 201 85 135 q 19 347 24 267 q 59 499 14 436 q 176 597 104 563 q 338 633 249 631 q 510 601 426 635 q 474 647 493 625 q 436 690 456 669 q 361 649 397 661 q 297 640 325 638 q 250 658 268 643 q 230 694 232 672 q 244 741 228 715 q 303 793 261 767 q 231 877 249 825 q 247 983 213 929 q 313 1044 274 1026 q 396 1058 353 1061 q 483 1033 439 1056 q 563 975 526 1011 q 605 1008 582 992 q 653 1024 628 1024 q 712 1002 692 1024 q 733 951 732 981 q 719 889 735 921 q 669 838 703 857 q 746 697 713 771 q 799 545 779 622 q 822 393 818 468 q 808 250 825 318 q 750 124 790 182 q 643 25 710 65 m 351 386 q 319 324 319 358 q 338 263 318 289 q 391 225 357 236 q 463 235 425 214 q 499 273 490 250 q 503 319 507 296 q 483 364 499 343 q 445 397 467 385 q 399 408 424 408 q 351 386 374 407 z "},"":{"ha":982,"x_min":39,"x_max":949,"o":"m 590 1029 q 529 1013 560 1011 q 476 1033 501 1013 q 454 1050 465 1042 q 429 1064 443 1058 q 421 1067 426 1067 q 415 1060 418 1065 q 408 1053 411 1056 q 397 1037 404 1044 q 382 1026 390 1029 q 346 1022 364 1018 q 314 1036 328 1025 q 293 1064 300 1047 q 290 1099 286 1081 q 303 1131 294 1113 q 326 1167 313 1150 q 353 1198 339 1185 q 382 1215 368 1211 q 416 1214 399 1219 q 449 1199 433 1208 q 481 1174 465 1188 q 515 1154 496 1160 q 522 1157 518 1153 q 528 1164 525 1161 q 543 1183 536 1174 q 557 1200 550 1192 q 587 1217 569 1214 q 619 1213 604 1219 q 646 1193 635 1207 q 657 1161 657 1179 q 651 1126 656 1143 q 639 1093 646 1108 q 618 1057 631 1074 q 590 1029 606 1040 m 931 94 q 869 -1 911 36 q 778 -50 828 -39 q 679 -44 728 -61 q 599 25 631 -28 q 574 112 579 57 q 572 231 569 167 q 576 360 574 294 q 574 479 579 426 q 553 565 569 532 q 500 596 538 597 q 429 553 451 594 q 401 451 407 511 q 400 326 394 392 q 411 213 406 261 q 413 167 413 196 q 412 108 414 138 q 403 51 410 78 q 386 11 397 24 q 342 -22 368 -10 q 286 -39 315 -35 q 226 -40 257 -43 q 169 -26 196 -36 q 114 16 135 -14 q 82 87 93 46 q 68 176 71 128 q 65 272 65 224 q 67 367 65 321 q 68 451 69 414 q 62 534 68 493 q 50 616 56 575 q 42 698 44 657 q 46 779 39 739 q 83 872 54 836 q 151 925 113 908 q 231 939 189 942 q 308 915 274 936 q 365 853 343 893 q 388 756 388 813 q 498 865 433 822 q 629 916 563 907 q 756 897 696 925 q 850 797 815 869 q 883 707 867 763 q 911 586 899 651 q 933 449 924 521 q 945 311 942 378 q 945 188 949 244 q 931 94 942 131 z "},"":{"ha":896,"x_min":26,"x_max":874,"o":"m 538 1110 q 506 1054 535 1072 q 442 1046 476 1036 q 408 1063 424 1051 q 378 1090 392 1075 q 359 1114 367 1101 q 342 1138 351 1126 q 315 1167 328 1153 q 292 1200 301 1181 q 284 1238 282 1219 q 299 1272 286 1257 q 356 1308 321 1300 q 424 1301 392 1317 q 466 1269 444 1290 q 504 1221 488 1247 q 531 1165 521 1194 q 538 1110 540 1136 m 628 50 q 442 -4 532 -1 q 276 28 351 -7 q 144 131 201 64 q 57 284 88 197 q 26 472 26 371 q 65 675 26 572 q 158 819 97 761 q 292 908 218 878 q 447 939 365 938 q 603 913 528 940 q 740 830 678 886 q 839 689 803 774 q 867 577 861 638 q 867 455 874 517 q 840 332 860 393 q 790 217 821 271 q 719 119 760 163 q 628 50 678 76 m 399 565 q 357 485 367 525 q 354 413 347 446 q 381 359 361 381 q 425 333 400 338 q 478 346 450 329 q 531 408 506 363 q 553 506 557 458 q 527 581 550 553 q 469 610 504 610 q 399 565 433 610 z "},"":{"ha":896,"x_min":26,"x_max":874,"o":"m 449 1024 q 385 1032 414 1014 q 353 1088 356 1050 q 360 1143 350 1114 q 386 1199 369 1172 q 424 1247 403 1225 q 467 1279 446 1268 q 534 1286 499 1294 q 592 1250 569 1278 q 606 1216 604 1235 q 599 1178 608 1197 q 576 1144 589 1158 q 549 1115 563 1131 q 531 1092 539 1104 q 513 1068 524 1079 q 483 1041 499 1053 q 449 1024 467 1029 m 628 50 q 442 -4 532 -1 q 276 28 351 -7 q 144 131 201 64 q 57 284 88 197 q 26 472 26 371 q 65 675 26 572 q 158 819 97 761 q 292 908 218 878 q 447 939 365 938 q 603 913 528 940 q 740 830 678 886 q 839 689 803 774 q 867 577 861 638 q 867 455 874 517 q 840 332 860 393 q 790 217 821 271 q 719 119 760 163 q 628 50 678 76 m 399 565 q 357 485 367 525 q 354 413 347 446 q 381 359 361 381 q 425 333 400 338 q 478 346 450 329 q 531 408 506 363 q 553 506 557 458 q 527 581 550 553 q 469 610 504 610 q 399 565 433 610 z "},"":{"ha":896,"x_min":26,"x_max":874,"o":"m 324 1001 q 294 996 310 997 q 265 998 279 994 q 242 1009 251 1001 q 229 1031 232 1017 q 236 1069 226 1047 q 261 1111 246 1090 q 293 1151 276 1132 q 322 1182 310 1169 q 342 1199 332 1192 q 363 1215 353 1207 q 394 1242 378 1231 q 429 1260 410 1253 q 481 1258 457 1271 q 512 1236 499 1250 q 539 1208 525 1222 q 567 1178 550 1197 q 599 1138 583 1160 q 624 1096 614 1117 q 632 1060 633 1075 q 618 1031 629 1042 q 569 1008 599 1011 q 517 1018 540 1004 q 501 1028 511 1021 q 478 1042 490 1035 q 453 1054 465 1049 q 436 1060 442 1060 q 408 1049 426 1061 q 381 1031 389 1036 q 353 1014 368 1021 q 324 1001 339 1007 m 628 50 q 442 -4 532 -1 q 276 28 351 -7 q 144 131 201 64 q 57 284 88 197 q 26 472 26 371 q 65 675 26 572 q 158 819 97 761 q 292 908 218 878 q 447 939 365 938 q 603 913 528 940 q 740 830 678 886 q 839 689 803 774 q 867 577 861 638 q 867 455 874 517 q 840 332 860 393 q 790 217 821 271 q 719 119 760 163 q 628 50 678 76 m 399 565 q 357 485 367 525 q 354 413 347 446 q 381 359 361 381 q 425 333 400 338 q 478 346 450 329 q 531 408 506 363 q 553 506 557 458 q 527 581 550 553 q 469 610 504 610 q 399 565 433 610 z "},"":{"ha":896,"x_min":26,"x_max":874,"o":"m 565 1029 q 537 1016 553 1021 q 506 1013 521 1011 q 453 1033 478 1013 q 431 1050 442 1042 q 406 1064 419 1058 q 397 1067 403 1067 q 391 1060 394 1065 q 385 1053 388 1056 q 374 1037 381 1044 q 358 1026 367 1029 q 322 1022 340 1018 q 290 1036 303 1025 q 269 1064 276 1047 q 267 1099 263 1081 q 280 1131 271 1113 q 302 1167 289 1150 q 330 1198 315 1185 q 358 1215 344 1211 q 392 1214 375 1219 q 425 1199 410 1208 q 457 1174 442 1188 q 492 1154 472 1160 q 498 1157 494 1153 q 504 1164 501 1161 q 519 1183 513 1174 q 533 1200 526 1192 q 563 1217 546 1214 q 596 1213 581 1219 q 622 1193 611 1207 q 632 1161 632 1179 q 627 1126 632 1143 q 615 1093 622 1108 q 594 1057 607 1074 q 565 1029 582 1040 m 628 50 q 442 -4 532 -1 q 276 28 351 -7 q 144 131 201 64 q 57 284 88 197 q 26 472 26 371 q 65 675 26 572 q 158 819 97 761 q 292 908 218 878 q 447 939 365 938 q 603 913 528 940 q 740 830 678 886 q 839 689 803 774 q 867 577 861 638 q 867 455 874 517 q 840 332 860 393 q 790 217 821 271 q 719 119 760 163 q 628 50 678 76 m 399 565 q 357 485 367 525 q 354 413 347 446 q 381 359 361 381 q 425 333 400 338 q 478 346 450 329 q 531 408 506 363 q 553 506 557 458 q 527 581 550 553 q 469 610 504 610 q 399 565 433 610 z "},"":{"ha":896,"x_min":26,"x_max":874,"o":"m 604 1181 q 652 1136 640 1165 q 656 1080 664 1107 q 620 1035 647 1053 q 551 1025 593 1018 q 508 1046 524 1029 q 490 1084 493 1063 q 493 1127 486 1106 q 515 1165 500 1149 q 553 1186 531 1181 q 604 1181 576 1192 m 399 1178 q 448 1133 436 1163 q 451 1077 460 1104 q 416 1033 443 1050 q 347 1022 389 1015 q 304 1044 319 1028 q 285 1081 289 1060 q 289 1124 282 1101 q 310 1162 296 1146 q 348 1183 325 1178 q 399 1178 371 1189 m 628 50 q 442 -4 532 -1 q 276 28 351 -7 q 144 131 201 64 q 57 284 88 197 q 26 472 26 371 q 65 675 26 572 q 158 819 97 761 q 292 908 218 878 q 447 939 365 938 q 603 913 528 940 q 740 830 678 886 q 839 689 803 774 q 867 577 861 638 q 867 455 874 517 q 840 332 860 393 q 790 217 821 271 q 719 119 760 163 q 628 50 678 76 m 399 565 q 357 485 367 525 q 354 413 347 446 q 381 359 361 381 q 425 333 400 338 q 478 346 450 329 q 531 408 506 363 q 553 506 557 458 q 527 581 550 553 q 469 610 504 610 q 399 565 433 610 z "},"":{"ha":729,"x_min":28,"x_max":701,"o":"m 428 597 q 360 580 397 581 q 292 594 322 579 q 267 609 279 600 q 250 632 256 618 q 239 672 238 647 q 251 714 240 697 q 282 741 263 731 q 324 757 301 751 q 369 763 346 763 q 411 757 392 763 q 444 736 429 750 q 467 703 460 722 q 464 643 475 675 q 428 597 453 611 m 536 304 q 429 301 483 301 q 322 300 375 300 q 265 301 301 300 q 190 303 229 301 q 117 311 151 306 q 68 326 83 317 q 42 353 50 338 q 35 375 36 364 q 31 397 33 386 q 31 436 28 417 q 47 472 35 456 q 82 504 61 490 q 129 524 103 518 q 136 525 131 525 q 234 544 183 539 q 335 546 285 549 q 453 538 394 543 q 572 528 513 532 q 594 525 583 526 q 615 521 604 524 q 658 503 639 515 q 689 475 678 490 q 699 447 696 464 q 701 413 701 431 q 695 379 700 396 q 682 353 690 363 q 618 317 660 328 q 536 304 576 307 m 408 92 q 342 74 379 75 q 272 89 304 74 q 249 103 260 94 q 232 125 238 113 q 220 166 218 140 q 233 208 222 192 q 263 235 243 225 q 305 251 282 246 q 351 256 328 257 q 392 250 374 256 q 426 230 411 244 q 447 197 442 215 q 445 138 457 169 q 408 92 433 106 z "},"":{"ha":897,"x_min":22,"x_max":874,"o":"m 218 -89 q 179 -94 201 -100 q 143 -72 157 -87 q 133 -24 124 -51 q 142 -3 135 -14 q 166 41 154 19 q 190 85 178 63 q 97 197 136 131 q 40 340 58 263 q 27 502 22 417 q 65 675 32 588 q 160 821 99 763 q 297 909 221 879 q 455 939 372 939 q 613 910 538 939 q 621 931 617 921 q 632 950 625 940 q 648 972 639 961 q 669 986 657 982 q 710 984 683 989 q 749 972 736 979 q 767 931 771 957 q 750 892 764 919 q 724 844 736 864 q 839 689 797 786 q 867 577 861 638 q 867 455 874 517 q 840 332 860 393 q 790 217 821 271 q 719 119 760 163 q 628 50 678 76 q 441 -5 531 -3 q 276 29 351 -7 q 260 -10 268 10 q 242 -50 251 -31 q 233 -72 238 -61 q 218 -89 228 -82 m 399 565 q 355 476 363 521 q 358 397 347 432 q 377 433 368 415 q 394 468 386 450 q 430 535 411 503 q 467 603 449 568 q 471 610 468 604 q 399 565 433 610 m 431 332 q 481 347 454 329 q 531 408 507 365 q 553 479 550 444 q 547 542 556 514 q 488 437 517 489 q 431 332 460 385 z "},"":{"ha":874,"x_min":36,"x_max":842,"o":"m 507 1053 q 474 997 503 1015 q 411 988 444 978 q 376 1005 392 993 q 346 1032 360 1017 q 328 1056 336 1043 q 310 1079 319 1068 q 283 1109 296 1094 q 260 1142 269 1124 q 267 1215 240 1182 q 325 1251 290 1243 q 392 1243 360 1258 q 435 1210 414 1232 q 474 1163 457 1189 q 499 1107 490 1136 q 507 1053 508 1078 m 735 111 q 642 19 697 54 q 522 -31 586 -17 q 391 -38 458 -44 q 263 -6 324 -32 q 151 67 201 21 q 74 179 101 114 q 50 268 58 215 q 39 383 42 321 q 40 512 36 446 q 51 640 43 578 q 73 754 60 701 q 103 842 86 807 q 171 911 128 892 q 258 923 214 931 q 338 881 301 915 q 383 792 374 847 q 383 730 388 768 q 373 648 379 692 q 360 558 367 604 q 351 472 353 513 q 356 399 349 431 q 382 353 363 367 q 408 339 392 344 q 440 336 424 333 q 472 353 457 339 q 494 397 486 367 q 506 496 507 449 q 499 585 506 543 q 483 667 492 628 q 472 742 475 706 q 477 812 469 778 q 511 878 485 846 q 580 927 540 914 q 659 934 619 940 q 733 902 699 928 q 786 835 768 876 q 827 683 813 774 q 838 490 842 592 q 810 289 835 389 q 735 111 786 189 z "},"":{"ha":874,"x_min":36,"x_max":842,"o":"m 433 997 q 369 1006 399 988 q 338 1061 340 1024 q 344 1117 335 1088 q 369 1172 353 1146 q 408 1220 386 1199 q 451 1253 429 1242 q 518 1260 483 1268 q 576 1224 553 1251 q 591 1190 589 1208 q 583 1151 593 1171 q 560 1118 574 1132 q 533 1089 547 1104 q 516 1065 524 1078 q 497 1042 508 1053 q 467 1015 483 1026 q 433 997 451 1003 m 735 111 q 642 19 697 54 q 522 -31 586 -17 q 391 -38 458 -44 q 263 -6 324 -32 q 151 67 201 21 q 74 179 101 114 q 50 268 58 215 q 39 383 42 321 q 40 512 36 446 q 51 640 43 578 q 73 754 60 701 q 103 842 86 807 q 171 911 128 892 q 258 923 214 931 q 338 881 301 915 q 383 792 374 847 q 383 730 388 768 q 373 648 379 692 q 360 558 367 604 q 351 472 353 513 q 356 399 349 431 q 382 353 363 367 q 408 339 392 344 q 440 336 424 333 q 472 353 457 339 q 494 397 486 367 q 506 496 507 449 q 499 585 506 543 q 483 667 492 628 q 472 742 475 706 q 477 812 469 778 q 511 878 485 846 q 580 927 540 914 q 659 934 619 940 q 733 902 699 928 q 786 835 768 876 q 827 683 813 774 q 838 490 842 592 q 810 289 835 389 q 735 111 786 189 z "},"":{"ha":874,"x_min":36,"x_max":842,"o":"m 324 1000 q 267 995 296 990 q 231 1029 238 1000 q 238 1067 228 1046 q 263 1108 247 1088 q 294 1148 278 1129 q 324 1179 311 1167 q 344 1197 333 1189 q 364 1213 354 1204 q 431 1258 396 1244 q 457 1263 443 1263 q 482 1256 471 1263 q 513 1233 500 1247 q 540 1206 526 1219 q 568 1176 551 1194 q 600 1135 585 1157 q 625 1093 615 1114 q 633 1057 635 1072 q 619 1028 631 1039 q 571 1005 600 1008 q 518 1015 542 1001 q 502 1025 513 1018 q 479 1039 492 1032 q 455 1051 467 1046 q 438 1057 443 1057 q 409 1046 428 1058 q 382 1028 390 1033 q 324 1000 353 1008 m 735 111 q 642 19 697 54 q 522 -31 586 -17 q 391 -38 458 -44 q 263 -6 324 -32 q 151 67 201 21 q 74 179 101 114 q 50 268 58 215 q 39 383 42 321 q 40 512 36 446 q 51 640 43 578 q 73 754 60 701 q 103 842 86 807 q 171 911 128 892 q 258 923 214 931 q 338 881 301 915 q 383 792 374 847 q 383 730 388 768 q 373 648 379 692 q 360 558 367 604 q 351 472 353 513 q 356 399 349 431 q 382 353 363 367 q 408 339 392 344 q 440 336 424 333 q 472 353 457 339 q 494 397 486 367 q 506 496 507 449 q 499 585 506 543 q 483 667 492 628 q 472 742 475 706 q 477 812 469 778 q 511 878 485 846 q 580 927 540 914 q 659 934 619 940 q 733 902 699 928 q 786 835 768 876 q 827 683 813 774 q 838 490 842 592 q 810 289 835 389 q 735 111 786 189 z "},"":{"ha":874,"x_min":36,"x_max":842,"o":"m 546 1182 q 594 1138 582 1167 q 597 1083 606 1110 q 562 1038 589 1056 q 493 1026 535 1019 q 451 1047 465 1031 q 433 1085 436 1064 q 435 1128 429 1107 q 457 1166 442 1150 q 495 1188 472 1182 q 546 1182 518 1193 m 342 1179 q 390 1135 378 1164 q 393 1080 401 1107 q 358 1035 385 1053 q 289 1024 331 1017 q 247 1045 261 1029 q 228 1083 232 1061 q 231 1126 225 1104 q 253 1163 238 1147 q 291 1185 268 1179 q 342 1179 314 1190 m 735 111 q 642 19 697 54 q 522 -31 586 -17 q 391 -38 458 -44 q 263 -6 324 -32 q 151 67 201 21 q 74 179 101 114 q 50 268 58 215 q 39 383 42 321 q 40 512 36 446 q 51 640 43 578 q 73 754 60 701 q 103 842 86 807 q 171 911 128 892 q 258 923 214 931 q 338 881 301 915 q 383 792 374 847 q 383 730 388 768 q 373 648 379 692 q 360 558 367 604 q 351 472 353 513 q 356 399 349 431 q 382 353 363 367 q 408 339 392 344 q 440 336 424 333 q 472 353 457 339 q 494 397 486 367 q 506 496 507 449 q 499 585 506 543 q 483 667 492 628 q 472 742 475 706 q 477 812 469 778 q 511 878 485 846 q 580 927 540 914 q 659 934 619 940 q 733 902 699 928 q 786 835 768 876 q 827 683 813 774 q 838 490 842 592 q 810 289 835 389 q 735 111 786 189 z "},"":{"ha":882,"x_min":17,"x_max":860,"o":"m 476 997 q 413 1006 443 988 q 381 1061 383 1024 q 388 1116 378 1088 q 414 1171 397 1144 q 452 1219 431 1197 q 496 1251 474 1240 q 562 1259 526 1267 q 619 1224 597 1251 q 626 1150 646 1190 q 604 1118 618 1132 q 578 1089 590 1104 q 559 1065 567 1078 q 540 1042 551 1053 q 512 1015 528 1026 q 476 997 496 1003 m 581 -68 q 500 -105 547 -97 q 408 -103 453 -112 q 326 -67 363 -93 q 281 -3 290 -42 q 290 69 274 25 q 330 160 306 114 q 380 251 354 207 q 418 319 406 294 q 285 324 347 308 q 172 377 222 340 q 85 467 121 414 q 33 583 50 519 q 22 715 17 646 q 60 851 28 783 q 101 901 74 881 q 159 933 128 922 q 224 945 190 944 q 283 938 257 946 q 327 910 310 929 q 344 863 344 892 q 356 699 344 756 q 385 625 367 642 q 430 627 404 608 q 485 691 456 646 q 547 803 515 736 q 613 950 579 869 q 652 984 622 975 q 717 989 682 993 q 783 969 751 985 q 832 931 815 954 q 854 869 849 907 q 857 786 860 831 q 846 692 854 742 q 827 597 838 643 q 806 510 817 551 q 786 442 794 469 q 767 373 779 415 q 738 280 754 331 q 703 175 722 229 q 664 73 685 121 q 622 -12 643 25 q 581 -68 601 -50 z "},"":{"ha":924,"x_min":47,"x_max":908,"o":"m 393 -108 q 351 -167 378 -144 q 292 -199 324 -189 q 230 -205 261 -208 q 175 -186 199 -201 q 131 -128 150 -169 q 98 -28 111 -86 q 76 97 85 29 q 63 233 68 164 q 54 366 57 301 q 50 482 51 431 q 51 615 47 538 q 63 769 54 693 q 90 910 72 846 q 132 1004 107 975 q 194 1048 158 1035 q 265 1053 229 1061 q 331 1019 300 1046 q 379 943 363 992 q 392 872 389 919 q 399 765 396 825 q 472 789 436 783 q 566 796 518 800 q 658 779 614 792 q 769 717 718 760 q 851 619 819 674 q 898 489 888 561 q 896 350 908 417 q 863 260 886 304 q 804 185 840 217 q 686 113 751 140 q 551 76 621 85 q 486 73 519 72 q 421 85 453 74 q 415 87 418 86 q 410 89 413 88 q 408 -27 411 26 q 393 -108 404 -81 m 410 364 q 458 358 433 360 q 507 364 483 357 q 547 392 524 371 q 575 432 569 414 q 578 460 579 446 q 575 489 578 474 q 558 525 571 510 q 526 548 544 540 q 488 556 508 556 q 446 550 467 557 q 399 522 421 542 q 397 438 397 478 q 396 368 396 397 q 410 364 401 367 z "},"":{"ha":882,"x_min":17,"x_max":860,"o":"m 583 1189 q 631 1145 619 1174 q 635 1090 643 1117 q 599 1044 626 1063 q 531 1033 572 1026 q 488 1054 503 1038 q 469 1092 472 1071 q 472 1135 465 1114 q 494 1173 479 1157 q 533 1194 510 1189 q 583 1189 556 1200 m 378 1186 q 426 1142 414 1171 q 429 1085 438 1113 q 394 1041 421 1058 q 325 1031 367 1024 q 283 1051 297 1035 q 265 1090 268 1068 q 267 1133 261 1111 q 289 1170 274 1154 q 327 1192 304 1186 q 378 1186 350 1197 m 581 -68 q 500 -105 547 -97 q 408 -103 453 -112 q 326 -67 363 -93 q 281 -3 290 -42 q 290 69 274 25 q 330 160 306 114 q 380 251 354 207 q 418 319 406 294 q 285 324 347 308 q 172 377 222 340 q 85 467 121 414 q 33 583 50 519 q 22 715 17 646 q 60 851 28 783 q 101 901 74 881 q 159 933 128 922 q 224 945 190 944 q 283 938 257 946 q 327 910 310 929 q 344 863 344 892 q 356 699 344 756 q 385 625 367 642 q 430 627 404 608 q 485 691 456 646 q 547 803 515 736 q 613 950 579 869 q 652 984 622 975 q 717 989 682 993 q 783 969 751 985 q 832 931 815 954 q 854 869 849 907 q 857 786 860 831 q 846 692 854 742 q 827 597 838 643 q 806 510 817 551 q 786 442 794 469 q 767 373 779 415 q 738 280 754 331 q 703 175 722 229 q 664 73 685 121 q 622 -12 643 25 q 581 -68 601 -50 z "},"":{"ha":869,"x_min":11,"x_max":851,"o":"m 808 38 q 729 -26 778 -1 q 624 -59 681 -50 q 506 -64 567 -68 q 388 -42 444 -60 q 287 6 332 -24 q 217 79 242 36 q 165 217 182 136 q 146 390 149 299 q 128 382 138 385 q 76 383 100 372 q 30 426 49 397 q 14 486 11 456 q 24 524 15 506 q 47 557 33 542 q 65 572 56 565 q 83 585 74 578 q 123 613 103 600 q 163 640 143 625 q 206 838 178 744 q 275 993 235 931 q 345 1066 304 1040 q 430 1098 386 1092 q 516 1092 474 1104 q 591 1051 558 1079 q 640 981 624 1024 q 651 882 657 938 q 642 824 649 853 q 629 767 636 796 q 693 793 660 789 q 741 788 717 796 q 779 760 765 779 q 798 722 792 742 q 807 681 804 701 q 803 622 814 650 q 771 582 792 597 q 746 567 760 572 q 718 554 732 561 q 648 528 683 540 q 578 503 613 517 q 565 498 571 500 q 553 493 560 496 q 540 342 536 418 q 565 311 542 318 q 621 304 589 304 q 686 306 653 304 q 743 301 719 308 q 810 259 785 289 q 843 192 835 229 q 843 113 851 154 q 808 38 835 72 z "},"":{"ha":678,"x_min":11,"x_max":663,"o":"m 511 -49 q 388 -53 446 -61 q 281 -19 329 -46 q 197 53 232 8 q 146 163 163 99 q 131 238 138 194 q 121 335 125 282 q 101 326 110 328 q 78 324 90 324 q 54 332 65 325 q 33 356 42 342 q 18 385 25 369 q 17 419 11 400 q 33 453 22 439 q 73 483 50 472 q 115 511 96 494 q 120 631 115 571 q 134 745 125 692 q 158 843 143 799 q 192 917 172 888 q 268 973 219 958 q 366 979 317 988 q 456 941 415 971 q 510 864 497 911 q 523 747 525 806 q 514 626 521 688 q 529 635 518 629 q 552 640 540 639 q 575 636 564 642 q 598 613 590 629 q 610 582 606 597 q 617 556 614 569 q 618 528 621 542 q 606 501 615 514 q 586 481 597 489 q 548 462 568 468 q 508 446 528 456 q 502 442 506 444 q 492 436 499 439 q 492 356 489 396 q 508 276 496 315 q 531 249 514 258 q 568 232 549 239 q 607 217 588 225 q 636 192 626 208 q 659 121 656 158 q 648 49 663 83 q 600 -11 633 15 q 511 -49 567 -37 z "},"":{"ha":1558,"x_min":29,"x_max":1544,"o":"m 1428 89 q 1293 28 1374 57 q 1128 -15 1213 0 q 965 -26 1043 -31 q 835 15 886 -21 q 792 71 810 33 q 644 6 722 26 q 487 -13 565 -15 q 335 15 408 -11 q 201 90 261 40 q 98 211 140 139 q 42 379 56 283 q 36 549 29 461 q 68 722 43 638 q 136 882 93 807 q 240 1014 179 957 q 367 1090 293 1063 q 523 1123 442 1117 q 685 1114 604 1129 q 832 1061 767 1099 q 833 1064 833 1063 q 903 1108 854 1093 q 1008 1131 951 1124 q 1120 1138 1064 1138 q 1213 1138 1176 1139 q 1290 1134 1243 1138 q 1385 1122 1338 1131 q 1474 1098 1433 1114 q 1532 1057 1515 1082 q 1543 1017 1542 1042 q 1539 965 1544 992 q 1525 912 1533 938 q 1508 869 1517 886 q 1444 815 1488 828 q 1349 804 1401 801 q 1242 820 1297 807 q 1142 844 1188 833 q 1085 852 1110 853 q 1056 819 1061 851 q 1051 802 1054 813 q 1045 781 1047 792 q 1044 763 1043 771 q 1053 753 1046 756 q 1111 744 1069 746 q 1199 740 1153 742 q 1287 733 1246 738 q 1342 718 1328 729 q 1364 667 1360 703 q 1362 592 1368 632 q 1340 519 1356 553 q 1301 476 1324 486 q 1250 471 1285 469 q 1177 476 1215 472 q 1104 486 1139 481 q 1051 494 1069 492 q 1046 447 1050 475 q 1042 393 1042 419 q 1047 345 1042 367 q 1071 317 1053 324 q 1106 317 1082 313 q 1161 332 1131 322 q 1226 354 1192 342 q 1290 376 1260 367 q 1345 392 1321 386 q 1382 397 1369 399 q 1462 349 1432 389 q 1499 260 1492 310 q 1489 162 1506 210 q 1428 89 1472 114 m 439 428 q 521 403 479 397 q 597 436 563 408 q 656 506 632 464 q 687 592 681 549 q 676 674 693 636 q 614 732 660 713 q 535 740 574 749 q 466 706 497 731 q 414 644 435 681 q 387 569 393 608 q 392 492 381 529 q 439 428 404 454 z "},"":{"ha":1396,"x_min":26,"x_max":1367,"o":"m 1054 -54 q 870 -18 950 -58 q 738 93 790 22 q 628 1 688 35 q 442 -52 532 -50 q 276 -19 351 -54 q 144 83 201 17 q 57 237 88 150 q 26 424 26 324 q 65 626 26 524 q 139 751 92 699 q 244 835 186 803 q 367 881 301 868 q 499 888 433 894 q 628 855 565 882 q 740 782 690 828 q 840 866 782 833 q 963 911 897 899 q 1098 916 1029 924 q 1231 882 1167 908 q 1306 827 1275 864 q 1351 744 1336 790 q 1367 647 1367 699 q 1352 548 1367 596 q 1308 458 1338 500 q 1235 390 1279 417 q 1169 369 1208 374 q 1089 369 1131 365 q 1008 381 1047 372 q 939 401 968 390 q 936 360 938 386 q 940 309 935 335 q 963 265 946 283 q 1013 246 979 246 q 1065 256 1039 246 q 1121 276 1092 265 q 1183 292 1150 286 q 1257 288 1217 297 q 1305 263 1289 281 q 1326 220 1321 244 q 1325 166 1331 196 q 1310 106 1319 136 q 1270 41 1297 69 q 1208 -8 1243 13 q 1132 -41 1172 -29 q 1054 -54 1092 -53 m 1043 671 q 996 638 1011 657 q 982 603 981 618 q 1001 581 983 588 q 1051 589 1018 575 q 1083 615 1074 597 q 1092 648 1093 632 q 1078 672 1090 664 q 1043 671 1065 681 m 399 518 q 357 438 367 478 q 354 366 347 399 q 381 312 361 333 q 425 286 400 290 q 478 299 450 282 q 531 360 506 315 q 553 458 557 410 q 527 534 550 506 q 469 563 504 563 q 399 518 433 563 z "},"":{"ha":869,"x_min":21,"x_max":838,"o":"m 507 1175 q 456 1174 483 1164 q 420 1192 436 1181 q 389 1218 404 1204 q 369 1235 379 1228 q 349 1251 358 1242 q 319 1283 336 1264 q 288 1322 303 1301 q 263 1365 272 1343 q 256 1403 253 1386 q 268 1424 258 1417 q 292 1435 278 1432 q 321 1438 306 1439 q 350 1432 336 1436 q 408 1403 381 1421 q 434 1385 415 1397 q 463 1374 453 1372 q 480 1379 468 1374 q 504 1392 492 1385 q 528 1406 517 1399 q 544 1415 539 1413 q 597 1426 568 1429 q 644 1403 625 1422 q 658 1374 656 1393 q 650 1338 660 1358 q 625 1295 640 1317 q 593 1255 610 1274 q 565 1225 576 1236 q 538 1197 551 1211 q 507 1175 525 1183 m 754 507 q 824 378 811 447 q 816 244 838 310 q 744 119 794 178 q 624 17 693 60 q 472 -46 554 -25 q 304 -56 389 -67 q 189 -11 238 -47 q 119 72 140 25 q 109 167 97 118 q 178 251 121 217 q 232 274 200 265 q 297 290 264 283 q 360 302 329 296 q 413 318 392 308 q 444 342 435 328 q 442 381 453 357 q 399 412 433 400 q 325 431 365 424 q 245 444 285 439 q 185 458 206 450 q 58 554 96 493 q 24 686 21 615 q 67 830 28 757 q 170 963 106 903 q 319 1059 235 1022 q 500 1096 404 1096 q 603 1088 549 1096 q 706 1059 658 1079 q 788 1007 754 1039 q 828 929 821 975 q 827 862 832 897 q 807 797 822 826 q 767 744 792 767 q 710 715 743 722 q 653 717 686 710 q 584 735 619 725 q 515 755 549 746 q 455 763 481 764 q 415 744 429 761 q 403 688 400 728 q 423 659 404 671 q 472 637 442 647 q 540 615 503 626 q 617 589 578 604 q 692 554 656 574 q 754 507 728 535 z "},"":{"ha":664,"x_min":29,"x_max":636,"o":"m 383 1035 q 358 1028 372 1028 q 332 1032 343 1028 q 297 1051 313 1039 q 265 1076 281 1063 q 245 1094 256 1086 q 225 1111 235 1101 q 195 1142 213 1124 q 163 1182 178 1161 q 138 1224 147 1203 q 132 1261 128 1244 q 144 1283 135 1275 q 167 1294 154 1292 q 196 1296 181 1297 q 225 1290 211 1294 q 255 1278 240 1286 q 283 1263 269 1271 q 310 1244 292 1256 q 339 1232 328 1232 q 356 1238 344 1232 q 379 1251 367 1243 q 403 1265 392 1258 q 419 1275 414 1272 q 472 1285 443 1289 q 521 1261 501 1281 q 535 1232 532 1250 q 526 1196 536 1217 q 501 1154 517 1175 q 468 1115 485 1133 q 440 1085 451 1096 q 414 1057 428 1071 q 383 1035 400 1043 m 519 93 q 401 10 469 43 q 264 -29 332 -22 q 136 -12 196 -36 q 46 75 76 11 q 32 126 35 99 q 34 182 29 154 q 53 233 39 210 q 89 272 67 257 q 148 299 114 289 q 210 318 182 308 q 249 340 238 328 q 240 372 261 351 q 190 415 217 394 q 138 458 163 436 q 92 505 113 481 q 61 560 71 529 q 47 685 39 625 q 85 796 56 746 q 163 885 115 846 q 271 946 211 924 q 397 972 331 968 q 529 958 463 976 q 603 903 576 944 q 633 815 629 863 q 616 724 636 768 q 550 663 596 681 q 491 652 525 651 q 427 652 457 653 q 379 644 397 651 q 369 610 361 636 q 391 578 374 596 q 430 544 408 561 q 473 513 451 528 q 506 490 494 499 q 599 388 574 442 q 621 283 625 335 q 588 182 617 231 q 519 93 560 133 z "}}}
